<svg xmlns="http://www.w3.org/2000/svg" xmlns:xlink="http://www.w3.org/1999/xlink" viewBox="0 0 777.55 1081.29"><defs><style>.cls-1{fill:none;}.cls-2{fill:url(#linear-gradient);}.cls-3{fill:url(#linear-gradient-2);}.cls-4,.cls-8{fill:#c70012;}.cls-5,.cls-9{fill:#e41913;}.cls-14,.cls-6{fill:#5f0a06;}.cls-15,.cls-7{fill:#490303;}.cls-10,.cls-12,.cls-13,.cls-14,.cls-15,.cls-8,.cls-9{fill-rule:evenodd;}.cls-10{fill:#ffca05;}.cls-11{fill:#ef8285;}.cls-12,.cls-17{fill:#f3f2b0;}.cls-13,.cls-18{fill:#e2dd7d;}.cls-16{clip-path:url(#clip-path);}</style><linearGradient id="linear-gradient" x1="161.89" y1="794.66" x2="161.89" y2="697.93" gradientUnits="userSpaceOnUse"><stop offset="0" stop-color="#e41913"/><stop offset="1" stop-color="#ad100c"/></linearGradient><linearGradient id="linear-gradient-2" x1="-73.01" y1="149.32" x2="-73.01" y2="51.52" gradientTransform="matrix(0.96, -0.16, 0.15, 0.93, 98.12, 639.99)" xlink:href="#linear-gradient"/><clipPath id="clip-path"><path class="cls-1" d="M390.69,390.63s-58.71,4.49-92.23,1.81c0,0,5.63,41.47,45.7,42.68S390.69,390.63,390.69,390.63Z"/></clipPath></defs><g id="Layer_2" data-name="Layer 2"><g id="SCR"><path class="cls-2" d="M241,697.93S130.24,850.92,48.46,719c2.62,22.42,69.89,162.24,226.85-6.57Z"/><path class="cls-3" d="M49.21,754.46s1,31.67-7.73,37.11C34.14,796.15-5.41,710.85.62,705.39c5.11-4.22,82.63,31.12,80.69,40.39S49.21,754.46,49.21,754.46Z"/><polygon class="cls-4" points="613.81 539.19 642.36 533.88 642.26 455.52 608.65 470.37 613.81 539.19"/><path class="cls-5" d="M460.56,455.52s51.78,26.66,78.18,28.62,74.63-20,74.63-20l.44,75.05a265.53,265.53,0,0,1-76.82-1.9c-41.31-7.25-85-52.94-85-52.94Z"/><path class="cls-6" d="M640.41,1062.6c-.07,8.27-5.25,14.93-11.55,14.88h0c-6.32-.07-11.37-6.82-11.29-15.09L625.73,54.88C625.8,46.62,631,40,637.29,40h0c6.3,0,11.37,6.8,11.28,15.08Z"/><path class="cls-6" d="M527.71,104c-15.35,28.14-25.06,62.78-22.74,95.21,5,69.49,72.93,89.09,129.09,91.82,14.29.69,14.46-22.52.22-23.21-51.14-2.47-109-18.86-107.46-82.63.57-23.59,8.74-48.82,19.92-69.3,7.1-13-11.92-24.88-19-11.89Z"/><path class="cls-6" d="M726.18,117.59a166.27,166.27,0,0,1,18.63,69.66c2.22,63.78-59.42,79.12-109,80.58-14.24.44-14.5,23.65-.22,23.23,58.33-1.73,122-20.15,130.78-89.39,4-31.73-6.47-67.86-21-95.61-6.85-13.14-26.09-1.63-19.24,11.53Z"/><path class="cls-6" d="M638.93,69s-22.51,22.31-32.44,19.63C598.16,86.43,633.58-.65,641.68,0c6.55.88,33.57,81.69,25.47,86.59S638.93,69,638.93,69Z"/><path class="cls-6" d="M529.87,128.62s-28,14.88-36.72,9.47c-7.33-4.57,51.68-77.75,59.27-74.76,6,2.71,8.6,87.87-.6,90.25S529.87,128.62,529.87,128.62Z"/><path class="cls-6" d="M744.11,126.94s-9.27,30.3-19.27,32.65c-8.42,1.95-18.43-91.51-11-94.75,6.19-2.35,68.22,56.05,63.4,64.2S744.11,126.94,744.11,126.94Z"/><path class="cls-6" d="M640.41,1062.6c-.07,8.27-5.25,14.93-11.55,14.88h0c-6.32-.07-11.37-6.82-11.29-15.09L625.73,54.88C625.8,46.62,631,40,637.29,40h0c6.3,0,11.37,6.8,11.28,15.08Z"/><path class="cls-6" d="M527.71,104c-15.35,28.14-25.06,62.78-22.74,95.21,5,69.49,72.93,89.09,129.09,91.82,14.29.69,14.46-22.52.22-23.21-51.14-2.47-109-18.86-107.46-82.63.57-23.59,8.74-48.82,19.92-69.3,7.1-13-11.92-24.88-19-11.89Z"/><path class="cls-6" d="M726.18,117.59a166.27,166.27,0,0,1,18.63,69.66c2.22,63.78-59.42,79.12-109,80.58-14.24.44-14.5,23.65-.22,23.23,58.33-1.73,122-20.15,130.78-89.39,4-31.73-6.47-67.86-21-95.61-6.85-13.14-26.09-1.63-19.24,11.53Z"/><path class="cls-6" d="M638.93,69s-22.51,22.31-32.44,19.63C598.16,86.43,633.58-.65,641.68,0c6.55.88,33.57,81.69,25.47,86.59S638.93,69,638.93,69Z"/><path class="cls-6" d="M744.11,126.94s-9.27,30.3-19.27,32.65c-8.42,1.95-18.43-91.51-11-94.75,6.19-2.35,68.22,56.05,63.4,64.2S744.11,126.94,744.11,126.94Z"/><path class="cls-6" d="M713.88,64.84c-7.47,3.24,2.54,96.7,11,94.75,4.57-1.07,9-8,12.43-15.16a162.5,162.5,0,0,1,7.54,42.82c2.06,59.11-50.75,76.62-98,80l1.54-189c6.35,5.52,14.34,11,18.76,8.31C675.25,81.69,648.23.88,641.68,0c-8.1-.65-43.52,86.43-35.19,88.66,4.75,1.28,12.37-3.15,19-8.13L624,267.14c-48.3-4.17-98.66-22.41-97.19-81.94.37-15,3.82-30.72,9.17-45.43,4.52,7.24,10.73,15.12,15.83,13.81,9.2-2.38,6.62-87.54.6-90.25-7.59-3-66.6,70.19-59.27,74.76,4.21,2.6,12.89.5,20.75-2.38-6.87,20.51-10.43,42.48-8.93,63.51,4.7,65.31,65,86.56,118.85,91.13l-6.25,772c-.08,8.27,5,15,11.29,15.09s11.48-6.61,11.55-14.88l6.26-772.08c55.07-3.71,111.5-24,119.71-88.85,2.91-23-1.82-48.42-10.18-71.21,8.34,1.94,18.39,3.14,21.08-1.42C782.1,120.89,720.07,62.49,713.88,64.84Z"/><path class="cls-7" d="M762.66,130.46c.15.43.3.87.46,1.3a32.64,32.64,0,0,0,8.52.24A69.08,69.08,0,0,1,762.66,130.46Z"/><path class="cls-7" d="M724.84,159.59a9.06,9.06,0,0,0,3.84-2.21c-7.06-12.93-13.87-78-9.68-90.52-2.49-1.57-4.3-2.33-5.12-2C706.41,68.08,716.42,161.54,724.84,159.59Z"/><path class="cls-7" d="M653.32,266.72v.56c47.22-3.41,100-20.92,98-80a162.5,162.5,0,0,0-7.54-42.82,67.76,67.76,0,0,1-4.26,7.69,158.68,158.68,0,0,1,5.34,35.13C746.78,243.68,698.75,262.19,653.32,266.72Z"/><path class="cls-7" d="M667.23,86.52c-3.94-1.46-8.47-4.84-12.38-8.24l-.05,5c4.68,3.17,9.34,5.12,12.35,3.3Z"/><path class="cls-7" d="M542.45,139.77c-.75,2.07-1.46,4.15-2.13,6.26,3.73,4.79,7.89,8.47,11.5,7.55a2.72,2.72,0,0,0,1.44-1.17C549.46,150,545.55,144.75,542.45,139.77Z"/><path class="cls-7" d="M624,1062.39l6.25-772c-53.86-4.57-114.15-25.82-118.85-91.13-1.5-21,2.05-43,8.93-63.51-2.38.87-4.83,1.66-7.2,2.28-6.38,19.86-9.64,41-8.19,61.23,4.7,65.31,65,86.56,118.85,91.13l-6.25,772c-.08,8.27,5,15,11.29,15.09a9,9,0,0,0,3.33-.62C627.41,1075,624,1069.23,624,1062.39Z"/><path class="cls-7" d="M499.61,138.09c-6.41-4,37.89-60.43,54.2-72.56-.44-1.21-.91-2-1.39-2.2-7.59-3-66.6,70.19-59.27,74.76,2.07,1.28,5.22,1.42,8.81.89A7.56,7.56,0,0,1,499.61,138.09Z"/><path class="cls-7" d="M632,80.53a74.12,74.12,0,0,1-6.49,4.4L624,266.5c2.15.24,4.3.46,6.45.64Z"/><path class="cls-7" d="M606.49,88.66a10.4,10.4,0,0,0,5.77-.51C607.57,81.57,633,17.37,644.45,2.9c-1.11-1.77-2.06-2.8-2.77-2.9C633.58-.65,598.16,86.43,606.49,88.66Z"/><polygon class="cls-5" points="339.78 437.18 219.01 455.52 231.41 697.92 339.78 697.92 447.88 697.92 460.56 455.52 339.78 437.18"/><path class="cls-8" d="M450,658c-.44-1-1-1.45-1.8-1.43-2.46,0-12,23.58-12,22s-7.1-20.67-17.76-28.42-19.06-12.28-17.77-10.34,5.17,32.3,4.52,30.69-23.26-16.16-33.92-20-16.15-5.17-12.92-3.23,9,26.49,8.08,23.91S328,645.28,329.61,647.22s3.23,28.43,1.62,25.2-16.16-15.19-15.51-13.25-8.46,12.42-8.46,12.42c-12.92-16.15-34.57-22-33.6-20s3.23,18.1,2.26,15.83S262,660.61,251.7,657.06s-13.25-3.23-11.64-2.59,9.38,12.6,7.76,11.31c-1-.77-10.51-1.42-18.15-1.82l.87,16.88c.46,1.72,1.15,3.3,2.1,3.35h.12l-2.06-.12.71,13.85H447.88Z"/><path class="cls-8" d="M339.78,437.18l-80.37,12.2c14.35,23.32,33.66,42.89,82.88,44.29,48.73-1.39,68.14-20.58,82.46-43.59Z"/><path class="cls-5" d="M613.37,464.14s30.89-35.89,35.77-22c9.18,26.19-32.13,44.77-35.77,47.34Z"/><path class="cls-4" d="M618.75,458.24c-3.24,3.41-5.38,5.9-5.38,5.9V489.5c3-2.11,31.41-15,36.36-34.1C620.64,470.91,618.75,458.24,618.75,458.24Z"/><path class="cls-5" d="M665.71,518.07c4.73.37,8.15,6.23,7.57,13h0c-.57,6.8-4.87,12-9.62,11.61l-26.94-2.24c-4.77-.4-8.17-6.25-7.6-13h0c.58-6.82,4.9-12,9.63-11.63Z"/><path class="cls-4" d="M665,535.46l-27-2.24c-4.27-.36-7.44-5.11-7.63-11a16.88,16.88,0,0,0-1.29,5.22c-.57,6.8,2.83,12.65,7.6,13l26.94,2.24c4.75.4,9.05-4.81,9.62-11.61a15.81,15.81,0,0,0,0-2.06C671.6,533.11,668.41,535.75,665,535.46Z"/><path class="cls-5" d="M666.2,491.75c4.76.4,8.1,6.87,7.45,14.42h0c-.62,7.56-5,13.36-9.73,13L637,516.89c-4.74-.39-8.09-6.84-7.45-14.42h0c.63-7.53,5-13.36,9.74-13Z"/><path class="cls-4" d="M666,512.16l-26.95-2.25c-4.74-.38-8.09-6.83-7.45-14.41,0-.23,0-.46.08-.68a19.47,19.47,0,0,0-2.19,7.65c-.64,7.58,2.71,14,7.45,14.42l26.95,2.24c4.59.39,8.82-5,9.65-12.26C671.72,510.29,668.94,512.41,666,512.16Z"/><path class="cls-5" d="M667.15,466.26c4.75.4,8.08,6.86,7.44,14.42h0c-.61,7.57-5,13.36-9.71,13l-26.94-2.24c-4.77-.41-8.11-6.84-7.47-14.41h0c.63-7.56,5-13.36,9.72-13Z"/><path class="cls-4" d="M668.11,485.16l-26.94-2.24c-4.77-.41-8.11-6.84-7.47-14.41,0-.34.07-.67.11-1a18.52,18.52,0,0,0-3.34,9.49c-.64,7.57,2.7,14,7.47,14.41l26.94,2.24c4.52.38,8.69-4.89,9.59-11.94C672.72,484,670.46,485.35,668.11,485.16Z"/><path class="cls-5" d="M216.25,633.37s-22.62-54.26-22.57-75,27.47-61.06,27.47-61.06L219,455.52S154.27,512.85,143.1,557c-6.06,23.92-1.91,76.82-1.91,76.82l-.74,48.94c-.39,4.74,4.82,9,11.62,9.62,6.06.52,11.36-2.13,12.72-6.06,1.77,3.32,6.49,6,12.22,6.43,6.13.52,11.54-1.58,13.58-4.93,2,3.06,6.48,5.43,11.91,5.87,7.56.64,14-2.7,14.42-7.44l1.4-16.93a9.54,9.54,0,0,0,4.39.64C237.36,668.34,216.25,633.37,216.25,633.37Z"/><path class="cls-9" d="M465.17,308.05c6.75-8.69,66.1-29.92,66.1-29.92s-2.9,42-20.27,64.65S458.41,366.91,458.41,364,465.17,308.05,465.17,308.05Z"/><path class="cls-8" d="M471.2,325.66c5.55-7,43.42-26.06,43.42-26.06s-3.86,24.85-14.95,36.19-25.34,15.92-27.51,8.68S471.2,325.66,471.2,325.66Z"/><path class="cls-10" d="M482.42,354.19a3.55,3.55,0,0,1,4.23-.29,12.67,12.67,0,0,0-1.61,6.23,12.23,12.23,0,1,0,24.45,0,12.64,12.64,0,0,0-5.2-10.27c.95-.82,1.88-1.69,2.78-2.6a16.49,16.49,0,0,1,6.11,12.87,15.93,15.93,0,1,1-31.84,0A16.88,16.88,0,0,1,482.42,354.19Z"/><path class="cls-9" d="M224.86,308.05c-6.76-8.69-66.1-29.92-66.1-29.92s2.89,42,20.26,64.65,52.59,24.13,52.59,21.23S224.86,308.05,224.86,308.05Z"/><path class="cls-8" d="M218.83,325.66c-5.55-7-43.43-26.06-43.43-26.06s3.86,24.85,15,36.19,25.33,15.92,27.5,8.68S218.83,325.66,218.83,325.66Z"/><path class="cls-8" d="M342.29,477.12c-79.72-2.27-72.61-57.29-108.51-90-16.32-14.87-31.28-46.19-31.28-63.76,0-102.53,55.18-170.63,139-172.58l.8,0,.81,0c83.8,2,139,70.05,139,172.58,0,17.57-15,48.89-31.28,63.76C414.91,419.83,422,474.85,342.29,477.12Z"/><path class="cls-9" d="M342.29,477.12c-79.72-2.27-72.61-57.29-108.51-90-15-13.71-28.92-41.39-31-59.4C207,232,261,169.07,341.49,167.2l.8,0,.81,0c80.47,1.87,134.54,64.75,138.71,160.53-2.08,18-16,45.69-31,59.4C414.91,419.83,422,474.85,342.29,477.12Z"/><path class="cls-9" d="M342.29,477.12c-79.72-2.27-72.61-57.29-108.51-90-15-13.71-28.92-41.39-31-59.4C207,232,261,169.07,341.49,167.2l.8,0,.81,0c80.47,1.87,134.54,64.75,138.71,160.53-2.08,18-16,45.69-31,59.4C414.91,419.83,422,474.85,342.29,477.12Z"/><path class="cls-8" d="M450.8,369c-35.89,32.7-28.78,87.72-108.51,90-79.72-2.28-72.61-57.3-108.51-90-13.64-12.43-26.32-36.34-30.12-54.12q-.6,6.35-.88,12.89c2.08,18,16,45.69,31,59.4,35.9,32.7,28.79,87.72,108.51,90,79.73-2.27,72.62-57.29,108.51-90,15.05-13.71,28.93-41.39,31-59.4q-.29-6.54-.88-12.89C477.13,332.62,464.44,356.53,450.8,369Z"/><path class="cls-4" d="M291.33,196.78c-5.94-11.44-21.07-8-21.4-7.9-18.11,12-33.1,28.76-44.3,49.43a53.73,53.73,0,0,0,40.76,13.1C300.18,248.14,297.34,208.35,291.33,196.78Z"/><path class="cls-6" d="M272.15,192.73s-61.39-17.6-24.78-53.91-17.11-12-33.24,8.69c-13.17,16.9-39.61,63.49,47.26,93,0,0,17.1,5.14,22.77-18.32C290.08,197.7,272.15,192.73,272.15,192.73Z"/><path class="cls-7" d="M249.07,122.36c-1.26,1.34-2.65,2.79-4.24,4.35-13.09,13-13.64,23.58-9,31.83.71-5.82,4.1-12.38,11.49-19.72C266.51,119.84,261,117.41,249.07,122.36Z"/><path class="cls-7" d="M282.81,201.82a40.65,40.65,0,0,1-1.19,8.26c-5.67,23.46-22.77,18.32-22.77,18.32-36.72-12.47-53.2-28-59-43.05.86,18.48,14.8,39.29,61.52,55.16,0,0,17.1,5.14,22.77-18.32C286.43,212.8,285.19,206.29,282.81,201.82Z"/><path class="cls-4" d="M400,386.8s-70.12,5.36-110.16,2.17c0,0,6.73,49.52,54.58,51S400,386.8,400,386.8Z"/><path class="cls-6" d="M390.69,390.63s-58.71,4.49-92.23,1.81c0,0,5.63,41.47,45.7,42.68S390.69,390.63,390.69,390.63Z"/><path class="cls-11" d="M375.57,422.57c-6.33-7.22-17.22-12-29.6-12-13.22,0-24.74,5.44-30.82,13.5,6.72,6,16.06,10.65,29,11C358.54,435.55,368.59,429.94,375.57,422.57Z"/><path class="cls-8" d="M248.07,290.81a33.75,33.75,0,0,0-5.13,15.46c-1.57,20.75,16.33,39,40,40.82s44.1-13.58,45.67-34.33C329,307.13,248.07,290.81,248.07,290.81Z"/><path class="cls-8" d="M242.57,290.87,324.48,317a5.81,5.81,0,0,0,7.28-3.75L249.54,269a5.81,5.81,0,0,0-7.27,3.76l-3.45,10.83A5.8,5.8,0,0,0,242.57,290.87Z"/><path class="cls-12" d="M257.88,293.87a27.71,27.71,0,0,0-4.2,12.65c-1.29,17,13.35,31.92,32.7,33.39s36.07-11.1,37.36-28.08C324.09,307.23,257.88,293.87,257.88,293.87Z"/><path class="cls-13" d="M286.84,333.92c18.14,1.38,34-9.6,36.94-25a27.91,27.91,0,0,1,0,2.89c-1.29,17-18,29.55-37.36,28.08s-34-16.41-32.7-33.39a24.6,24.6,0,0,1,.4-2.86C254.68,319.31,268.69,332.54,286.84,333.92Z"/><path class="cls-14" d="M297.91,325.78a13,13,0,1,1,11.68-13.89A12.85,12.85,0,0,1,297.91,325.78Z"/><path class="cls-15" d="M309.59,311.89a13.11,13.11,0,0,0-3.44-7.9,13.09,13.09,0,0,1,1.53,5.21A12.84,12.84,0,0,1,296,323.09a12.55,12.55,0,0,1-10.2-4.07,12.68,12.68,0,0,0,12.1,6.76A12.86,12.86,0,0,0,309.59,311.89Z"/><path class="cls-12" d="M286.9,312.82a4.44,4.44,0,1,0,4.09-4.77A4.43,4.43,0,0,0,286.9,312.82Z"/><path class="cls-14" d="M248.54,291.34l76.36,24.34a5.81,5.81,0,0,0,7.27-3.76L255.1,270.79a5.81,5.81,0,0,0-7.28,3.75l-3,9.53A5.8,5.8,0,0,0,248.54,291.34Z"/><path class="cls-15" d="M325.25,312.21,248.9,287.87a5.78,5.78,0,0,1-3.9-4.46l-.21.66a5.8,5.8,0,0,0,3.75,7.27l76.36,24.34a5.81,5.81,0,0,0,7.27-3.76l-1.47-.79A5.78,5.78,0,0,1,325.25,312.21Z"/><path class="cls-8" d="M442.67,290.81a33.64,33.64,0,0,1,5.13,15.46c1.58,20.75-16.32,39-40,40.82s-44.09-13.58-45.67-34.33C361.74,307.13,442.67,290.81,442.67,290.81Z"/><path class="cls-8" d="M448.17,290.87,366.26,317a5.8,5.8,0,0,1-7.27-3.75L441.2,269a5.82,5.82,0,0,1,7.28,3.76l3.45,10.83A5.81,5.81,0,0,1,448.17,290.87Z"/><path class="cls-12" d="M432.86,293.87a27.59,27.59,0,0,1,4.2,12.65c1.29,17-13.35,31.92-32.7,33.39s-36.07-11.1-37.35-28.08C366.66,307.23,432.86,293.87,432.86,293.87Z"/><path class="cls-13" d="M403.91,333.92c-18.15,1.38-34-9.6-36.94-25a25.37,25.37,0,0,0,0,2.89c1.28,17,18,29.55,37.35,28.08s34-16.41,32.7-33.39a27,27,0,0,0-.39-2.86C436.06,319.31,422.05,332.54,403.91,333.92Z"/><path class="cls-14" d="M394.79,325.78a13,13,0,1,1,11.67-13.89A12.85,12.85,0,0,1,394.79,325.78Z"/><path class="cls-15" d="M406.46,311.89A13,13,0,0,0,403,304a13.25,13.25,0,0,1,1.53,5.21,12.85,12.85,0,0,1-11.68,13.89,12.58,12.58,0,0,1-10.2-4.07,12.71,12.71,0,0,0,12.11,6.76A12.86,12.86,0,0,0,406.46,311.89Z"/><path class="cls-12" d="M383.77,312.82a4.45,4.45,0,1,0,4.1-4.77A4.44,4.44,0,0,0,383.77,312.82Z"/><path class="cls-14" d="M442.2,291.34l-76.36,24.34a5.81,5.81,0,0,1-7.27-3.76l77.08-41.13a5.8,5.8,0,0,1,7.27,3.75l3,9.53A5.81,5.81,0,0,1,442.2,291.34Z"/><path class="cls-15" d="M365.49,312.21l76.35-24.34a5.78,5.78,0,0,0,3.91-4.46l.21.66a5.81,5.81,0,0,1-3.76,7.27l-76.36,24.34a5.81,5.81,0,0,1-7.27-3.76l1.47-.79A5.78,5.78,0,0,0,365.49,312.21Z"/><path class="cls-10" d="M207.6,354.19a3.54,3.54,0,0,0-4.22-.29,12.77,12.77,0,0,1,1.61,6.23,12.23,12.23,0,1,1-24.46,0,12.65,12.65,0,0,1,5.21-10.27c-1-.82-1.88-1.69-2.78-2.6a16.47,16.47,0,0,0-6.12,12.87,15.93,15.93,0,1,0,31.84,0A16.66,16.66,0,0,0,207.6,354.19Z"/><path class="cls-8" d="M343.37,367.37c-4,0-14.9,1.43-14.9,2.1s0,2.41,4.48,2,9.32-.58,10.05-1.51A3.79,3.79,0,0,0,343.37,367.37Z"/><path class="cls-8" d="M349.59,367.51c4,0,14.9,1.42,14.9,2.09s0,2.41-4.48,2-9.33-.58-10.06-1.51A3.74,3.74,0,0,1,349.59,367.51Z"/><path class="cls-8" d="M335.19,353.09c-4.65,2-9.74,11.11-9.74,11.11l9.05-4.39s3-5.44,7.06-6.85l1.08-20.58C341.57,336.94,337.9,351.93,335.19,353.09Z"/><path class="cls-4" d="M393.24,196.78c5.94-11.44,21.07-8,21.4-7.9,18.11,12,33.1,28.76,44.3,49.43,0,0-15.73,15.52-40.75,13.1C384.39,248.14,387.24,208.35,393.24,196.78Z"/><path class="cls-6" d="M412.42,192.73s61.39-17.6,24.78-53.91,17.11-12,33.25,8.69c13.16,16.9,39.6,63.49-47.27,93,0,0-17.1,5.14-22.77-18.32C394.49,197.7,412.42,192.73,412.42,192.73Z"/><path class="cls-7" d="M435.5,122.36c1.26,1.34,2.65,2.79,4.24,4.35,13.09,13,13.64,23.58,9,31.83-.71-5.82-4.11-12.38-11.5-19.72C418.06,119.84,423.57,117.41,435.5,122.36Z"/><path class="cls-7" d="M401.77,201.82a40.58,40.58,0,0,0,1.18,8.26c5.67,23.46,22.77,18.32,22.77,18.32,36.73-12.47,53.2-28,59-43.05-.85,18.48-14.79,39.29-61.52,55.16,0,0-17.1,5.14-22.77-18.32C398.14,212.8,399.38,206.29,401.77,201.82Z"/><path class="cls-4" d="M216.92,686.24l1.4-16.93a9.54,9.54,0,0,0,4.39.64c14.65-1.61-6.46-36.58-6.46-36.58s-22.62-54.26-22.57-75,27.47-61.06,27.47-61.06l-.34-6.78c-6.41,6.46-15.45,18.48-27.13,38.77-31.79,55.26,33.59,129,5.61,149.28,0,0-3.86,4.84-7.89-.9,0,0-3.77,9.51-12.47,8.61s-14.44-11.66-14.44-11.66-1.44,10.76-9.34,10.67c-7.51-.08-13.15-3.83-14.53-13.54l-.17,10.94c-.39,4.74,4.82,9,11.62,9.62,6.06.52,11.36-2.13,12.72-6.06,1.77,3.32,6.49,6,12.22,6.43,6.13.52,11.54-1.58,13.58-4.93,2,3.06,6.48,5.43,11.91,5.87C210.06,694.32,216.52,691,216.92,686.24Z"/><path class="cls-4" d="M458.7,490.91c13.83,12.92,46.76,40.84,78.29,46.38a265.53,265.53,0,0,0,76.82,1.9l-.44-75.05s-7.53,60.38-19,65.13-73.57,6.18-114.47-29l-29.78-25.48-24,217.62L451,834.85l-3.13-136.92Z"/><g class="cls-16"><polygon class="cls-17" points="314.5 392.36 322.33 392.16 318.58 399.04 314.83 405.92 310.75 399.23 306.67 392.55 314.5 392.36"/><polygon class="cls-18" points="314.16 401.1 310.08 394.42 317.91 394.22 321.25 394.14 322.33 392.16 314.5 392.36 306.67 392.55 310.75 399.23 314.83 405.92 315.9 403.95 314.16 401.1"/><polygon class="cls-17" points="330.16 391.97 337.99 391.78 334.24 398.66 330.5 405.54 326.41 398.85 322.33 392.16 330.16 391.97"/><polygon class="cls-18" points="329.82 400.72 325.74 394.03 333.57 393.84 336.92 393.76 337.99 391.78 330.16 391.97 322.33 392.16 326.41 398.85 330.5 405.54 331.56 403.57 329.82 400.72"/><polygon class="cls-17" points="345.82 391.59 353.66 391.4 349.9 398.27 346.16 405.15 342.07 398.47 337.99 391.78 345.82 391.59"/><polygon class="cls-18" points="345.49 400.33 341.4 393.65 349.23 393.46 352.57 393.38 353.66 391.4 345.82 391.59 337.99 391.78 342.07 398.47 346.16 405.15 347.23 403.19 345.49 400.33"/><polygon class="cls-17" points="361.49 391.2 369.32 391.01 365.57 397.89 361.82 404.77 357.74 398.08 353.66 391.4 361.49 391.2"/><polygon class="cls-18" points="361.15 399.95 357.07 393.26 364.89 393.07 368.24 392.99 369.32 391.01 361.49 391.2 353.66 391.4 357.74 398.08 361.82 404.77 362.89 402.8 361.15 399.95"/><polygon class="cls-17" points="377.15 390.82 384.98 390.63 381.23 397.51 377.48 404.38 373.4 397.7 369.32 391.01 377.15 390.82"/><polygon class="cls-18" points="376.81 399.57 372.73 392.88 380.56 392.69 383.9 392.61 384.98 390.63 377.15 390.82 369.32 391.01 373.4 397.7 377.48 404.38 378.55 402.42 376.81 399.57"/></g><polygon class="cls-4" points="255.99 689.57 232.84 478.84 220.81 490.58 231.41 697.92 235.53 804.21 255.99 689.57"/><path class="cls-14" d="M307.26,692.59c-12.92-16.16-34.57-22-33.6-20s3.23,18.09,2.26,15.83S262,681.6,251.69,678.05s-13.24-3.23-11.63-2.59,9.38,12.6,7.76,11.31S220,684.51,220,684.51l9.69,12.92s.79,7.64,2.91,7.76l-17.12-1s7.11,12.92,10.34,23.26,4.2,15.83,2.91,14.21-11-6.78-9.37-4.84,2.26,17.76,2.26,17.76-10.33,22.94-10.33,44.91,15.18,70.1,11.63,68.16-8.08-4.52-6.47-1.94,9.69,15.19,7.76,14.54-14.22,3.88-12,3.88,13.57,7.75,18.09,15.18-22.12,103.7-22.93,107.09-10.5,32.5-10.5,32.5l32.68,3.4s30.48-47.52,42.11-62.06,15.51-32,21-34.56,13.89-6.14,11-6.46-9,1.93-7.75-.65,11.63-18.42,9-15.51-10.66,5.82-10.66,5.82-1-5.5,4.37-26.33,44.56-78.75,44.56-78.75,33.14,57.26,38.63,72.44,2.59,19.07.65,18.42-6.79,4.52-6.79,4.52l11.31,10.66s-11,9.37-7.11,9.37,13.2,6.2,13.2,6.2,26.65,62.65,43,81,16.84,30.52,18.74,29.4,33.27-19.38,32.31-21S457.85,881.1,460.11,870.11,463,856.87,463,856.87l5.17-22.94,2.9-25.52c-4.52-16.15-4.84-21.64-4.84-21.64s-17.47-53.15-17.86-58.29,7.21-26.35,4.63-36.69-2.39-14.27-4.85-14.21-12,23.58-12,22-7.1-20.68-17.76-28.43-19.06-12.28-17.77-10.34,5.17,32.3,4.52,30.69-23.26-16.15-33.92-20-16.15-5.17-12.92-3.23,9,26.49,8.08,23.91S328,666.27,329.61,668.21s3.23,28.43,1.62,25.2-16.16-15.18-15.51-13.25S307.26,692.59,307.26,692.59Z"/><path class="cls-15" d="M481.75,1027.12c27.81,0,50.35,21,50.35,47,0,1.15,0,2.28-.13,3.41H431.52c-.09-1.13-.13-2.26-.13-3.41C431.39,1048.14,453.93,1027.12,481.75,1027.12Z"/><path class="cls-15" d="M207,1030.93c27.81,0,50.36,21,50.36,47,0,1.15-.05,2.28-.14,3.41H156.8c-.09-1.13-.14-2.26-.14-3.41C156.66,1052,179.21,1030.93,207,1030.93Z"/><path class="cls-15" d="M219.4,736.85a1,1,0,0,0-.11-.16A.66.66,0,0,0,219.4,736.85Z"/><path class="cls-15" d="M454.93,1055.86c1.9-1.11,33.27-19.38,32.31-21S457.85,881.1,460.11,870.11,463,856.87,463,856.87l5.17-22.94,2.9-25.52c-4.52-16.15-4.84-21.64-4.84-21.64s-17.47-53.15-17.86-58.29,7.21-26.35,4.63-36.69-2.39-14.27-4.85-14.21-12,23.58-12,22-7.1-20.68-17.76-28.43-19.06-12.28-17.77-10.34,5.17,32.3,4.52,30.69-23.26-16.15-33.92-20-16.15-5.17-12.92-3.23,9,26.49,8.08,23.91S328,666.27,329.61,668.21s3.23,28.43,1.62,25.2-16.16-15.18-15.51-13.25-8.46,12.43-8.46,12.43c-12.92-16.16-34.57-22-33.6-20s3.23,18.09,2.26,15.83S262,681.6,251.7,678.05s-13.25-3.23-11.64-2.59,9.38,12.6,7.76,11.31S220,684.51,220,684.51l9.69,12.92s.79,7.64,2.91,7.76h.12l-17.24-1,30.24,9.57-16.09-25.3L267.82,705l-8.07-16.55L286.13,705l3.76-19.24L319,705V690.65L342.1,710l-1.61-29.6,30.14,28,2.69-28c12.42,7.84,37.68,41.44,37.68,41.44l8.61-41.44L435.22,710l12.38,46.29S461.05,813.36,450,844,465.18,968.2,465.18,968.2s11.48,40.91,7.18,52-21.89,6.89-21.89,6.89c-24-13.2-48.8-83.32-48.8-83.32a66.57,66.57,0,0,0,12.91,5.74C407.41,943.8,398.8,928,398.8,928c4.3,2.51,13.27,1.44,13.27,1.44-11.84-5-18.66-27.28-18.66-27.28-12.55-39.11-51.31-98-51.31-98-56.69,57.06-52.39,119.13-52.75,124.16s-20.09,14.35-20.09,14.35l14.35,2.15L262.44,956l19-2.16c-9.33,25.12-53.46,70.34-63.15,69.62s-6.82-9.33-6.82-9.33c14.54-24.81,26.91-111.6,26.91-111.6l10,8.61-11.84-26.91,11.84,6.1-15.79-29.42s-15.43-50.95-8.61-81.45-4.65-42.61-4.65-42.61c1.62,1.93,2.26,17.76,2.26,17.76s-10.33,22.94-10.33,44.91,15.18,70.1,11.63,68.16-8.08-4.52-6.47-1.94,9.69,15.19,7.76,14.54-14.22,3.88-12,3.88S197,1038.93,197,1038.93l32.68,3.4s30.48-47.52,42.11-62.06,15.51-32,21-34.56,13.89-6.14,11-6.46-9,1.93-7.75-.65,11.63-18.42,9-15.51-10.66,5.82-10.66,5.82-1-5.5,4.37-26.33,44.56-78.75,44.56-78.75,33.14,57.26,38.63,72.44,2.59,19.07.65,18.42-6.79,4.52-6.79,4.52l11.31,10.66s-11,9.37-7.11,9.37,13.2,6.2,13.2,6.2,26.65,62.65,43,81S453,1057,454.93,1055.86Z"/><path class="cls-8" d="M238.38,529.27s.16,41.35,63.35,48.61c0,0-57.21,20.19-70.12-17C220.89,530.06,238.38,529.27,238.38,529.27Z"/><path class="cls-8" d="M444.47,529.27s-.17,41.35-63.36,48.61c0,0,57.22,20.19,70.12-17C462,530.06,444.47,529.27,444.47,529.27Z"/></g></g></svg>