<svg xmlns="http://www.w3.org/2000/svg" viewBox="0 0 1071.47 915.78"><defs><style>.cls-1,.cls-8{fill:#231f20;}.cls-2,.cls-9{fill:#141212;}.cls-3{fill:#dcdab6;}.cls-4{fill:#e6dcd0;}.cls-5{fill:#d0cead;}.cls-6{fill:#d1d3d4;}.cls-7{fill:#fff;}.cls-10,.cls-8,.cls-9{fill-rule:evenodd;}.cls-10{fill:#404041;}</style></defs><g id="Layer_2" data-name="Layer 2"><g id="SCR"><rect class="cls-1" x="586.88" y="29.03" width="74.05" height="72.14"/><path class="cls-1" d="M557.05,562.56s30.3-34.38,43.74-72.1c8.53-20.75,9.48-51.16,8.52-84.37-1.94-67.5-11.38-134.8-93.54-83.1s-120.35,29.2-120.35,29.2,56.1-44.52,58.34-78.36-20.95-150.62-65.9-184.71S263-19.67,112.08,27.87c0,0,36.71,45.59,37.35,68.1s-62.3,105.5-54,192.71c2.3,24.12,71.48,80.26,71.48,80.26s-.76.82-2.11,2.31C144.5,379.14,39.48,431.41,0,680.51c0,0,30.52-1.06,48.34-27.25,0,0,1.53,52.91-15.47,76.9,0,0,30.47-1.21,43.74-24.39l23.17,41.64s14.16-8.94,26.6-28.08c-12.9,49.94-40,96.56-97.51,107.23,0,0,51,40.36,109.62,8.1,0,0-3.66,40.33-32,60.45,0,0,88.74,10.32,130.77-39.15,0,0,23.38,66.89,122.9,59.21,0,0-21.83-13.32-22.81-47.61,62.86,60.39,168.14,29.26,168.14,29.26-40.27-20.52-42.59-64-42.59-64,54.35,25.25,99.88-13.6,99.88-13.6S439,768.12,436.9,521.83c0,0,5.59-36.08,30.09-31,3.54,1.48,7.18,3,10.88,4.43,33.77,19.83,35.61,84.11,35.61,84.11s30.29-28.21,21.76-65.08h0C535.73,514.73,554.92,532.7,557.05,562.56Z"/><path class="cls-2" d="M403.25,176.89a64.09,64.09,0,0,0-.45-7c-1.56-12.66-12.87-29.75-30.49-45.35-22.62-22.22-54.26-42-96.53-39-35.22,2.55-67.06,20.16-89.37,40.57,0,0,0,0,0,0-.81.74-1.6,1.5-2.39,2.25a146.51,146.51,0,0,0-13.61,14.83,0,0,0,0,1,0,0c-.88,1.11-1.71,2.2-2.52,3.3a2.31,2.31,0,0,0-.14.19c-.78,1.06-1.53,2.11-2.25,3.17l-.21.3c-.69,1-1.35,2-2,3l-.25.39c-.61,1-1.19,2-1.74,2.92l-.28.5c-.53.94-1,1.87-1.51,2.79l-.28.56c-.45.9-.88,1.78-1.28,2.67l-.27.62c-.37.85-.73,1.7-1.05,2.53-.09.23-.17.46-.25.7-.3.8-.59,1.59-.84,2.37-.08.26-.14.52-.22.78-.22.74-.44,1.48-.61,2.19-.08.33-.13.65-.2,1-.14.63-.28,1.27-.38,1.89-.14.93-.25,1.84-.31,2.73a76.39,76.39,0,0,0,2,21.72c1,4.42,2.24,8.79,3.53,13.14.52,1.75,1.05,3.49,1.57,5.23.79,2.61,1.57,5.23,2.3,7.85.24.87.48,1.75.71,2.62.46,1.76.9,3.51,1.29,5.28.59,2.65,1.09,5.31,1.46,8,.24,1.79.43,3.59.55,5.41q.08,1.37.12,2.73c0,1.83,0,3.68-.13,5.54a56.26,56.26,0,0,1-1.22,8.48c-2.88,13.06-5.48,40.86-2.07,46.09,3.7,5.61,10.64,8.52,18.09,10.54,1.24.34,2.49.65,3.75.94,3.77.89,7.55,1.62,11,2.43,6.92,1.63,12.53,3.55,14.12,7.56.15.39.28.8.41,1.24,0,.12.07.26.11.39.08.33.17.67.24,1l.09.43q.12.62.21,1.29a1.85,1.85,0,0,0,0,.23c.07.56.14,1.14.19,1.74.94,10.44-1.17,26.38,1.05,34.11h0a9.79,9.79,0,0,0,1,2.48l.08.12a5.76,5.76,0,0,0,.56.72l.18.18a4,4,0,0,0,.78.59,2.81,2.81,0,0,0,.37.15,5.72,5.72,0,0,0,1.45.28,6.84,6.84,0,0,0,7-6.11c1-15.15,2.78-21.49,2.85-19s-1.26,6.62-1.12,17.77c.06,4.42,3.72,7.76,8.44,7.65l6-.15a8.85,8.85,0,0,0,3.14-.66,8.5,8.5,0,0,0,5-5.47,7.65,7.65,0,0,0,.24-1.52c.12-1.88.24-3.7.36-5.44s.25-3.39.39-4.93c.06-.77.13-1.51.19-2.21a69.84,69.84,0,0,1,1.15-8.63c.11-.42.22-.63.31-.6s.27.6.36,1.79c0,.68.08,1.33.09,2,0,1.88-.05,3.62-.17,5.76-.16,2.86-.36,6.45-.32,12.09,0,4.2,3.69,7.42,8.18,7.28l13.72-.41a8.47,8.47,0,0,0,6.93-3.85,7.35,7.35,0,0,0,1.16-3.23,187.93,187.93,0,0,1,3.11-21.25c.22,1.22.11,4.92.35,11.1.12,2.81.3,6.14.61,10a8.06,8.06,0,0,0,.27,1.4,7.66,7.66,0,0,0,6.27,5.17,8.44,8.44,0,0,0,1.52.1l9.63-.27a8,8,0,0,0,1.56-.18,7.79,7.79,0,0,0,6.11-5.55,7.06,7.06,0,0,0,.22-1.45c.71-13.75,1.63-22.34,2-19.39a35,35,0,0,1,.1,4.69c0,.62,0,1.32,0,2.11s0,1.64,0,2.61,0,2,0,3.18c0,1.76,0,3.76,0,6.06a7,7,0,0,0,1.48,4.22,8.35,8.35,0,0,0,6.85,3.22l4.22-.12,4-.12a5.65,5.65,0,0,0,5.85-6c-.05-.85-.09-1.7-.14-2.53-.52-9.94-.79-17.56-.59-18.06,0,0,0,0,.06,0a5.12,5.12,0,0,1,.18,1,27.9,27.9,0,0,0,1.06,4.24,64.24,64.24,0,0,1,1.89,8.15c.27,1.64.54,3.55.79,5.79.43,3.9,4.37,6.84,8.45,6.41h0a14.43,14.43,0,0,0,4.7-1,3.36,3.36,0,0,0,.6-.47l.17-.19a4.62,4.62,0,0,0,.34-.41l.17-.28c.09-.15.18-.29.26-.44s.1-.24.16-.36.13-.31.2-.48.08-.28.13-.42l.15-.53c0-.16.07-.32.1-.47l.12-.59c0-.17.05-.34.08-.52s.05-.41.07-.62l.06-.57c0-.22,0-.44,0-.67s0-.4,0-.61,0-.46,0-.7,0-.43,0-.65,0-.48,0-.72,0-.47,0-.7l0-.74c0-.25,0-.49,0-.75s0-.48,0-.72,0-.54-.05-.82,0-.39,0-.59c-.61-8.13-2.3-18-2.08-25.15l.34.78a22.65,22.65,0,0,1,.94-6.43c3.66-11,37.15-8.69,46.28-24.23,3.15-5.45-1.09-33.18-4.77-46.11-3.06-10.75-2.55-21-.8-31.19C397.86,209.47,403.8,193,403.25,176.89Z"/><path class="cls-1" d="M374.6,245.51c1.19,41.46-40.14,76.28-92.32,77.78s-95.43-30.89-96.63-72.35,40.14-76.29,92.32-77.79S373.41,204.05,374.6,245.51Z"/><path class="cls-3" d="M201.43,206.61c-.87,1.54-2.61-3.88-5.55,17.4-4.58,33.1,12.39,44.9,31.31,45.87s30.13-1.58,41-11.86,10.91-17.41,10.9-13.78c0,3.82-.55,37.16-31.26,45-30.7,8.17-52.1-9.32-58.26-26.62s-5.23-36.83-.1-45.05S201.43,206.6,201.43,206.61Z"/><path class="cls-3" d="M356.3,202.08c.95,1.48,2.38-4,6.54,17,6.47,32.78-9.79,45.55-28.63,47.63s-30.17.19-41.63-9.44-11.89-16.74-11.68-13.13c.22,3.82,2.69,37.07,33.8,43.09,31.12,6.35,51.47-12.36,56.63-30s3.12-37.08-2.48-45S356.3,202.07,356.3,202.08Z"/><path class="cls-4" d="M379.79,157.87c-19.6-25.5-53-59-103.52-55.29-58.2,4.21-105.95,55-107.59,81.41s16.76,48.85,10.78,75.89c-2.54,11.52-4.84,36-1.82,40.66,8.72,13.19,37.7,9.49,41.43,18.94,3.72,9.26-2,35.79,4.41,39.3l.32.13a6,6,0,0,0,7.5-5.14c.84-13.37,2.45-19,2.51-16.81s-1.11,5.85-1,15.68c.05,3.91,3.29,6.85,7.45,6.76l5.32-.13a7.52,7.52,0,0,0,7.4-6.76c.78-13.27,2-23.25,2.43-17.66.35,4.83-.43,7.53-.35,17.48a6.69,6.69,0,0,0,7.21,6.42l12.11-.36a7.21,7.21,0,0,0,7.14-6.25,162.8,162.8,0,0,1,2.74-18.74c.28,1.56,0,7.75.85,18.59a6.74,6.74,0,0,0,7.11,5.88l8.49-.23a6.89,6.89,0,0,0,7-6.34c.63-12.13,1.43-19.71,1.76-17.1.28,2.24-.09,5.64,0,16.45,0,3.68,3.42,6.67,7.35,6.57l7.25-.21a5.07,5.07,0,0,0,5.16-5.26c-.65-12.11-1-21.21-.42-17.26.45,3.28,2.13,5.5,3.3,16a6.77,6.77,0,0,0,7.45,5.65,12.7,12.7,0,0,0,4.15-.86c6.25-3.88-2.07-30.09,1.11-39.55,3.19-9.66,32.34-7.68,40.29-21.36,2.74-4.79-1-29.14-4.17-40.49C372.19,222.92,403.35,188.82,379.79,157.87ZM235.39,275.66c-23.28,2.32-42.52-12-43.15-33.85s17.59-42.82,40.88-45.14,42.76,14.86,43.39,36.65S258.68,273.3,235.39,275.66ZM303,313.32a4.38,4.38,0,0,1-3,3.27,5.46,5.46,0,0,1-4.18-.92,24.07,24.07,0,0,1-3.21-2.84c-3.29-3.12-8.19-5.47-12.51-3.84-2.64,1-4.45,3.24-6.53,5.08s-5,3.41-7.64,2.58c-2.47-.77-3.73-3.44-3.57-5.9s1.41-4.76,2.64-7q5-9,10-17.94c.29-.52.59-1,.9-1.54a62.52,62.52,0,0,0,4.12-7.37c.73-1.72,1.85-5.14,4.65-4.09,1.95.73,4,4.64,5.12,6.23a74.79,74.79,0,0,1,13,29.72A10.88,10.88,0,0,1,303,313.32ZM327,273c-23.38-1-42.85-18.07-43.47-39.91S301.37,193,324.75,194s42.78,20.92,43.41,42.71S350.41,274,327,273Z"/><path class="cls-5" d="M168.68,184c-1.71,26.33,16.76,48.85,10.78,75.89-2.54,11.52-4.84,36-1.82,40.66,8.72,13.19,37.7,9.49,41.43,18.94a19.93,19.93,0,0,1,1.14,5.6c2.06-18.07,8.72-17.93,16.44-23.67-6.69,3-16.58,1.4-24.06,2.46-18.22,2.56-27.62-.59-28.18-20-.29-10.1,1.64-16.61,1.28-29.19-.19-6.38-.86-12.85-1-19.31-.42-24.57,22.17-49.31,22.19-49.18,0-.22-30.28,22.94-30.92,8.18-1.36-30.35,6.94-28.71,21.43-56C180.24,154.11,169.47,171.68,168.68,184Z"/><path class="cls-5" d="M388.34,177c3.25,26.32-14.14,50-6.52,76.73,3.25,11.41,7,35.88,4.21,40.68-8.06,13.71-37.6,11.68-40.83,21.38a20.4,20.4,0,0,0-.84,5.68c-4.57-10.7-7.25-16.4-18-22.78,6.95,2.66,16.85.44,24.5,1.06,18.57,1.51,27.91-2.17,27.35-21.65-.29-10.16-2.62-16.57-3-29.21-.18-6.41.12-12.93-.14-19.42-1-24.67-25.3-48.19-25.31-48.06,0-.23,32,21.28,31.76,6.44-.38-30.52-8.68-28.4-24.93-55C374.91,147.66,386.83,164.69,388.34,177Z"/><path class="cls-5" d="M335.63,351.38c-4.25-2.21-8-26-8.54-27.5s-.77,27.14-2.24,29.67-9.75.74-11.82-1.53-3.11-27.33-3.32-29-5.07,28.43-6.11,30-7.36,2.69-13.15.53-5.73-26.48-6-29.58-4.24,24.76-6.29,29.16-10.69,5.41-17.3,1.74-4-26.69-5.49-29.13-3.79,24.44-6.28,29.3-6.59,2.68-11-2.31-2.57-21.77-3.08-23.31-5.34,24.48-9.63,26a4.78,4.78,0,0,1-4.28-.3,5.67,5.67,0,0,0,2.34,3.61l.32.13a6,6,0,0,0,7.5-5.14c.84-13.37,2.45-19,2.51-16.81s-1.11,5.85-1,15.68c.05,3.91,3.29,6.85,7.45,6.76l5.32-.13a7.52,7.52,0,0,0,7.4-6.76c.78-13.27,2-23.25,2.43-17.66.35,4.83-.43,7.53-.35,17.48a6.69,6.69,0,0,0,7.21,6.42l12.11-.36a7.21,7.21,0,0,0,7.14-6.25,162.8,162.8,0,0,1,2.74-18.74c.28,1.56,0,7.75.85,18.59a6.74,6.74,0,0,0,7.11,5.88l8.49-.23a6.89,6.89,0,0,0,7-6.34c.63-12.13,1.43-19.71,1.76-17.1.28,2.24-.09,5.64,0,16.45,0,3.68,3.42,6.67,7.35,6.57l7.25-.21a5.07,5.07,0,0,0,5.16-5.26c-.65-12.11-1-21.21-.42-17.26.45,3.28,2.13,5.5,3.3,16a6.77,6.77,0,0,0,7.45,5.65,12.7,12.7,0,0,0,4.15-.86c2.91-1.81,2.66-8.47,1.88-16-.84,4.29-1.64,8.42-2.08,10.45C342.25,355.37,339.88,353.58,335.63,351.38Z"/><path class="cls-2" d="M403.25,176.89a64.09,64.09,0,0,0-.45-7c-1.56-12.66-12.87-29.75-30.49-45.35-22.62-22.22-54.26-42-96.53-39-35.22,2.55-67.06,20.16-89.37,40.57,0,0,0,0,0,0-.81.74-1.6,1.5-2.39,2.25a146.51,146.51,0,0,0-13.61,14.83,0,0,0,0,1,0,0c-.88,1.11-1.71,2.2-2.52,3.3a2.31,2.31,0,0,0-.14.19c-.78,1.06-1.53,2.11-2.25,3.17l-.21.3c-.69,1-1.35,2-2,3l-.25.39c-.61,1-1.19,2-1.74,2.92l-.28.5c-.53.94-1,1.87-1.51,2.79l-.28.56c-.45.9-.88,1.78-1.28,2.67l-.27.62c-.37.85-.73,1.7-1.05,2.53-.09.23-.17.46-.25.7-.3.8-.59,1.59-.84,2.37-.08.26-.14.52-.22.78-.22.74-.44,1.48-.61,2.19-.08.33-.13.65-.2,1-.14.63-.28,1.27-.38,1.89-.14.93-.25,1.84-.31,2.73a76.39,76.39,0,0,0,2,21.72c1,4.42,2.24,8.79,3.53,13.14.52,1.75,1.05,3.49,1.57,5.23.79,2.61,1.57,5.23,2.3,7.85.24.87.48,1.75.71,2.62.46,1.76.9,3.51,1.29,5.28.59,2.65,1.09,5.31,1.46,8,.24,1.79.43,3.59.55,5.41q.08,1.37.12,2.73c0,1.83,0,3.68-.13,5.54a56.26,56.26,0,0,1-1.22,8.48c-2.88,13.06-5.48,40.86-2.07,46.09,3.7,5.61,10.64,8.52,18.09,10.54,1.24.34,2.49.65,3.75.94,3.77.89,7.55,1.62,11,2.43,6.92,1.63,12.53,3.55,14.12,7.56.15.39.28.8.41,1.24,0,.12.07.26.11.39.08.33.17.67.24,1l.09.43q.12.62.21,1.29a1.85,1.85,0,0,0,0,.23c.07.56.14,1.14.19,1.74.94,10.44-1.17,26.38,1.05,34.11h0a9.79,9.79,0,0,0,1,2.48l.08.12a5.76,5.76,0,0,0,.56.72l.18.18a4,4,0,0,0,.78.59,2.81,2.81,0,0,0,.37.15,5.72,5.72,0,0,0,1.45.28,6.84,6.84,0,0,0,7-6.11c1-15.15,2.78-21.49,2.85-19s-1.26,6.62-1.12,17.77c.06,4.42,3.72,7.76,8.44,7.65l6-.15a8.85,8.85,0,0,0,3.14-.66,8.5,8.5,0,0,0,5-5.47,7.65,7.65,0,0,0,.24-1.52c.12-1.88.24-3.7.36-5.44s.25-3.39.39-4.93c.06-.77.13-1.51.19-2.21a69.84,69.84,0,0,1,1.15-8.63c.11-.42.22-.63.31-.6s.27.6.36,1.79c0,.68.08,1.33.09,2,0,1.88-.05,3.62-.17,5.76-.16,2.86-.36,6.45-.32,12.09,0,4.2,3.69,7.42,8.18,7.28l13.72-.41a8.47,8.47,0,0,0,6.93-3.85,7.35,7.35,0,0,0,1.16-3.23,187.93,187.93,0,0,1,3.11-21.25c.22,1.22.11,4.92.35,11.1.12,2.81.3,6.14.61,10a8.06,8.06,0,0,0,.27,1.4,7.66,7.66,0,0,0,6.27,5.17,8.44,8.44,0,0,0,1.52.1l9.63-.27a8,8,0,0,0,1.56-.18,7.79,7.79,0,0,0,6.11-5.55,7.06,7.06,0,0,0,.22-1.45c.71-13.75,1.63-22.34,2-19.39a35,35,0,0,1,.1,4.69c0,.62,0,1.32,0,2.11s0,1.64,0,2.61,0,2,0,3.18c0,1.76,0,3.76,0,6.06a7,7,0,0,0,1.48,4.22,8.35,8.35,0,0,0,6.85,3.22l4.22-.12,4-.12a5.65,5.65,0,0,0,5.85-6c-.05-.85-.09-1.7-.14-2.53-.52-9.94-.79-17.56-.59-18.06,0,0,0,0,.06,0a5.12,5.12,0,0,1,.18,1,27.9,27.9,0,0,0,1.06,4.24,64.24,64.24,0,0,1,1.89,8.15c.27,1.64.54,3.55.79,5.79.43,3.9,4.37,6.84,8.45,6.41h0a14.43,14.43,0,0,0,4.7-1,3.36,3.36,0,0,0,.6-.47l.17-.19a4.62,4.62,0,0,0,.34-.41l.17-.28c.09-.15.18-.29.26-.44s.1-.24.16-.36.13-.31.2-.48.08-.28.13-.42l.15-.53c0-.16.07-.32.1-.47l.12-.59c0-.17.05-.34.08-.52s.05-.41.07-.62l.06-.57c0-.22,0-.44,0-.67s0-.4,0-.61,0-.46,0-.7,0-.43,0-.65,0-.48,0-.72,0-.47,0-.7l0-.74c0-.25,0-.49,0-.75s0-.48,0-.72,0-.54-.05-.82,0-.39,0-.59c-.61-8.13-2.3-18-2.08-25.15l.34.78a22.65,22.65,0,0,1,.94-6.43c3.66-11,37.15-8.69,46.28-24.23,3.15-5.45-1.09-33.18-4.77-46.11-3.06-10.75-2.55-21-.8-31.19C397.86,209.47,403.8,193,403.25,176.89Z"/><path class="cls-1" d="M374.6,245.51c1.19,41.46-40.14,76.28-92.32,77.78s-95.43-30.89-96.63-72.35,40.14-76.29,92.32-77.79S373.41,204.05,374.6,245.51Z"/><path class="cls-6" d="M201.43,206.61c-.87,1.54-2.61-3.88-5.55,17.4-4.58,33.1,12.39,44.9,31.31,45.87s30.13-1.58,41-11.86,10.91-17.41,10.9-13.78c0,3.82-.55,37.16-31.26,45-30.7,8.17-52.1-9.32-58.26-26.62s-5.23-36.83-.1-45.05S201.43,206.6,201.43,206.61Z"/><path class="cls-6" d="M356.3,202.08c.95,1.48,2.38-4,6.54,17,6.47,32.78-9.79,45.55-28.63,47.63s-30.17.19-41.63-9.44-11.89-16.74-11.68-13.13c.22,3.82,2.69,37.07,33.8,43.09,31.12,6.35,51.47-12.36,56.63-30s3.12-37.08-2.48-45S356.3,202.07,356.3,202.08Z"/><path class="cls-7" d="M379.79,157.87c-19.6-25.5-53-59-103.52-55.29-58.2,4.21-105.95,55-107.59,81.41s16.76,48.85,10.78,75.89c-2.54,11.52-4.84,36-1.82,40.66,8.72,13.19,37.7,9.49,41.43,18.94,3.72,9.26-2,35.79,4.41,39.3l.32.13a6,6,0,0,0,7.5-5.14c.84-13.37,2.45-19,2.51-16.81s-1.11,5.85-1,15.68c.05,3.91,3.29,6.85,7.45,6.76l5.32-.13a7.52,7.52,0,0,0,7.4-6.76c.78-13.27,2-23.25,2.43-17.66.35,4.83-.43,7.53-.35,17.48a6.69,6.69,0,0,0,7.21,6.42l12.11-.36a7.21,7.21,0,0,0,7.14-6.25,162.8,162.8,0,0,1,2.74-18.74c.28,1.56,0,7.75.85,18.59a6.74,6.74,0,0,0,7.11,5.88l8.49-.23a6.89,6.89,0,0,0,7-6.34c.63-12.13,1.43-19.71,1.76-17.1.28,2.24-.09,5.64,0,16.45,0,3.68,3.42,6.67,7.35,6.57l7.25-.21a5.07,5.07,0,0,0,5.16-5.26c-.65-12.11-1-21.21-.42-17.26.45,3.28,2.13,5.5,3.3,16a6.77,6.77,0,0,0,7.45,5.65,12.7,12.7,0,0,0,4.15-.86c6.25-3.88-2.07-30.09,1.11-39.55,3.19-9.66,32.34-7.68,40.29-21.36,2.74-4.79-1-29.14-4.17-40.49C372.19,222.92,403.35,188.82,379.79,157.87ZM235.39,275.66c-23.28,2.32-42.52-12-43.15-33.85s17.59-42.82,40.88-45.14,42.76,14.86,43.39,36.65S258.68,273.3,235.39,275.66ZM303,313.32a4.38,4.38,0,0,1-3,3.27,5.46,5.46,0,0,1-4.18-.92,24.07,24.07,0,0,1-3.21-2.84c-3.29-3.12-8.19-5.47-12.51-3.84-2.64,1-4.45,3.24-6.53,5.08s-5,3.41-7.64,2.58c-2.47-.77-3.73-3.44-3.57-5.9s1.41-4.76,2.64-7q5-9,10-17.94c.29-.52.59-1,.9-1.54a62.52,62.52,0,0,0,4.12-7.37c.73-1.72,1.85-5.14,4.65-4.09,1.95.73,4,4.64,5.12,6.23a74.79,74.79,0,0,1,13,29.72A10.88,10.88,0,0,1,303,313.32ZM327,273c-23.38-1-42.85-18.07-43.47-39.91S301.37,193,324.75,194s42.78,20.92,43.41,42.71S350.41,274,327,273Z"/><path class="cls-6" d="M168.68,184c-1.71,26.33,16.76,48.85,10.78,75.89-2.54,11.52-4.84,36-1.82,40.66,8.72,13.19,37.7,9.49,41.43,18.94a19.93,19.93,0,0,1,1.14,5.6c2.06-18.07,8.72-17.93,16.44-23.67-6.69,3-16.58,1.4-24.06,2.46-18.22,2.56-27.62-.59-28.18-20-.29-10.1,1.64-16.61,1.28-29.19-.19-6.38-.86-12.85-1-19.31-.42-24.57,22.17-49.31,22.19-49.18,0-.22-30.28,22.94-30.92,8.18-1.36-30.35,6.94-28.71,21.43-56C180.24,154.11,169.47,171.68,168.68,184Z"/><path class="cls-6" d="M388.34,177c3.25,26.32-14.14,50-6.52,76.73,3.25,11.41,7,35.88,4.21,40.68-8.06,13.71-37.6,11.68-40.83,21.38a20.4,20.4,0,0,0-.84,5.68c-4.57-10.7-7.25-16.4-18-22.78,6.95,2.66,16.85.44,24.5,1.06,18.57,1.51,27.91-2.17,27.35-21.65-.29-10.16-2.62-16.57-3-29.21-.18-6.41.12-12.93-.14-19.42-1-24.67-25.3-48.19-25.31-48.06,0-.23,32,21.28,31.76,6.44-.38-30.52-8.68-28.4-24.93-55C374.91,147.66,386.83,164.69,388.34,177Z"/><path class="cls-6" d="M335.63,351.38c-4.25-2.21-8-26-8.54-27.5s-.77,27.14-2.24,29.67-9.75.74-11.82-1.53-3.11-27.33-3.32-29-5.07,28.43-6.11,30-7.36,2.69-13.15.53-5.73-26.48-6-29.58-4.24,24.76-6.29,29.16-10.69,5.41-17.3,1.74-4-26.69-5.49-29.13-3.79,24.44-6.28,29.3-6.59,2.68-11-2.31-2.57-21.77-3.08-23.31-5.34,24.48-9.63,26a4.78,4.78,0,0,1-4.28-.3,5.67,5.67,0,0,0,2.34,3.61l.32.13a6,6,0,0,0,7.5-5.14c.84-13.37,2.45-19,2.51-16.81s-1.11,5.85-1,15.68c.05,3.91,3.29,6.85,7.45,6.76l5.32-.13a7.52,7.52,0,0,0,7.4-6.76c.78-13.27,2-23.25,2.43-17.66.35,4.83-.43,7.53-.35,17.48a6.69,6.69,0,0,0,7.21,6.42l12.11-.36a7.21,7.21,0,0,0,7.14-6.25,162.8,162.8,0,0,1,2.74-18.74c.28,1.56,0,7.75.85,18.59a6.74,6.74,0,0,0,7.11,5.88l8.49-.23a6.89,6.89,0,0,0,7-6.34c.63-12.13,1.43-19.71,1.76-17.1.28,2.24-.09,5.64,0,16.45,0,3.68,3.42,6.67,7.35,6.57l7.25-.21a5.07,5.07,0,0,0,5.16-5.26c-.65-12.11-1-21.21-.42-17.26.45,3.28,2.13,5.5,3.3,16a6.77,6.77,0,0,0,7.45,5.65,12.7,12.7,0,0,0,4.15-.86c2.91-1.81,2.66-8.47,1.88-16-.84,4.29-1.64,8.42-2.08,10.45C342.25,355.37,339.88,353.58,335.63,351.38Z"/><path class="cls-2" d="M127.93,299.37c-31.76-50.31-8.94-129.94-8.93-130-14.4,34.22-27.66,76.23-23.55,119.27,2.3,24.12,71.48,80.26,71.48,80.26s47.52,30.27,81.91,32.5C248.84,401.44,159.69,349.69,127.93,299.37Z"/><path class="cls-2" d="M365.24,384.15a342.41,342.41,0,0,0,38.37-29c-.68-.16-1.32-.34-1.91-.51l-.08,0c-.56-.16-1.08-.33-1.56-.49l-.13,0c-.46-.15-.88-.31-1.27-.45l-.13-.05-1-.4-.1,0-.8-.35-.07,0-.58-.27,0,0-.36-.19h0l-.12-.06s56.1-44.52,58.34-78.36c2-30.34-16.42-127.32-52.65-171.64h0s33.14,145.92,31.58,166.16S365.24,384.15,365.24,384.15Z"/><path class="cls-2" d="M196.36,384.92l-29.43-16s-.76.82-2.11,2.31C144.5,379.14,39.48,431.41,0,680.51,0,680.51,71.6,429.06,196.36,384.92Z"/><path class="cls-2" d="M127.42,150.36s41.89-48.53,30.8-74.35-46.14-48.14-46.14-48.14S148.79,73.46,149.43,96C149.7,105.2,139.25,124.64,127.42,150.36Z"/><path class="cls-2" d="M48.34,653.26s1.53,52.91-15.47,76.9c44.85-37,37.75-148.79,37.75-148.79C57.22,637.53,0,680.51,0,680.51S30.52,679.45,48.34,653.26Z"/><path class="cls-2" d="M76.61,705.77l23.17,41.64C103.39,732.94,94,659,94,659c-11.56,45.37-61.16,71.17-61.16,71.17S63.34,729,76.61,705.77Z"/><path class="cls-2" d="M146.14,653.05c-5.75,23.88-46.36,94.36-46.36,94.36s14.16-8.94,26.6-28.08c-12.9,49.94-40,96.56-97.51,107.23C165.31,816.2,146.14,653.05,146.14,653.05Z"/><path class="cls-2" d="M106.45,895.11c61.37-19.46,51-101.2,51-101.2-30.6,54.77-128.56,32.65-128.56,32.65s51,40.36,109.62,8.1C138.49,834.66,134.83,875,106.45,895.11Z"/><path class="cls-2" d="M241.16,824.48c-31.29,58.81-134.71,70.63-134.71,70.63S195.19,905.43,237.22,856c0,0,23.38,66.89,122.9,59.21C271.93,906.44,241.16,824.48,241.16,824.48Z"/><path class="cls-2" d="M325.76,838.94c-4,67.14,34.36,76.23,34.36,76.23s-21.83-13.32-22.81-47.61c62.86,60.39,168.14,29.26,168.14,29.26C387.37,911.79,325.76,838.94,325.76,838.94Z"/><path class="cls-2" d="M462.86,832.85c54.35,25.25,99.88-13.6,99.88-13.6-71.53,29.94-121-13.14-121-13.14,3.4,80.87,63.74,90.71,63.74,90.71C465.18,876.3,462.86,832.85,462.86,832.85Z"/><path class="cls-2" d="M362.93,435.53S352.56,537.19,207,566.29C207,566.29,310.4,511,362.93,435.53Z"/><path class="cls-2" d="M377.94,498.67S326.36,644.45,169,687.34C169,687.34,289.5,615.23,377.94,498.67Z"/><path class="cls-2" d="M557.05,562.56c11.19-60.93-34.53-79.17-34.53-79.17,18.2,45.33-9,96-9,96s30.29-28.21,21.76-65.08h0C535.73,514.73,554.92,532.7,557.05,562.56Z"/><path class="cls-2" d="M594.59,341.63s-3.2-23.51-20.88-17.63c-16.79,5.59-21.63,124.49-9,154.69s34.2-3.89,35.77-23.93S602.73,382.15,594.59,341.63Z"/><path class="cls-8" d="M636.05,28s-1,114.55-.53,99.12c1.3-43.58,332.17-30.57,436,146.07C1047.83,81.22,817.7-51,636.05,28Z"/><path class="cls-9" d="M655.76,402.2c3-5.75,5-12,3.5-16.92-3.39-11.38-11.63-18.51-25.89-19a17.06,17.06,0,0,0-8.64,2.09c-2.72-2.14-7.88-3.64-15.49-3.78-10.8-.19-27-3.31-33.88,9.68S555.49,413,581.68,438s54.14,22.06,68.19,13.57C672.34,437.93,667,418.52,655.76,402.2Z"/><path class="cls-10" d="M1071.47,273.17c-92.8-158-367.14-185.06-425.09-157.87h0l1.44-47.83C796.83,28.52,987.5,83.51,1071.47,273.17Z"/><path class="cls-8" d="M601.59,897.1l24.91-8c-3.72-5.26,22-846.48,22-846.48L650.11,0,620.87,9.41Z"/><path class="cls-2" d="M515.77,323c-82.17,51.69-120.35,29.2-120.35,29.2l-30.18,32c11.31,7.05,74.3-5.4,93.91-16.08,37.48-20.4,85.39-57.44,107.92-63.32C554.29,303.92,537.59,309.25,515.77,323Z"/><path class="cls-9" d="M636.9,456.32l-8.78-.16a6.73,6.73,0,0,1-6.59-6.83l1.36-75.94a6.73,6.73,0,0,1,6.83-6.59l8.77.16a6.72,6.72,0,0,1,6.59,6.82l-1.35,76A6.74,6.74,0,0,1,636.9,456.32Z"/><path class="cls-2" d="M562.74,819.25S439,768.12,436.9,521.83c0,0,5.59-36.08,30.09-31,3.54,1.48,7.18,3,10.88,4.43,33.77,19.83,35.61,84.11,35.61,84.11s19.31-74.55-25.42-101.15-78,15.81-93.46,61.5c-24.09,71.12-100,163.48-100,163.48s66.43,3.82,100.8-35.91c0,0,.2,80.12-105.92,130.25,0,0,37.78,81.6,129.84,101.3,11.46,2.45,22.15,4.38,32.09,5.86a240.11,240.11,0,0,0,54-7.88h0a75.46,75.46,0,0,1-23.72-18.75l-15.4-13.73c-17.69-26.45-24.62-58.23-24.62-58.23C495.58,858,562.74,819.25,562.74,819.25Z"/></g></g></svg>