<svg xmlns="http://www.w3.org/2000/svg" viewBox="0 0 769.47 1012.44"><defs><style>.cls-1,.cls-9{fill:#a54e00;}.cls-2{fill:#1e385e;}.cls-3{fill:#172e49;}.cls-4{fill:#c46200;}.cls-13,.cls-5{fill:#662c01;}.cls-12,.cls-6{fill:#823b00;}.cls-10,.cls-7{fill:#f3f2b0;}.cls-11,.cls-8{fill:#e2dd7d;}.cls-10,.cls-11,.cls-12,.cls-13,.cls-9{fill-rule:evenodd;}</style></defs><g id="Layer_2" data-name="Layer 2"><g id="SCR"><path class="cls-1" d="M349.89,523.32s-61.76,0-97.59,68.61c-21.25,40.7-51.11,44.47-73.45,21.69s-20.15-43.47-31-39.66-16.35,25.2,0,53.17c0,0-62.09-41.74-69.71-30.85s30.5,64.26,30.5,64.26-55.74-24-59.46-9.81,38.76,88,92.13,83.78,78.41-20.61,78.41-20.61S192.27,755.29,206,766.18s94.61-40.3,94.61-40.3Z"/><path class="cls-2" d="M560.55,890.52s45,36.3,49.72,67.08-9.47,48.93-20.51,52.09-75,6.31-93.92-7.1-19.71-23.68-20.9-41.83-2.65-62.35,3.6-73.4S560.55,890.52,560.55,890.52Z"/><path class="cls-3" d="M560.55,890.52s-75.76-14.21-82-3.16c-4.59,8.12-5,34.12-4.46,54.54,5.38,1.44,15.17-1.63,15.17-1.63s-4.35,19.14,4.57,25.19S524,943.94,524,943.94s11.38,30.64,21.41,30.13,16.94-41.31,16.94-41.31,26.08,2.64,34.4-4.25C581.89,907.74,560.55,890.52,560.55,890.52Z"/><path class="cls-1" d="M563.71,784.25s25.16,28.56,20.76,37.75-14.56,6.38-14.56,6.38,18.87,23.07,17.78,29.52-11,10.27-11,10.27,26.17,24.32,22.21,34.69-36.54,7.07-36.54,7.07-6.91,40.81-16.94,41.32S524,921.11,524,921.11s-21.23,27.58-30.15,21.53-4.57-25.2-4.57-25.2-13.73,4.31-17.6.34-1.5-46.65-1.5-46.65-12.7,18.84-19.31,12.2-2-53.36-2-53.36S488,716.2,563.71,784.25Z"/><path class="cls-2" d="M267.62,890.52s-45,36.3-49.72,67.08,9.47,48.93,20.52,52.09,75,6.31,93.92-7.1,19.7-23.68,20.9-41.83,2.64-62.35-3.6-73.4S267.62,890.52,267.62,890.52Z"/><path class="cls-3" d="M267.62,890.52s-19.68,15.89-34.38,35.56c9.74,5.35,32.62,3,32.62,3s6.91,40.8,16.94,41.31,21.41-30.13,21.41-30.13,21.23,27.57,30.15,21.52,4.57-25.19,4.57-25.19,9.89,3.1,15.25,1.6c.41-19.76-.23-43.23-4.54-50.87C343.39,876.31,267.62,890.52,267.62,890.52Z"/><path class="cls-1" d="M264.47,784.25S239.31,812.81,243.71,822s14.56,6.38,14.56,6.38-18.88,23.07-17.79,29.52,11.05,10.27,11.05,10.27-26.18,24.32-22.21,34.69,36.54,7.07,36.54,7.07,6.91,40.81,16.94,41.32,21.41-30.14,21.41-30.14,21.23,27.58,30.15,21.53,4.56-25.2,4.56-25.2,13.74,4.31,17.61.34S358,871.13,358,871.13s12.71,18.84,19.31,12.2,2-53.36,2-53.36S340.2,716.2,264.47,784.25Z"/><path class="cls-2" d="M529.49,614.35H298.69L240,824.14c6.53,2.45,44.12-27,44.12-27l3.4,41.23c6.53.82,19.6-27.57,19.6-27.57l18.37,26.78c5.72.82,20.85-22.91,20.85-22.91l40.93,36.75C389.4,847.36,414.09,712,414.09,712S438.77,847.36,441,851.44l40.93-36.75S497,838.42,502.73,837.6l18.37-26.78s13.07,28.39,19.6,27.57l3.4-41.23s37.59,29.43,44.12,27Z"/><path class="cls-3" d="M550.06,687.82l-20.57-73.47H298.69l-23.38,83.5c14.72,9.8,66.53-11.91,66.53-11.91s-9.07,34-1.14,37.39,69.9-32.86,69.9-32.86-3,11.33.56,12.46,36.68-27.19,36.68-27.19,23.18,38.53,26.73,35.13,19.24-26.07,19.24-26.07C518.88,697.51,540.42,691.74,550.06,687.82Z"/><path class="cls-1" d="M737.61,136.5c-18,4.87-22.87,15.79-22.87,15.79s-3.26-14.13-.81-24,15.51-35,15.51-35c-29.4-6.55-54.72,37.59-54.72,37.59-9-35.94,3.27-58.81,0-60s-23.65,1.35-35,26.53c-7.85,17.45-7.11,51.48-7.11,51.48-9.42-9-16.73-31.13-16.73-31.13-30.22,36.69,0,92.37,0,92.37s-42.47,23.68-34.26,35.12,25.28,12.25,25.28,12.25-8.54,8.55-6.34,16.67c-56.19,31.4-167.84,76.22-307.65,44.77,0,0-64,15.53-93.53,94.73-8,21.47-19.95,34.36-32.58,41.95a.09.09,0,0,0,0,0,3,3,0,0,0,0-.42.5.5,0,0,0,0-.12c0-.13,0-.25-.06-.38a1.24,1.24,0,0,0,0-.16c0-.11-.05-.23-.08-.34a1.46,1.46,0,0,0,0-.2c0-.11-.06-.22-.1-.33a1.66,1.66,0,0,1-.06-.21c-.05-.11-.08-.22-.12-.33s-.07-.15-.1-.23l-.13-.33a1.63,1.63,0,0,1-.11-.23l-.16-.33c-.05-.08-.09-.17-.13-.25l-.19-.33-.15-.25-.22-.33a2.33,2.33,0,0,0-.17-.26c-.08-.11-.16-.23-.25-.34l-.2-.26c-.08-.12-.18-.22-.27-.34s-.15-.17-.23-.26-.2-.23-.31-.34l-.25-.27-.35-.35-.26-.25-.43-.38-.26-.23-.53-.42-.23-.18c-.26-.2-.53-.41-.83-.61h0c-.27-.18-.55-.34-.85-.5l-.33-.14c-.21-.09-.42-.19-.64-.26l-.43-.13-.64-.19-.49-.09-.66-.12-.54-.06-.7-.06-.59,0h-1.35l-.76.05-.66.05-.79.09-.68.09-.82.14-.71.13-.83.17-.74.17-.85.22-.76.2-.86.25-.78.24-.86.29c-.27.09-.54.17-.8.27l-.86.31c-.76.29-1.54.59-2.31.92l-.14.06-1,.44-.67.3c-.34.15-.66.31-1,.47l-.7.33-1,.51-.69.35-1,.54-.67.37-1,.57-.64.38-1,.6c-.2.14-.41.27-.62.4l-1,.64-.6.4-.95.67-.56.41c-.31.23-.63.47-.93.71l-.53.41-.91.73-.49.41c-.3.26-.6.51-.9.78l-.41.38c-.31.27-.61.55-.9.83l-.33.32c-.31.31-.62.61-.91.92l-.15.16a33.62,33.62,0,0,0-3,3.6c-1.4-.18-2.63-.38-3.68-.57h0l-.1-.17-.23-.39-.14-.21-.22-.38-.16-.23-.24-.39-.15-.24-.33-.5-.09-.15-.45-.67-.1-.14-.37-.56a1.88,1.88,0,0,1-.16-.23c-.12-.16-.23-.32-.34-.49a2.48,2.48,0,0,1-.19-.26l-.36-.5-.17-.24c-.17-.22-.33-.44-.49-.67l-.07-.08-.59-.78a1.15,1.15,0,0,0-.14-.17c-.15-.21-.31-.41-.47-.61l-.19-.24-.45-.56a2.43,2.43,0,0,1-.2-.25l-.5-.59-.18-.21c-.45-.54-.93-1.08-1.41-1.62l-.17-.17-.57-.63-.23-.24-.55-.57-.24-.25-.6-.59-.2-.2c-.54-.53-1.1-1.05-1.67-1.57l-.22-.19-.64-.56-.29-.25-.61-.51-.29-.24-.69-.54-.23-.18-.95-.71h0l-1-.67-.27-.18-.71-.48-.33-.2-.7-.44-.32-.19-.8-.46-.24-.14-1.06-.57-.12-.05c-.31-.16-.63-.32-1-.47l-.33-.15-.77-.34-.37-.16-.77-.31-.37-.14-.89-.32-.26-.08-1.17-.37-.21-.05c-.32-.09-.65-.18-1-.25l-.38-.1-.83-.18-.43-.08-.83-.14-.41-.06-1-.13-.24,0c-.42,0-.85-.08-1.28-.1H78c-.33,0-.66,0-1,0h-.44l-.88,0-.46,0-.91.06-.44,0-1.14.13-.21,0c-.46.06-.91.14-1.37.23l-.38.07-1,.22-.48.12-.94.25-.51.15c-.33.09-.65.2-1,.3l-.46.16-1.31.47-.14.06c-.48.19-1,.39-1.47.61l-.43.19-1.06.5-.53.26-1,.52-.55.3-1.06.6-.47.28c-.51.31-1,.63-1.54,1,0,0,7.66,7.47,14.3,15.56,2,2.43,3.89,4.91,5.47,7.26a32.24,32.24,0,0,1,3.51,6.48,70.22,70.22,0,0,0-27.84-6.5,46.32,46.32,0,0,0-15.65,2.45c-2,.68-3.88,1.42-5.73,2.22-1.23.52-2.44,1.07-3.61,1.64C11.41,481.84.86,492.58,0,496.4c-.13.57.46,1.11,1.6,1.61a18.21,18.21,0,0,0,2.12.74c1.25.36,2.77.7,4.49,1l1.78.33c13.55,2.37,36.81,4.1,43.66,5.92,0,0-46.29,34.42-41.58,46.42a6,6,0,0,0,4.29,3.61,15.79,15.79,0,0,0,4.27.5,32.06,32.06,0,0,0,3.41-.22c6.6-.74,15-3.29,23.15-5.72,2.23-.66,4.43-1.31,6.57-1.92l2.12-.59a65.19,65.19,0,0,1,12.95-2.5s-13.47,13.65-21.17,25.56c-1.1,1.7-2.09,3.37-2.9,5-2.15,4.23-3.07,7.89-1.69,10.12.69,1.12,2.07,1.64,4,1.71a21.08,21.08,0,0,0,5.06-.58c7.08-1.52,17.08-5.79,26.4-10.11,11.87-5.49,22.64-11,24.9-11.08a151.68,151.68,0,0,0,15.45,1l2,0,1,0c.64,0,1.24-.09,1.8-.16l.81-.11a13.88,13.88,0,0,0,1.42-.31c.21-.06.41-.12.59-.19a2.7,2.7,0,0,0,1.2-.76,3.22,3.22,0,0,0,.42-.66,6.39,6.39,0,0,0,.45-3.34,24,24,0,0,0-2.15-7.1s13.59,2.36,22.82,2.4c4.2,0,7.5-.44,8.21-1.82a15.51,15.51,0,0,0,1.26-8.22,16.94,16.94,0,0,0-.3-2.1s6.24-.39,14.07-1.55c3.25-.48,6.79-1.1,10.27-1.88,10.43-2.33,20.32-6.09,20.6-12,0-.27,0-.53,0-.79,31.9-12.13,69.31-39.05,85-98.71,4.36,8.71,12,106.73,12,106.73s-30.5,62.08-30.5,67.52,15.25,29.41,15.25,29.41c-5.44,8.71-3.19,40.86-3.19,40.86,12,12,65.27-10.37,65.27-10.37s-8.72,32.67-1.09,35.94,67.17-31.58,67.17-31.58-2.92,10.89.55,12,35.24-26.14,35.24-26.14,22.28,37,25.7,33.76,18.48-25.05,18.48-25.05c32.73,16.59,59.23.42,59.23.42,0-12.4-8.29-39.63-8.29-39.63h23.08S538.11,576.48,530,553.42c.42,0,.84.06,1.26.07l.56,0,1.23,0h.29c.76,0,1.53,0,2.31,0l.89,0,1,0,1.23-.08,1.19-.11,1.34-.14.82-.11,1.41-.22.62-.1,1.95-.39.63-.15,1.55-.38.58-.16c.68-.19,1.35-.39,2-.62l.41-.14c.57-.19,1.13-.4,1.7-.62l.57-.22q1-.4,2.07-.87c.35-.16.67-.33,1-.5l.27-.15.6-.38.26-.18a6.11,6.11,0,0,0,.55-.42l.17-.13c.21-.19.41-.39.59-.58a1.34,1.34,0,0,1,.11-.14,5.58,5.58,0,0,0,.37-.48c0-.06.09-.13.14-.2s.17-.3.25-.45.07-.13.09-.19a4.27,4.27,0,0,0,.24-.65h0a5.47,5.47,0,0,0,.14-.68c0-.07,0-.14,0-.2s0-.34,0-.52v-.22a5.07,5.07,0,0,0,0-.56,1,1,0,0,0,0-.17,7,7,0,0,0-.16-.74.65.65,0,0,0,0-.13c-.06-.21-.13-.42-.2-.63l-.09-.23c-.07-.19-.16-.39-.25-.58a2,2,0,0,0-.1-.21c-.13-.26-.26-.52-.41-.78h0c-.16-.27-.32-.54-.5-.82l-.13-.19-.44-.63-.17-.24-.52-.67-.12-.15c-.23-.29-.47-.57-.72-.86l-.07-.08-.68-.77-.21-.21c-.2-.23-.42-.45-.64-.67l-.19-.2c-.58-.58-1.19-1.16-1.82-1.75l-.16-.15-.81-.73-.22-.2-.88-.76-.12-.1c-.7-.6-1.42-1.19-2.16-1.79l-.18-.14-1-.77-.16-.12-2.34-1.8h0l-1.16-.87-.1-.08c-5.54-4.08-11.28-7.86-15.25-10.73l-.07-.05-.58-.43-.14-.1c-.57-.42-1.1-.82-1.57-1.19l-.13-.11-.37-.3-.19-.15-.33-.28-.15-.14c-.24-.21-.46-.41-.65-.6l-.12-2,.29,0h.7l.36,0,.64.07.32.05.53.08.36,0,.65.12.35.07,1.11.23c.86.19,1.68.35,2.45.49l.75.12,1.46.22.8.09c.4,0,.8.09,1.17.11l.75,0,1,0c.25,0,.46,0,.68,0s.58,0,.83,0l.61-.08c.23,0,.47-.06.69-.11l.51-.14c.2-.06.4-.11.57-.18a4.28,4.28,0,0,0,.43-.2c.15-.08.31-.15.45-.24l.34-.25a3.39,3.39,0,0,0,.34-.31,2.34,2.34,0,0,0,.25-.3,3.9,3.9,0,0,0,.25-.36l.17-.36c0-.14.1-.27.14-.42s.06-.27.09-.41,0-.3.05-.47a3.38,3.38,0,0,0,0-.45,4.53,4.53,0,0,0,0-.52c0-.17,0-.34-.07-.51s-.07-.37-.11-.57-.09-.36-.15-.54-.12-.41-.2-.62-.13-.39-.21-.59l-.27-.66c-.09-.21-.18-.42-.28-.63s-.23-.47-.35-.7l-.34-.67-.41-.74c-.13-.24-.26-.47-.41-.71s-.31-.52-.47-.78l-.46-.74-.53-.82-.52-.77-.59-.85-.56-.8c-.21-.29-.43-.58-.64-.88l-.62-.83-.68-.91-.66-.86-.73-.93c-.23-.3-.45-.59-.7-.89s-.5-.62-.75-.93l-.75-.94-.75-.91-.83-1-.71-.84-.92-1.1-.63-.74c-2-2.36-4.12-4.79-6.3-7.26-.77-22.58-1-41.1-1-41.1,7.77-1.66,15.14-3.65,22.17-5.88,2.85,7,5.55,11.62,8,14.31h0c1.9,2.07,3.67,3,5.28,2.86h.09a5.48,5.48,0,0,0,.56-.1l.16,0a5.27,5.27,0,0,0,.51-.19l.2-.1c.15-.08.31-.16.46-.26l.21-.15c.15-.11.29-.22.44-.35s.13-.14.2-.2.28-.27.42-.43l.19-.24a11.43,11.43,0,0,0,1.23-1.87l.27-.49c.09-.17.17-.36.26-.54l.27-.6c.08-.19.15-.39.23-.59l.27-.68c.06-.2.14-.41.21-.62s.17-.51.25-.77.14-.43.2-.65l.24-.86.18-.67c.08-.32.15-.65.23-1l.15-.65c.08-.38.17-.79.24-1.19,0-.19.08-.37.11-.55.12-.6.22-1.22.32-1.86v0c.09-.59.21-1.18.34-1.76,0-.18.08-.37.13-.55.1-.43.21-.86.34-1.28.05-.18.1-.36.16-.54q.25-.87.57-1.71c0-.07.05-.13.07-.2.19-.5.4-1,.61-1.51.08-.2.18-.4.26-.59.17-.39.35-.76.53-1.14.1-.2.19-.39.28-.59.26-.51.54-1,.82-1.54,0,0,0,0,0,0A194.54,194.54,0,0,0,594,403.79c0,.17,0,.34,0,.51s0,.33.05.49,0,.31.08.47.06.33.1.49.07.29.11.43.09.32.14.48.11.26.16.4l.19.43q.11.19.21.36c.08.14.16.27.25.4a2.51,2.51,0,0,0,.25.32c.1.12.2.24.31.35l.3.28.37.29.36.22a3.09,3.09,0,0,0,.44.24,3.89,3.89,0,0,0,.41.17l.52.17.46.11a6,6,0,0,0,.61.09l.52.05c.22,0,.46,0,.7,0s.37,0,.57,0,.54-.05.81-.08.41,0,.62-.08.63-.12.95-.19.42-.08.64-.14c.37-.09.77-.21,1.17-.33.2-.06.39-.1.6-.17.61-.2,1.25-.43,1.93-.7h0c.81-.32,1.58-.68,2.33-1.06l.68-.38c.51-.28,1-.58,1.5-.9.22-.14.45-.29.67-.45.5-.35,1-.71,1.46-1.1.14-.12.3-.23.45-.36.6-.51,1.16-1,1.7-1.59l.38-.43c.41-.43.8-.87,1.17-1.33l.48-.61q.49-.64,1-1.32l.4-.59c.4-.62.79-1.25,1.14-1.89a.21.21,0,0,0,0-.06c.37-.67.71-1.36,1-2,.08-.2.17-.4.26-.61.24-.51.45-1,.66-1.54.09-.22.17-.43.25-.65.22-.57.43-1.16.62-1.74l.14-.39c.23-.74.45-1.47.65-2.21l.06-.24c.17-.65.33-1.31.48-2,0-.16.07-.31.1-.47.13-.62.25-1.23.37-1.85,0-.1,0-.2.05-.3.4-2.26.65-4.43.8-6.42h0c26.94-28.46,40.3-60.44,46.74-82.17,1.82,2.6,4.38,4.26,8,3.61,11.62-2.1,23.49-52.63,23.49-52.63s4.09,9.8,9.8,3.35S717.91,210,717.91,210s7.45,4.89,10.72,0,7.35-42.48,13.88-50,27-18.48,27-18.48A40.32,40.32,0,0,0,737.61,136.5Z"/><path class="cls-4" d="M366.49,674.27a127.58,127.58,0,0,1,3.27-16.8l6.13-23-22.06,8.92c-7.64,3.08-30.38,11.07-43.72,11.07-.54,0-1,0-1.46,0-1-10.19-.92-20.22.27-23.19l3.84-6.15-4-6.32c-5.29-8.31-10.52-17.61-12.35-21.84,3.15-8.51,15.91-35.71,27.62-59.55l1.43-2.92-.25-3.25c0-.23-1.87-23.89-4.2-48.27-4.91-51.32-7.08-55.66-8.52-58.53l-14.08-28.17-17.3,26.58c-11.35,43.06-27.08,76.08-65,90.52l-7.73,2.94.05,5.54a46.74,46.74,0,0,1-10.47,3.33c-2.72.61-5.75,1.16-9,1.64-6.88,1-12.46,1.39-12.51,1.39l-14.33.92,2.72,10.57c-5.81-.37-12.87-1.4-16.31-2l-1-.17H127.32l5.93,12c-3.06-.19-5.93-.48-7.48-.66l-.69-.09h-.94c-3.93.08-7.51,1.71-19.34,7.34-2.9,1.39-6.06,2.9-9.31,4.4-1.83.85-5.42,2.51-9.43,4.19,6.2-7.88,13.22-15.06,13.61-15.45l3.4-3.47V528.43L90.62,529a71,71,0,0,0-15,2.8l-2.16.6c-2.11.6-4.28,1.24-6.46,1.89l-.78.24c-3.94,1.17-7.94,2.36-11.6,3.29,6.73-7.24,17.75-17,29.05-25.39l19.72-14.66-23.73-6.35c-4.13-1.11-10.94-1.92-21.73-3.15-3-.34-6.09-.69-9-1.05a79,79,0,0,1,7.54-4.17c1-.48,2-.93,3-1.36,1.55-.67,3.14-1.28,4.71-1.83a32.62,32.62,0,0,1,10.72-1.69h.31a56.12,56.12,0,0,1,21.44,5l26.92,14.1-19-26a41.6,41.6,0,0,0-4.67-8.79c-1.6-2.39-3.6-5-5.94-7.9-.44-.54-.89-1.07-1.34-1.6l.49.08.28,0,.72.17c.09,0,.66.17.66.17l.57.18.84.3.76.3.65.29.57.27.12.07.17.09c.15.07.72.39.72.39l.65.37.79.5.6.4.7.49c.24.17.47.35.69.52l.82.65.69.57.62.55c.43.39.84.78,1.24,1.17l.84.83.58.62.43.46-.08-.09.21.23c.36.4.73.82,1.08,1.24l.66.79.54.66.45.58.58.77,1.08,1.5.15.21-.1-.16.61.91,1,1.58.16.26-.1-.15.31.49.25.52,12.15,2,4.62.84c1.3.23,2.68.44,4.08.63l7.1.94,4.14-5.84a21.41,21.41,0,0,1,1.8-2.16l.18-.19.76-.76-.06.06.65-.61.34-.31.65-.56.36-.3.75-.6.29-.23.7-.52.47-.34.69-.5,1.17-.78.5-.32.77-.47L158,461l1.3-.71s1.08-.56,1.3-.66l1.3-.63,1.42-.62c.58-.25,1.17-.48,1.75-.69l.65-.25,1.19-.4,1.19-.35,1.11-.29,1-.22.47-.09.48-.07.42-.06L172,456l.34,0,.61,0h.19l.27.25.06.07,1.7,18.16,16.19-9.73c16.27-9.78,28.47-25.36,36.27-46.29,22.73-61,68.14-79.21,79-82.78a430,430,0,0,0,91.17,9.89c92.12,0,164.73-29.77,209.42-54.74l8.09-4.52L613,277.56a13.62,13.62,0,0,1,2.94-4.8l19-19-26.8-1.28c-2.17-.14-8.19-1.19-12.38-4.14,4.39-4.91,15.45-13.06,26.22-19.08l10.25-5.73-5.6-10.31c-.18-.35-15.17-28.74-10.55-54.74a51,51,0,0,0,8,10.26l20.68,19.67-.61-28.53c-.17-8.35.53-32.59,5.78-44.28a38.07,38.07,0,0,1,8.46-12.32A116.54,116.54,0,0,0,661,145.76l7.15,28.62,14.68-25.59c3-5.15,11-16.5,20.38-23.87a90.57,90.57,0,0,0-4.6,12.66c-2.95,11.92.35,26.92.74,28.6l7.68,33.22-7.3-5.19s2.4,25.75,2.4,25.8l-3.32-9L690,249.89c-3.47,14.74-8.61,29.89-12.56,37.73L667,272.73l-7,23.54c-5.83,19.67-17.87,48.48-42.08,74.06L615,373.39l-.32,4.21c-.13,1.72-.33,3.4-.61,5l0,.29c-.08.4-.17.87-.27,1.34l-.07.32c-.11.5-.23,1-.35,1.45l-.06.23,0-.08,0,.06c-.14.52-.29,1-.46,1.57l-.12.34-.39,1.11-.18.45c-.13.32-.27.66-.42,1l-.19.42c-.17.37-.37.76-.58,1.14l0,.09c-.24.44-.47.81-.71,1.17l-.24.35c-.15.22-.33.47-.52.72l-.25.32c-.2.24-.39.46-.6.68s-.19.22-.29.32a8.51,8.51,0,0,1-.63.59l-.34.27c-.23.19-.45.36-.69.53l0,0-.78-13.73L588.57,394.9a174.54,174.54,0,0,1-22.13,12.35L562.66,409l-1.74,3.52c-.3.55-.59,1.11-.87,1.67-.13.24-.25.5-.38.77s-.43.9-.64,1.37l-.32.75c-.28.64-.53,1.27-.77,1.9l-.07.21c-.27.71-.49,1.36-.69,2l-3.4-8.3-10.44,3.32c-6.61,2.09-13.39,3.9-20.16,5.35l-9.5,2,.1,9.71c0,.18.2,18.15.94,39.71l.15,4.25,2.81,3.19c2,2.32,4,4.61,5.91,6.82l2.08,2.47,1.45,1.76,1.34,1.66h-.22l-.49,0c-.5,0-.92.07-1.28.12l-10.91,1.5.8,12.89.28,4.48,3.17,3.18c.34.33.73.69,1.16,1.07l.21.19.81.68.6.48c.55.43,1.16.9,1.82,1.39l.25.18-.12-.09.83.61-.11-.08c1.63,1.18,3.57,2.52,5.67,4,2.77,1.91,5.9,4.08,8.87,6.27l1.43,1.07c.6.45,1.18.9,1.76,1.35l1.15.91c.59.47,1.2,1,1.79,1.48l1,.85-.29.07c-.43.1-.91.19-1.38.28l-.44.07-1,.16-.61.08-1,.11-.9.07-1,.07-.77,0-.67,0h-2l-.9,0-.42,0c-.38,0-.7,0-1-.06l-17.95-1.2-19.83,16c-5.38,56.43-81,97-81,97C398.65,658.31,378.28,669.14,366.49,674.27Z"/><path class="cls-4" d="M375.83,27.93s-31-17.67-39.23-14.23,5.6,22.42,5.6,22.42-19.39-6-25,2.58,5.17,28.89,5.17,28.89-23.28-12.5-31.47-7.33,5.6,49.57,5.6,49.57-17.67-15.52-23.71-9.91,0,16,0,16-35.77-6-37.93,10.34,22,14.23,22,14.23-25.71,37.5-22.13,49.14,21.7,8.62,21.7,8.62-19.84,37.07-19.84,57.33,5.61,37.07,25.44,22a75,75,0,0,0-6,41.38c3.46,22.85,10.78,34.06,28.89,14.23,0,0-1.73,29.31,15.95,47.42S328,391.75,337,366.32c0,0,2.15,27.59,17.67,28.88s16.81-21.12,16.81-21.12,10.78,25.43,22.41,25,21.13-25,21.13-25,18.54,50.43,40.09,48.71,40.52-45.69,40.52-45.69,2.16,12.07,13.36,10.34,25.87-27.59,29.75-42.67a26.84,26.84,0,0,0,25.86,4.74c15.09-5.17,7.76-59.49,0-72,14.23,8.62,13.36-37.5-7.76-66.82,20.69,5.18,2.59-53.88-12.07-68.11,17.25,7.33,11.64-25-16.38-52.16,6.47,1.3,8.19-26.29-18.1-31C528,40,518.91,24.48,475.6,34.83c0,0,3.69-19-4.07-25.87s-34.92,19-34.92,19S435.75.55,427.13,0s-25.86,18.44-29.75,25.76c0,0-10.34-22-17.67-21.12S375.83,27.93,375.83,27.93Z"/><path class="cls-1" d="M556.88,210.7c20.69,5.18,2.59-53.88-12.07-68.11,17.24,7.33,11.64-25-16.38-52.16,6.47,1.3,8.19-26.29-18.1-31C528,40,518.91,24.48,475.6,34.83c0,0,3.69-19-4.07-25.87s-34.92,19-34.92,19S435.75.55,427.13,0s-25.86,18.44-29.74,25.76c0,0-10.35-22-17.68-21.12s-3.88,23.28-3.88,23.28-31-17.67-39.23-14.23,5.6,22.42,5.6,22.42-19.39-6-25,2.58,5.18,28.89,5.18,28.89-23.28-12.5-31.47-7.33,5.6,49.57,5.6,49.57-17.67-15.52-23.71-9.91,0,16,0,16-35.77-6-37.93,10.34,22,14.23,22,14.23-25.71,37.5-22.13,49.14,21.7,8.62,21.7,8.62-19.84,37.07-19.84,57.33,5.61,37.07,25.44,22a75,75,0,0,0-6,41.38c3.46,22.85,10.78,34.06,28.89,14.23,0,0-1.73,29.31,15.95,47.42S328,391.75,337,366.32c0,0,2.15,27.59,17.67,28.88s16.81-21.12,16.81-21.12,10.78,25.43,22.41,25,21.13-25,21.13-25,18.54,50.43,40.09,48.71,40.52-45.69,40.52-45.69,2.16,12.07,13.36,10.34,25.87-27.59,29.75-42.67a26.84,26.84,0,0,0,25.86,4.74c15.09-5.17,7.76-59.49,0-72C578.87,286.14,578,240,556.88,210.7ZM536.53,325.3a22.15,22.15,0,0,1-21.33-3.92c-3.2,12.45-15.28,33.78-24.53,35.2s-11-8.53-11-8.53S464,384.31,446.23,385.73s-33.06-40.17-33.06-40.17-7.82,20.26-17.42,20.62-18.48-20.62-18.48-20.62S376.2,364.05,363.41,363s-14.58-23.82-14.58-23.82c-7.47,21-15.29,26.66-29.86,11.73s-13.16-39.1-13.16-39.1c-14.93,16.35-21,7.11-23.81-11.73a61.72,61.72,0,0,1,5-34.13c-16.36,12.44-21-1.42-21-18.13s16.35-47.28,16.35-47.28-14.93,2.49-17.88-7.11,18.24-40.53,18.24-40.53-19.91,1.78-18.13-11.73,31.28-8.53,31.28-8.53-5-8.53,0-13.16,19.55,8.18,19.55,8.18S304,91,310.79,86.76s25.95,6,25.95,6S327.86,76.1,332.48,69s20.61-2.13,20.61-2.13-11.37-15.64-4.62-18.48S380.83,60.1,380.83,60.1,378,41.61,384,40.9,398.6,58.32,398.6,58.32c3.2-6,17.42-21.68,24.52-21.24s7.83,23,7.83,23,22.4-21.33,28.79-15.64,3.36,21.33,3.36,21.33c35.71-8.54,43.22,4.26,28.64,20.26,21.68,3.91,20.26,26.66,14.93,25.6,23.11,22.39,27.73,49,13.51,43,12.09,11.73,27,60.43,10,56.17,17.42,24.17,18.13,62.21,6.4,55.1C542.93,276.24,549,321,536.53,325.3Z"/><polygon class="cls-1" points="503.12 337.12 341.02 342.74 318.73 277.39 518.36 270.47 503.12 337.12"/><polygon class="cls-5" points="491.15 332.79 352.31 337.61 333.2 281.63 504.21 275.7 491.15 332.79"/><path class="cls-6" d="M497.71,304.12c-17.5-12.78-44.94-20.48-75.52-19.42C388.85,285.86,360,297.16,344,313.2l8.33,24.41,138.84-4.82Z"/><polygon class="cls-7" points="341.45 281.35 350.19 307.71 358.4 294.09 374.72 303.17 388.09 293.06 406.72 299.53 425.49 291.77 452.75 298.64 476.62 289.99 486.6 307.71 496.74 275.96 341.45 281.35"/><polygon class="cls-8" points="342.93 285.83 495.27 280.55 496.74 275.96 341.45 281.35 342.93 285.83"/><polygon class="cls-7" points="483.61 333.05 474.88 306.69 466.66 320.31 452.17 320.81 433.29 316.46 411.47 322.22 391.28 318.84 377.36 323.4 367.38 305.69 357.25 337.44 483.61 333.05"/><polygon class="cls-8" points="482.13 328.57 358.71 332.85 357.25 337.44 483.61 333.05 482.13 328.57"/><path class="cls-4" d="M257.92,840.06c.94-.94,16.93-26.13,20.5-6.83s.89,41.24,18.71,15.15,20.19,6.53,29.7,10.39,18.21-29.4,23.06-24.94,23.27,29.1,17.92,30.29-19.6-17.36-19.9-3.78S356.83,917,343.76,903s-9.81,23.46-17.23,20.79S309,890.23,292.08,924s-5.94-33.11-22.57-30.14-32.08-5.05-5.65-24.65S227.63,870.65,257.92,840.06Z"/><path class="cls-4" d="M464,846.89s-13.66,19.61,7.13,14.56-5.35,49,15.14,36.83,1.78,42.76,28.52,17.82,27.62,38.6,35.93-5.65c0,0,3-16.33,13.67-12.17s26.13,2.67,5.93-21.39,17.53-12.88,4.46-25.45S560.56,806.5,554,822.24s-10.1,42.77-23.17,21.68-15.44,21.57-32.37,7.52S475,833.83,464,846.89Z"/><path class="cls-1" d="M540.3,536.6l1-.07.9-.07,1-.11.61-.08,1-.16.44-.07c.47-.09.95-.18,1.38-.28l.29-.07-1-.85c-.59-.5-1.2-1-1.79-1.48l-1.15-.91c-.58-.45-1.16-.9-1.76-1.35L539.8,530c-3-2.19-6.1-4.36-8.87-6.27-2.08-1.43-4-2.76-5.61-3.93l-.78-.57.12.09-.25-.18c-.66-.49-1.27-1-1.82-1.39l-.6-.48-.81-.68-.21-.19c-.43-.38-.82-.74-1.16-1.07l-3.17-3.18-.28-4.48-.79-12.89,10.9-1.5c.36-.05.78-.09,1.28-.12l.49,0h.22l-1.34-1.66-1.45-1.76-2.08-2.47c-1.88-2.21-3.87-4.5-5.91-6.82l-2.81-3.19-.15-4.25c-.74-21.56-.93-39.53-.93-39.71l-.11-9.71s-4.5,83.23-40.73,107.59S525.41,568,525.41,568l-4.28-32.35c4.38.27,11.42.68,19,1Z"/><path class="cls-9" d="M312.54,191.1A34.09,34.09,0,0,0,308.23,207c-.43,21,18.61,38.39,42.53,38.88s43.65-16.12,44.08-37.11C395,203,312.54,191.1,312.54,191.1Z"/><path class="cls-9" d="M307,191.47,391,213.2a5.86,5.86,0,0,0,7.12-4.19l-85.26-39.95a5.87,5.87,0,0,0-7.12,4.19l-2.87,11.1A5.86,5.86,0,0,0,307,191.47Z"/><path class="cls-10" d="M322.59,193.64a27.88,27.88,0,0,0-3.53,13c-.35,17.17,15.23,31.41,34.79,31.81s35.72-13.19,36.06-30.36C390,203.4,322.59,193.64,322.59,193.64Z"/><path class="cls-11" d="M354,232.35c18.35.38,33.69-11.55,35.81-27.21a25.56,25.56,0,0,1,.12,2.91c-.34,17.17-16.49,30.76-36.06,30.36s-35.14-14.64-34.79-31.81a27.88,27.88,0,0,1,.24-2.9C320.79,219.43,335.63,232,354,232.35Z"/><path class="cls-12" d="M364.68,223.54a13.08,13.08,0,1,1,11-14.64A13,13,0,0,1,364.68,223.54Z"/><path class="cls-13" d="M375.67,208.9a13.22,13.22,0,0,0-3.9-7.76,13.11,13.11,0,0,1-9.16,19.8,12.71,12.71,0,0,1-10.5-3.53,12.81,12.81,0,0,0,12.57,6.13A13,13,0,0,0,375.67,208.9Z"/><path class="cls-10" d="M352.87,211.1a4.48,4.48,0,1,0,3.85-5A4.48,4.48,0,0,0,352.87,211.1Z"/><path class="cls-12" d="M313.05,191.6l78.25,20.26a5.84,5.84,0,0,0,7.11-4.19L318.5,170.54a5.84,5.84,0,0,0-7.11,4.19l-2.53,9.76A5.85,5.85,0,0,0,313.05,191.6Z"/><path class="cls-13" d="M391.46,208.35l-78.25-20.26a5.85,5.85,0,0,1-4.18-4.28l-.17.68a5.85,5.85,0,0,0,4.19,7.11l78.25,20.26a5.84,5.84,0,0,0,7.11-4.19l-1.52-.71A5.85,5.85,0,0,1,391.46,208.35Z"/><path class="cls-9" d="M508.52,180.26a33.93,33.93,0,0,1,6,15.29c2.74,20.81-14.27,40.2-38,43.33s-45.17-11.22-47.91-32C427.92,201.21,508.52,180.26,508.52,180.26Z"/><path class="cls-9" d="M514.06,180l-81,30.85a5.85,5.85,0,0,1-7.54-3.38l80.33-49.1a5.86,5.86,0,0,1,7.54,3.38l4.08,10.71A5.86,5.86,0,0,1,514.06,180Z"/><path class="cls-10" d="M498.81,183.89a27.9,27.9,0,0,1,4.94,12.5c2.24,17-11.68,32.9-31.08,35.45s-36.94-9.17-39.18-26.2C432.88,201,498.81,183.89,498.81,183.89Z"/><path class="cls-11" d="M471.88,225.84c-18.2,2.39-34.76-7.78-38.59-23.1a25.85,25.85,0,0,0,.2,2.9c2.24,17,19.78,28.76,39.18,26.2s33.32-18.42,31.08-35.45c-.13-1-.34-1.91-.56-2.85C503.45,209.33,490.08,223.44,471.88,225.84Z"/><path class="cls-12" d="M462.25,218.15a13.09,13.09,0,1,1,11-14.64A13,13,0,0,1,462.25,218.15Z"/><path class="cls-13" d="M473.23,203.51a13.11,13.11,0,0,0-3.9-7.76,13.21,13.21,0,0,1,1.83,5.16,13,13,0,0,1-11,14.64,12.67,12.67,0,0,1-10.5-3.54,12.8,12.8,0,0,0,12.57,6.14A13,13,0,0,0,473.23,203.51Z"/><path class="cls-10" d="M450.43,205.7a4.48,4.48,0,1,0,3.86-5A4.48,4.48,0,0,0,450.43,205.7Z"/><path class="cls-12" d="M508.07,180.82l-75.54,28.76A5.85,5.85,0,0,1,425,206.2l75.33-45.71a5.86,5.86,0,0,1,7.54,3.37l3.58,9.42A5.85,5.85,0,0,1,508.07,180.82Z"/><path class="cls-13" d="M432,206.11l75.54-28.76a5.84,5.84,0,0,0,3.68-4.72l.25.65a5.85,5.85,0,0,1-3.38,7.54l-75.54,28.76A5.85,5.85,0,0,1,425,206.2l1.44-.87A5.84,5.84,0,0,0,432,206.11Z"/><path class="cls-3" d="M354.29,792.54l-28.06,20.2-8.91-22.28L300.1,803.24V777.7l-53.5,22.72h0L240,824.14c6.53,2.45,44.12-27,44.12-27l3.4,41.23c6.53.82,19.6-27.57,19.6-27.57l18.37,26.78c5.72.82,20.85-22.91,20.85-22.91l40.93,36.75C389.4,847.36,414.09,712,414.09,712L372,821.06Z"/><path class="cls-3" d="M550.06,773.62l-14.74,30.21-8.91-18.41-20.83,27.91L492,790.17s-33.86,28.51-39.53,30.89-38.34-109-38.34-109S438.77,847.36,441,851.44l40.93-36.75S497,838.42,502.73,837.6l18.37-26.78s13.07,28.39,19.6,27.57l3.4-41.23s37.59,29.43,44.12,27l-6.57-23.47-1.44-1Z"/></g></g></svg>