<svg xmlns="http://www.w3.org/2000/svg" viewBox="0 0 512 512"><g id="OBJECTS"><path d="M223.449,151.259c-1.309.2-21.739-19.618-22.042-24.541,0,0-3.307-20.83-3.206-23.632,0,0,1.086,21.056,1.464,23.026,0,0-7.5-9.923-8.862-14.164,0,0,.834-46.734,1.439-53.6s4.84-50.7,32.616-51.1l3.363.934s7.4-5.377,20.853-2.954,37.09,13.634,41.029,42.114,5.908,81.954,5.756,85.893c0,0-8.634,5.6-14.239,8.028,0,0,.909-28.631-.455-37.568,0,0-1.363,36.811-1.969,39.386,0,0-13.194,7.423-20,8.181Z" style="fill:#ffdccf"/><path d="M223.468,151.259c-1.308.2-21.738-19.618-22.041-24.541,0,0-2.678-16.878-3.135-22.271-.044-.832-.071-1.361-.071-1.361.025-2.575-.713-22.8-.713-22.8l14.9,5.075,53.071-9.948s4.559,10.2,4.653,17.168c.089,6.681-.279,45.269-1.377,55.657a37.956,37.956,0,0,1-9.545,3.02Z" style="fill:#e0b9ae"/><path d="M223.2,144.544V119.976h28.278v24.085c3.252,2.166,12.494,8.153,16.209,8.813,0,0-9.089,49.587-20.8,60.8L198.2,157.823S213.73,153.006,223.2,144.544Z" style="fill:#ffb0a1"/><path d="M251.021,198.219a9.986,9.986,0,0,0,4.645-.3c-2.653,6.891-5.622,12.726-8.786,15.753L198.2,157.823s2.6-.814,6.306-2.338C217.673,170.659,241.319,196.513,251.021,198.219Z" style="fill:#ea9584"/><path d="M251.476,119.976v14.313A81.477,81.477,0,0,1,238.6,136.11c-5.273.2-11.64-3.842-15.4-6.644v-9.49Z" style="fill:#e5806a"/><path d="M220.557,37.009c.146-.772.241-1.259.241-1.259C220.71,36.107,220.631,36.54,220.557,37.009Z" style="fill:#ffbaa5"/><path d="M205.023,70.7c0,4.048,2.217,8.9,2.217,8.9-.682-5.68,2.954-36.356,2.954-36.356-.682,7.422,4.847,14.088,4.847,14.088l2.575.075c-.255-3.186,2.165-16.31,2.941-20.4-.948,6-.82,20.252-.82,20.252h12.422c-.833-3.03,1.364-20.981,1.364-20.981A29.43,29.43,0,0,0,251.55,57.564c-3.939-1.919-10.125-19.214-10.125-19.214,30.095,31.409,28.732,56.264,28.732,56.264-1.721,18.439-22.848,35.335-32.483,35.335s-30.761-16.9-32.482-35.335c-4.413-1.136-7.7-7.754-7.7-10.447V78.781A7.821,7.821,0,0,1,205.023,70.7Z" style="fill:#ffb0a1"/><path d="M232.336,70.062V68.581a3.8,3.8,0,0,0-2.833-3.694,35.153,35.153,0,0,0-9.185-1.289,9.91,9.91,0,0,0-7.928,4.393s6.666-.808,8.584-.707S232.336,70.062,232.336,70.062Z" style="fill:#a98073"/><path d="M257.7,67.284c-1.919.1-11.361,2.778-11.361,2.778V68.581a3.8,3.8,0,0,1,2.832-3.694,35.167,35.167,0,0,1,9.186-1.289,9.639,9.639,0,0,1,2.305.364c.684,1.234,1.333,2.448,1.922,3.626A44.579,44.579,0,0,0,257.7,67.284Z" style="fill:#a98073"/><ellipse cx="221.728" cy="81.177" rx="3.131" ry="7.17" style="fill:#361909"/><ellipse cx="257.588" cy="81.215" rx="3.131" ry="7.17" style="fill:#361909"/><path d="M240.212,103.153a5.086,5.086,0,0,0,4.321-2.864c.826-1.443-.371-15.1-.923-20.9a.668.668,0,0,0-.734-.607.676.676,0,0,0-.607.736c.852,8.945,1.523,19.038,1.083,20.124a3.918,3.918,0,0,1-3.14,2.163.674.674,0,0,0,0,1.347Z" style="fill:#e5806a"/><path d="M244.851,113.1c.963,0,1.573-.045,1.676-.054a.673.673,0,1,0-.1-1.341c-.111.006-11.088.805-17.253-5.167a.673.673,0,1,0-.936.968C233.4,112.516,241.39,113.1,244.851,113.1Z" style="fill:#e5806a"/><path d="M241.4,109.553a5.6,5.6,0,0,0,1.209-.116.337.337,0,0,0,.253-.4.346.346,0,0,0-.405-.251,6.375,6.375,0,0,1-4.921-1.215.336.336,0,1,0-.41.532A6.923,6.923,0,0,0,241.4,109.553Z" style="fill:#e5806a"/><path d="M226.452,108.792a12.633,12.633,0,0,1-7.1,11.331c-6.048-5.608-11.433-13.1-13.486-21.159a12.608,12.608,0,0,1,20.588,9.828Z" style="fill:#ffa095"/><path d="M249.074,108.792a12.62,12.62,0,0,1,20.237-10.117c-1.978,8.1-7.351,15.642-13.407,21.3A12.624,12.624,0,0,1,249.074,108.792Z" style="fill:#ffa095"/><path d="M231.1,164.905a3.024,3.024,0,0,0,2.038-.8,2.941,2.941,0,0,0,.905-2.875,101.921,101.921,0,0,1-2.6-21.641.338.338,0,0,0-.337-.333h0a.337.337,0,0,0-.331.341,102.732,102.732,0,0,0,2.616,21.785,2.27,2.27,0,0,1-.7,2.225,2.365,2.365,0,0,1-2.362.5l-.421-.144c-.67-.231-1.367-.469-2.051-.63a36.072,36.072,0,0,0-13.978-.472.336.336,0,0,0-.277.388.352.352,0,0,0,.387.278,35.386,35.386,0,0,1,13.715.461c.65.154,1.3.376,1.986.612l.423.144A3.081,3.081,0,0,0,231.1,164.905Z" style="fill:#e5806a"/><path d="M241.622,165.786a.146.146,0,0,0,.029,0,145.679,145.679,0,0,1,19.5-.418.335.335,0,0,0,.352-.321.339.339,0,0,0-.321-.352,146.956,146.956,0,0,0-19.593.421.337.337,0,0,0,.029.672Z" style="fill:#e5806a"/><path d="M200,81.474a5.215,5.215,0,0,1,5.023-5.387V89.058A8.038,8.038,0,0,1,200,81.474Z" style="fill:#e5806a"/><path d="M173.388,415.214H161.754a11.487,11.487,0,0,1-10.058-5.937l-8.387-15.2a6.038,6.038,0,0,1-.711-3.622l5.365-45.634a6.037,6.037,0,0,1,4-4.993l5.043-1.767a11.482,11.482,0,0,1,3.8-.646h14.308Z" style="fill:#4f5342"/><path d="M161.6,415.214h17.756a5.744,5.744,0,0,0,5.739-5.976l-2.686-66.377a5.744,5.744,0,0,0-5.739-5.511H164.357a5.743,5.743,0,0,0-5.739,5.5l-2.754,66.377A5.743,5.743,0,0,0,161.6,415.214Z" style="fill:#323529"/><polygon points="157.291 374.832 145.212 368.222 145.511 365.682 157.463 370.7 157.291 374.832" style="fill:#323529"/><ellipse cx="150.315" cy="363.56" rx="1.696" ry="2.625" style="fill:#323529"/><path d="M322.521,300.826s5.151-3.989,5.832-8.685l-3.938-5.756S321.536,295.575,322.521,300.826Z" style="fill:#bb905f"/><path d="M348.577,199.835l.757-17.9s-5.529-8.029-6.741-12.044-3.408-10.907-6.665-12.346-6.211-4.62-5.605-6.286,5.453-2.349,7.877-.606,9.165,8.331,9.165,8.331l.984-.454a54.442,54.442,0,0,1,2.046-13.861l.605-2.954s.3-29.01.455-30.752,5-2.424,5.453,0,.909,29.54.909,29.54h1.591s12.5-33.63,15-34.766,6.211,1.818,4.7,4.772-11.588,29.994-11.437,31.509,3.636,2.045,3.636,2.045,6.892-14.619,8.483-17.648,5.453-9.847,7.271-9.7,4.545,3.029,2.045,7.65-12.27,23.859-12.27,23.859l1.969,1.818s12.422-17.724,15.982-17.724,2.575,4.544,0,7.5-13.331,16.815-13.331,16.815-7.953,19.391-12.573,26.207a7.805,7.805,0,0,0-.606,3.03c0,1.742-2.424,64.155-4.242,78.243s-8.786,28.177-12.422,33.327-10.149,12.574-13.179,11.21-13.937-12.725-14.088-20.905,18.986-56.5,18.986-56.5S348.449,202.855,348.577,199.835Z" style="fill:#ffb0a1"/><path d="M143.767,291.99s-37.72-25.6-38.629-31.813l2.423-4.241S141.191,277.144,143.767,291.99Z" style="fill:#bb905f"/><path d="M133.877,272.817,118.115,291.03s17.169,18.078,21.107,23.986,29.54,36.962,29.54,36.962l-3.787,16.815s-56.151-44.384-63.826-51.984-18.381-17.8-15.755-24.819,22.849-36.4,22.849-36.4S134.749,268.7,133.877,272.817Z" style="fill:#ffb0a1"/><path d="M108.31,255.6s26.507,13.108,25.634,17.222l-8.3,9.591c-4.393-4.35-14.112-13.306-23.605-17.546C105.6,259.532,108.31,255.6,108.31,255.6Z" style="fill:#e5806a"/><path d="M160.75,342.121c4.593,5.629,8.079,9.857,8.079,9.857l-3.787,16.815s-6.687-5.285-15.758-12.519C151.5,348.944,157.684,344.125,160.75,342.121Z" style="fill:#ea9584"/><path d="M246.172,211.1s19.188-49.937,19.188-59.836c0,0,10.3,4.24,10.4,5.048v1.111S299.6,165.3,301.616,166.1s4.948-.48,6.261.719,25.551,43.919,27.167,50.989,0,.606,0,.606a14.549,14.549,0,0,0,2.323,2.7c.909.631,3.029,3.358,2.726,5.277s2.626,2.929,3.232,4.847-16.259,43.174-20.8,69.583c0,0-20.4-38.78-21.107-49.889,0,0-5.858,19.592-8.382,26.156s-3.232,10.806-4.444,12.018.606,5.656-1.717,7.676-4.746,4.039-4.746,4.039-21.916,4.04-36.862,3.939S193.05,298.2,193.05,298.2,173,263.965,170.58,250.028c0,0-20.451,36.66-26.813,41.962,0,0-20.783-31.57-37.6-33.358l-1.031,1.545s-1.212-1.211,0-5.453,49.46-87.029,51.581-89,8.71-2.2,10.983-2.5,23.935-4.393,23.935-4.393l.112-.163a7.864,7.864,0,0,1,6.049-3.325,24.869,24.869,0,0,0,2.776-.3c3.106-.531,3.245-1.652,7.379-1.053l-4.5,2.8S233.927,192.665,246.172,211.1Z" style="fill:#deac73"/><path d="M283.033,312.743s7.272-11.513,6.868-15.148a16.773,16.773,0,0,0-6.868-1.212c-4.039.1-8.386,2.949-11.214,3.252s-15.043-1.434-30.6-1.232-24.541,1.514-29.994.6-20.3-4.443-22.622-3.231,4.443,13.23,4.443,13.23l-.808,3.736s-22.42,57.666-22.823,83.116,2.625,104.223,2.625,104.223,29.974,17.464,56.612,4.116c0,0,14.082-86.929,18.324-92.988,0,0,10.244,83.494,9.638,94.078,0,0,39.764,11.983,58.228-8.438,0,0,6.059-94.932,3.029-110.282C314.489,369.41,283.033,312.743,283.033,312.743Z" style="fill:#6e4a34"/><path d="M281.014,195.947c-1.212,3.636-15.25,5.908-24.693,11.816s-9.567,7.123-9.567,7.123-21.033-14.546-40.575-16.818-20-3.333-19.542-6.665,3.03-27.571,5-32.57l.112-.163a7.864,7.864,0,0,1,6.049-3.325,24.894,24.894,0,0,0,2.776-.3c3.106-.531,3.245-1.652,7.379-1.053l-4.5,2.8s30.474,35.877,42.719,54.308c0,0,19.188-49.937,19.188-59.836,0,0,9.984,4.111,10.371,5l.031,1.155S282.226,192.311,281.014,195.947Z" style="fill:#edb87c"/><path d="M284.959,314.987a1.85,1.85,0,0,1-1.567.645,536.959,536.959,0,0,1-88.018-1.395c-1.441-.141-3.586-.39-3.685-1.836-.09-1.324-.115-2.68,1.3-3.093s2.211.33,4.938.6c16.149,1.57,32.031,3.211,48.249,3.673,4.426.127,8.979-.494,13.406-.579,4.953-.094,10.083.214,15-.405,2.458-.31,4.862.059,7.3-.381.82-.148,1.718-.555,2.376.052C284.733,312.71,285.307,314.384,284.959,314.987Z" style="fill:#1c1c18"/><path d="M169.782,349.929c-.245-.367-.9-4.565.778-6.248.74-.74,3.757-1.044,5.473-.431s19.977,24.941,19.364,27.882-5.27,1.961-8.947-1.961c0,0,9.346,14.248,8.151,17.19s-7.262-3.034-8-3.585c0,0,5.516,8.273,1.471,7.813s-9.1-6.251-9.1-6.251,2.666,4.6-.46,3.769-18.384-8.549-19.671-11.306-.643-7.446,1.471-7.446c0,0-2.482-3.768-1.195-7.629s6.251-3.677,6.251-3.677-2.287-2.95-1.839-6.067,4.321-3.033,5.791-2.022" style="fill:#ffbaa5"/><path d="M172.372,160.4c.11-.012.321-.025.681.335a5.373,5.373,0,0,1,.945,1.386c-1.853.338-3.486.633-4.646.834A3.616,3.616,0,0,1,172.372,160.4Z" style="fill:none"/><path d="M335.044,218.418s.08.116.2.288C336.5,224.252,335.044,218.418,335.044,218.418Z" style="fill:#facec2"/><path d="M172.119,157.72a3.433,3.433,0,0,1,2.828,1.1,8.444,8.444,0,0,1,1.68,2.817c5.613,13.9,4.331,65.154,1.961,109.406-1.759,32.834-4.116,61.805-4.7,68.776a1.344,1.344,0,0,1-1.338,1.235,1.125,1.125,0,0,1-.116,0,1.346,1.346,0,0,1-1.228-1.453c1.447-17.313,3.452-45.228,4.884-73.935,2.276-45.66,3.1-93.318-2.093-103.54a5.373,5.373,0,0,0-.945-1.386c-.36-.36-.571-.347-.681-.335a3.616,3.616,0,0,0-3.02,2.555c-.791.138-1.37.234-1.65.271-.33.044-.769.088-1.254.134C166.837,161.334,168.379,158.072,172.119,157.72Z" style="fill:#323529"/><path d="M163.89,337.659a1.344,1.344,0,0,1-1.338,1.354h-.008a1.348,1.348,0,0,1-1.347-1.339c0-.58-.277-48.143-.144-71.153.947-1.593,1.866-3.151,2.73-4.63C163.571,282.2,163.886,337.037,163.89,337.659Z" style="fill:#4f5342"/><path d="M338.141,265c-9.615-2.945-17.61-10.026-23.076-18.466s-8.6-18.193-10.7-28.025a33.751,33.751,0,0,0-2.066-7.249c-1.324,3.834-2.8,7.889-6.011,10.372a3.794,3.794,0,0,0-1.393,1.453,3.134,3.134,0,0,0,.1,1.94c1.406,5.07,3.476,9.936,4.872,15.009s2.1,10.5.72,15.575" style="fill:none"/><path d="M299.867,240.037c-1.4-5.073-3.466-9.939-4.872-15.009a3.127,3.127,0,0,1-.1-1.94,3.784,3.784,0,0,1,1.392-1.453c3.208-2.483,4.687-6.539,6.011-10.372a33.751,33.751,0,0,1,2.066,7.249c2.107,9.832,5.238,19.584,10.7,28.025a45.819,45.819,0,0,0,17.781,16.308c-4.141,12.536-8.371,26.628-10.325,37.981,0,0-20.4-38.78-21.107-49.889l-.148.494A34.576,34.576,0,0,0,299.867,240.037Z" style="fill:#d0a16c"/><rect x="207.997" y="306.408" width="4.62" height="13.179" transform="translate(420.615 625.995) rotate(-180)" style="fill:#4c3222"/><rect x="271.584" y="308.123" width="4.62" height="13.179" transform="translate(547.788 629.425) rotate(-180)" style="fill:#4c3222"/><rect x="242.46" y="310.85" width="8.256" height="7.726" transform="translate(493.177 629.425) rotate(-180)" style="fill:none;stroke:#4c3222;stroke-linecap:round;stroke-linejoin:round"/><path d="M247.318,346.743a.674.674,0,0,0,.674-.658,179.673,179.673,0,0,0-.937-22.815.674.674,0,0,0-1.341.142,177.328,177.328,0,0,1,.931,22.642.676.676,0,0,0,.658.689Z" style="fill:#4c3222"/><path d="M248.063,385.355a.212.212,0,0,0,.034,0,.673.673,0,0,0,.639-.7l-1.715-34.811a.619.619,0,0,0-.707-.639.672.672,0,0,0-.639.7l1.714,34.812A.676.676,0,0,0,248.063,385.355Z" style="fill:#4c3222"/><path d="M288.2,380.9c-1.66-6.613-4.405-13.017-7.062-19.21-1.822-4.252-3.708-8.648-5.239-13.1-.576-1.676-1.2-3.281-1.812-4.876-.836-2.167-1.7-4.407-2.427-6.767-.334-1.09-.721-2.109-1.123-3.166a44.171,44.171,0,0,1-2.272-7.493.673.673,0,0,1,1.278-.4,74.985,74.985,0,0,0,5.131,9.347,82.273,82.273,0,0,1,4.865,8.71l-.613.28.613-.28a90.77,90.77,0,0,1,3.766,10.415c2.68,8.482,5.45,17.254,6.218,26.317a.672.672,0,0,1-.561.72.577.577,0,0,1-.11.01A.672.672,0,0,1,288.2,380.9Zm-16.4-47.594c.41,1.083.807,2.129,1.152,3.246.712,2.316,1.567,4.534,2.4,6.679.621,1.611,1.247,3.23,1.828,4.922,1.515,4.4,3.39,8.776,5.2,13,1.554,3.628,3.14,7.328,4.529,11.109a180.757,180.757,0,0,0-4.884-17.5,89.691,89.691,0,0,0-3.708-10.26,81.351,81.351,0,0,0-4.787-8.567c-.652-1.064-1.312-2.142-1.957-3.236C271.643,332.91,271.719,333.109,271.8,333.309Z" style="fill:#4c3222"/><path d="M293.84,497.726h.013a.674.674,0,0,0,.66-.687c-.042-2.17-1.02-53.228-1.822-59.057-.8-5.764-3.143-50.743-3.167-51.2a.656.656,0,0,0-.707-.636.674.674,0,0,0-.639.707c.1,1.854,2.372,45.49,3.177,51.31.794,5.75,1.8,58.368,1.812,58.9A.675.675,0,0,0,293.84,497.726Z" style="fill:#4c3222"/><path d="M201.983,385.347a.677.677,0,0,1-.566-.728s3.03-33.006,3.312-36.035c.284-3.076,7.492-24.007,7.8-24.9a.684.684,0,0,1,.779-.439.675.675,0,0,1,.528.721c-.063.683-1.544,16.776-2.146,20.1-.6,3.307-8.6,39.23-8.944,40.756a.676.676,0,0,1-.658.528A.777.777,0,0,1,201.983,385.347Zm4.087-36.64c-.176,1.9-1.431,15.56-2.343,25.5,2.514-11.333,6.243-28.215,6.638-30.379.365-2.02,1.088-9.117,1.588-14.28C209.376,337.2,206.241,346.858,206.07,348.707Z" style="fill:#4c3222"/><path d="M195.413,501.563a.674.674,0,0,0,.673-.655c.006-.22.621-22.068,1.071-31.5s5.552-80.015,5.6-80.726a.674.674,0,0,0-.624-.721.665.665,0,0,0-.718.623c-.052.713-5.157,71.316-5.607,80.76s-1.065,31.3-1.07,31.522a.673.673,0,0,0,.655.692Z" style="fill:#4c3222"/><path d="M185.78,369.063a.672.672,0,0,0,.541-1.072c-.4-.545-9.844-13.377-11.477-15.017a.672.672,0,1,0-.952.95c1.56,1.568,11.249,14.732,11.346,14.864A.669.669,0,0,0,185.78,369.063Z" style="fill:#e5806a"/><path d="M185.78,382.8a.673.673,0,0,0,.515-1.105c-.134-.163-13.557-16.244-15.225-19.281a.672.672,0,1,0-1.178.647c1.728,3.152,14.815,18.832,15.372,19.5A.671.671,0,0,0,185.78,382.8Z" style="fill:#e5806a"/><path d="M178.129,384.212a.674.674,0,0,0,.431-1.192c-.063-.051-6.285-5.224-8.258-7.214a32.711,32.711,0,0,1-3.748-4.843.672.672,0,1,0-1.141.71,33.123,33.123,0,0,0,3.932,5.083c2.02,2.034,8.095,7.086,8.353,7.3A.673.673,0,0,0,178.129,384.212Z" style="fill:#e5806a"/><path d="M240.031,292.379a386.784,386.784,0,0,0,39.524-2.061c3.044-.315,6.1-.7,9.1-1.295-.023.025-.042.066-.065.088-1.212,1.212.606,5.656-1.717,7.676s-4.746,4.039-4.746,4.039-21.916,4.04-36.862,3.939S193.05,298.2,193.05,298.2s-5.133-8.769-10.518-19.235a70.268,70.268,0,0,0,25.493,10.7C218.508,291.944,229.3,292.389,240.031,292.379Z" style="fill:#d0a16c"/><path d="M162.517,232.346c2.444-6.331,3.791-13.059,5.927-19.486a2.629,2.629,0,0,1,5,0,23.911,23.911,0,0,1,1.152,7.164c-.038,6.12-3,11.8-4.429,17.747a36.267,36.267,0,0,0-.547,13.97c-4.11,7.279-20.314,35.637-25.851,40.252a150.977,150.977,0,0,0-14.44-18.117c.4-.36.8-.715,1.194-1.076C143.331,261.089,156.268,248.536,162.517,232.346Z" style="fill:#d0a16c"/><path d="M262.912,203.669a33.163,33.163,0,0,1,9.467-3.7c3.809-1.031,7.1-1.921,8.487-4.7,2.07-4.142-3.061-26.455-5.215-34.7a.675.675,0,0,1,.481-.82.665.665,0,0,1,.824.481c.32,1.231,7.834,30.2,5.115,35.644-1.66,3.32-5.218,4.283-9.339,5.4a32.114,32.114,0,0,0-9.1,3.536c-7.582,4.818-14.509,8.687-14.578,8.725a.673.673,0,1,1-.657-1.175C248.468,212.317,255.361,208.466,262.912,203.669Z" style="fill:#c68f5d"/><path d="M186.529,176.868l.045-.518c.3-3.662,3.782-15.635,3.929-16.142a.674.674,0,1,1,1.294.376c-.037.123-3.587,12.35-3.882,15.878l-.045.521c-.315,3.692-1.272,14.928.745,17.356,1.354,1.632,7.143,2.273,13.844,3.016,3.493.388,7.451.827,11.369,1.471,10.965,1.8,32.7,13.807,33.346,15.7a29.9,29.9,0,0,1,.639,5.226c0,.064-.047.108-.06.168.01.05.053.085.052.138-.04,1.269-.326,4.625-.686,8.874-.742,8.688-1.86,21.818-1.507,25.479.228,2.388.552,4.213.836,5.824a20.656,20.656,0,0,1,.507,5.2c-.052.683-.215,1.787-.418,3.161-.586,3.979-1.567,10.637-.989,15.489a78.879,78.879,0,0,1,.384,12.85.671.671,0,0,1-.67.629.362.362,0,0,1-.045,0,.671.671,0,0,1-.626-.716,78.4,78.4,0,0,0-.379-12.6c-.6-5.031.4-11.8,1-15.845.2-1.335.355-2.407.407-3.071a19.57,19.57,0,0,0-.492-4.861c-.276-1.554-.618-3.489-.852-5.929-.365-3.782.716-16.464,1.5-25.723.36-4.229.647-7.568.683-8.8,0-.043.041-.068.05-.108-.007-.034-.04-.055-.042-.091a31.694,31.694,0,0,0-.52-4.76c-.892-1.2-20.811-13-32.339-14.9-3.879-.639-7.821-1.075-11.3-1.461-7.564-.839-13.029-1.444-14.731-3.494C185.477,192.671,185.914,184.075,186.529,176.868Z" style="fill:#c68f5d"/><path d="M290.174,196.947a.675.675,0,0,1,.734.608c1.081,11.514,4.484,22.853,7.774,33.817l.889,2.972c1.257,4.2,2.819,9.434,2.785,14.629a.674.674,0,0,1-.673.67.652.652,0,0,1-.674-.678c.029-4.627-1.165-9-2.727-14.236l-.891-2.97c-3.309-11.028-6.731-22.431-7.825-34.078A.675.675,0,0,1,290.174,196.947Z" style="fill:#c68f5d"/><path d="M329.55,249.512a105.923,105.923,0,0,1,8.171-21.736.673.673,0,1,1,1.2.61,104.633,104.633,0,0,0-8.066,21.459c-1.643,6.455-2.687,13.166-3.695,19.656-.636,4.1-1.3,8.335-2.1,12.478a.673.673,0,0,1-.66.545.729.729,0,0,1-.129-.012.672.672,0,0,1-.531-.79c.8-4.118,1.454-8.343,2.09-12.427C326.841,262.773,327.89,256.029,329.55,249.512Z" style="fill:#c68f5d"/><path d="M322.473,243.9a.671.671,0,0,1,.641.7c-.768,15.776-1.133,31.769-1.086,47.536a.675.675,0,0,1-.671.676h0a.672.672,0,0,1-.673-.671c-.048-15.79.318-31.807,1.086-47.606A.647.647,0,0,1,322.473,243.9Z" style="fill:#c68f5d"/><path d="M304.163,183.017c.52-3.65,1.041-7.3,1.494-10.931a.658.658,0,0,1,.752-.585.672.672,0,0,1,.584.751c-.455,3.643-.976,7.3-1.5,10.956-2.209,15.467-4.489,31.461-1.475,46.846a.672.672,0,0,1-.532.789.558.558,0,0,1-.128.014.675.675,0,0,1-.661-.545C299.642,214.7,301.94,198.6,304.163,183.017Z" style="fill:#c68f5d"/><path d="M265.357,280.7a.676.676,0,0,1-.407-.137c-9.1-6.9-15.37-12.471-21.432-17.863-4.292-3.817-8.347-7.423-13.289-11.418-12.319-9.954-25.753-22.381-31.991-39.08a.674.674,0,1,1,1.262-.471c6.125,16.4,19.4,28.665,31.576,38.5,4.968,4.014,9.034,7.631,13.336,11.458,6.041,5.373,12.29,10.931,21.353,17.8a.674.674,0,0,1-.408,1.21Z" style="fill:#c68f5d"/><path d="M254.459,293.044a66.025,66.025,0,0,0,27.949-8.062.673.673,0,0,1,.652,1.178,67.384,67.384,0,0,1-28.522,8.228h-.04a.673.673,0,0,1-.039-1.345Z" style="fill:#c68f5d"/><path d="M195,271.308c5.341,4.711,12.113,7.8,18.089,10.519,10.785,4.913,24.209,11.027,37.892,13.791a.674.674,0,0,1-.268,1.321c-.98-.2-1.952-.448-2.927-.678a.658.658,0,0,1,.129.4.672.672,0,0,1-.671.62.47.47,0,0,1-.052,0c-16.335-1.289-33.228-2.622-48.876-8.657a.673.673,0,1,1,.484-1.257c15.019,5.793,31.288,7.208,47.091,8.459-12.124-3.105-23.777-8.4-33.36-12.77-6.062-2.761-12.929-5.891-18.42-10.734a.673.673,0,1,1,.889-1.01Z" style="fill:#c68f5d"/><path d="M172.088,205.764a69.3,69.3,0,0,0-3.124-10.846c-2.325-5.735-5.952-10.709-10.107-16.155a.675.675,0,0,1,1.073-.818c4.213,5.525,7.895,10.577,10.28,16.468a70.214,70.214,0,0,1,3.193,11.054c.234,1.039.407,2.071.606,3.113-.512-14.469-3.03-31.871-8.938-38.7a.674.674,0,0,1,1.021-.881c10.17,11.76,10.667,51.779,8.082,60.618a65.556,65.556,0,0,0-2.467,17.37.675.675,0,0,1-.661.686h-.013a.674.674,0,0,1-.673-.66,67.083,67.083,0,0,1,2.52-17.774c.684-2.339,1.132-7.093,1.218-12.976-.279-1.4-.532-2.8-.782-4.2C172.945,209.994,172.561,207.856,172.088,205.764Z" style="fill:#c68f5d"/><path d="M145.48,281.006c6.646-9.745,13.179-71.18,13.242-71.8a.675.675,0,0,1,1.342.142c-.269,2.542-6.636,62.393-13.468,72.415a.675.675,0,0,1-1.116-.758Z" style="fill:#c68f5d"/><path d="M362.025,185.7a18.347,18.347,0,0,0,3.022-.244.673.673,0,1,0-.221-1.328c-6.959,1.156-13.939-2.614-14.008-2.652a.673.673,0,0,0-.646,1.181A27.34,27.34,0,0,0,362.025,185.7Z" style="fill:#e5806a"/><path d="M360.718,176.574a.805.805,0,0,0,.1-.007.672.672,0,0,0,.568-.764c-.084-.572-2.156-14.039-11.2-16.757a.673.673,0,0,0-.39,1.289c8.232,2.475,10.236,15.531,10.257,15.663A.673.673,0,0,0,360.718,176.574Z" style="fill:#e5806a"/><path d="M362.614,172.483a.676.676,0,0,0,.663-.55c.01-.06,1.178-6.1,5.107-9.888a.674.674,0,0,0-.936-.971c-4.245,4.092-5.447,10.349-5.5,10.613a.675.675,0,0,0,.539.784A.667.667,0,0,0,362.614,172.483Z" style="fill:#e5806a"/><path d="M378.5,152.687a.672.672,0,0,0,.553-1.054c-.182-.263-4.695-6.478-23.562-10.351a.674.674,0,1,0-.269,1.32c18.226,3.74,22.684,9.742,22.729,9.8A.671.671,0,0,0,378.5,152.687Z" style="fill:#e5806a"/></g></svg>