<svg xmlns="http://www.w3.org/2000/svg" viewBox="0 0 512 512"><g id="OBJECTS"><path d="M177.538,415.79s1.256,18.293.9,21.879,3.452,18.293,3.721,21.924,1.749,36.182,2.825,42.5c0,0,8.743,8.474,27.3,3.9s20.176-6.456,20.176-6.456.269-7.8,1.748-12.912.135-9.685,0-11.568,2.152-7.263,2.421-10.357,2.959-17.888,3.363-20.713,3.5-26.542,3.5-28.2,3.632-1.793,4.17-.852,1.763,10.088,3.362,11.567.374,5.381,1.6,10.088S271.6,498.6,272.677,499s17.62,3.766,30.129.672,21.386-7.935,21.924-9.549-3.5-21.521-3.631-24.345a35.951,35.951,0,0,0-2.959-11.433c-1.48-2.825-2.825-19.5-3.094-25.421s-2.825-25.422-2.825-25.422l-10.76-41.83s-38.871,12.643-62.948,10.357-59.047-3.9-59.047-3.9Z" style="fill:#377e5c"/><path d="M238.244,395.066a27.859,27.859,0,0,1,31.2,22.583q.4,2.225.8,4.449c.213,1.185.526,2.519,1.571,3.117a3.893,3.893,0,0,0,2.392.263c11.73-1.366,21.256-9.751,29.952-17.74A29.986,29.986,0,0,1,312,402.653l-10.541-40.978s-38.871,12.643-62.947,10.357-59.048-3.9-59.048-3.9l-1.055,26.1a307.63,307.63,0,0,0,31.228,2.335A192.83,192.83,0,0,0,238.244,395.066Z" style="fill:#2d664a"/><path d="M242.741,412.537a1.862,1.862,0,0,0-1.088-.412,2.066,2.066,0,0,0-1.161.606,35.945,35.945,0,0,0-6.051,5.956c-2.379,3.228-3.6,7.134-5.02,10.884-3.327,8.789-7.915,17.037-12.486,25.248l-4.173,7.5a20.317,20.317,0,0,1,5.892.665,6.856,6.856,0,0,1,4.405,3.711c1.021,2.556-.156,5.4-1.255,7.928a166.488,166.488,0,0,0-10.119,31.5c.2-.048.394-.076.6-.127,18.561-4.573,20.175-6.456,20.175-6.456s.269-7.8,1.749-12.912.135-9.685,0-11.568,2.152-7.263,2.421-10.357,2.959-17.888,3.363-20.713,3.5-26.542,3.5-28.2c0-.656.573-1.065,1.292-1.272A9.268,9.268,0,0,0,242.741,412.537Z" style="fill:#377e5c"/><path d="M199.917,417.794a2.17,2.17,0,0,0-.4-1.181,2.1,2.1,0,0,0-1.163-.547c-4.234-.961-8.621-.963-12.933-1.476a63.3,63.3,0,0,1-7.774-1.46l-.108,2.66s.936,13.647.959,19.672c6.317,4.18,12.291,7.587,23.479,4Q201.328,428.6,199.917,417.794Z" style="fill:#2d664a"/><path d="M255.308,427.714c-2.167-2.422-4.377-4.707-6.36-7.177.572,2.584,1.277,5.23,2.075,5.968,1.6,1.48.374,5.381,1.6,10.088S271.6,498.6,272.678,499a80.915,80.915,0,0,0,24.652,1.611c-13.3-14.525-23.13-32.325-30.48-50.717C263.738,442.113,260.9,433.962,255.308,427.714Z" style="fill:#2d664a"/><path d="M204.473,442.936l.618,4.671a14.1,14.1,0,0,0,.265,1.557c.226.915.941,1.949,1.858,1.731a.966.966,0,0,0,.436-.231,1.8,1.8,0,0,0,.344-.509,4.914,4.914,0,0,0,.67-1.882,1.669,1.669,0,0,0-.876-1.67,2.473,2.473,0,0,1-.638-.267,1.288,1.288,0,0,1-.267-1.147c.53-6.242-1.493-12.3-1.981-18.476-.09-1.13.028-6.636-2.015-3.353-1.278,2.053-.015,6.415.233,8.7C203.514,435.7,203.994,439.316,204.473,442.936Z" style="fill:#242d3b"/><path d="M288.152,442.885a3.9,3.9,0,0,1,0,1.284c-.125.547-.476,1.007-.636,1.542a2.3,2.3,0,0,0,1.7,2.84,1.074,1.074,0,0,0,.728-.117c.546-.342.5-1.181.39-1.845-.262-1.656-.424-3.327-.586-5l-1.023-10.549c-.319-3.291-.053-7.576-1.043-10.7-.661-2.086-2.784-.878-2.893.977-.088,1.5.69,3.5.962,4.991q.48,2.631.9,5.276Q287.539,437.211,288.152,442.885Z" style="fill:#242d3b"/><path d="M307.139,431.051c-.264-2.343-.277-4.706-.372-7.063a101.52,101.52,0,0,0-2.083-16.678c-.168.146-.347.277-.511.428-1.481,1.36-2.987,2.73-4.522,4.076a39.535,39.535,0,0,1,2.05,12.861c-.019,2.408-.259,4.82-.052,7.219a38.709,38.709,0,0,0,.9,5.093q4.175,18.709,8.35,37.42c.637,2.856,1.276,5.717,2.174,8.5.613,1.9,1.347,3.763,1.781,5.711a42.087,42.087,0,0,1,.724,6.9c1.767-.732,3.314-1.453,4.615-2.13q-5.958-27.993-11.917-55.984C307.829,435.3,307.38,433.191,307.139,431.051Z" style="fill:#eeeff4"/><path d="M324.306,490.715,318.849,469.3c-.756-2.967-1.512-5.936-2.086-8.943-.59-3.091-.986-6.215-1.381-9.336q-.805-6.355-1.61-12.709c-.441-3.481-.882-6.964-1.141-10.463-.579-7.812-.283-15.858-2.953-23.222a12.083,12.083,0,0,1-2.308.628q-.4.27-.8.556,1.11,5.658,1.728,11.4c.337,3.19.557,6.392.963,9.574.4,3.111.97,6.2,1.542,9.28q1.19,6.4,2.378,12.8c.861,4.639,1.723,9.278,2.655,13.9q2.962,14.7,6.884,29.178A9.637,9.637,0,0,0,324.306,490.715Z" style="fill:#eeeff4"/><path d="M188.576,464.548c-1.055-7.681-3.288-15.231-3.4-22.983-.011-.765.011-1.53.036-2.3a31.667,31.667,0,0,1-3.783-1.96,82.135,82.135,0,0,0,.9,13.329c.815,4.83,2.35,9.522,3.049,14.369a109.159,109.159,0,0,1,.719,11.736c.329,9.264,1.344,18.486,2.459,27.691a24.486,24.486,0,0,0,3.386,1.4q-1.247-16.158-2.494-32.317C189.216,470.524,188.985,467.526,188.576,464.548Z" style="fill:#eeeff4"/><path d="M195.591,469.137q-.407-7.561-.8-15.125c-.217-4.355-.407-8.712-.6-13.068a20.359,20.359,0,0,1-4.514-.3c.465,8.6,1.133,17.191,2.1,25.751.492,4.373,1.059,8.737,1.626,13.1q1.788,13.753,3.575,27.508c.675.1,1.382.171,2.116.227-1.786-8.032-2.3-16.316-2.764-24.546Q195.952,475.91,195.591,469.137Z" style="fill:#eeeff4"/><path d="M188.858,416.2c.126,8.15.384,16.3.823,24.44a20.359,20.359,0,0,0,4.514.3q-.522-11.793-1-23.589Z" style="fill:#c8cfe1"/><path d="M185.085,416.055l-4.8.095c1.38,6.94,1.116,14.064,1.148,21.16a31.667,31.667,0,0,0,3.783,1.96c.1-3.07.415-6.136.554-9.207A74.666,74.666,0,0,0,185.085,416.055Z" style="fill:#c8cfe1"/><path d="M373.475,103.966s-.189-.471-1.736-.673-7.868,2.758-13.248-1.95-13.652-10.626-15.065-11.1-8.473-.941-7.8-3.9,4.506-3.766,7.734-2.959,13.114,5.918,13.114,5.918,2.488-1.278,4.17-.874c0,0-.471-4.506-.807-6.12,0,0-7.734-9.214-8.743-12.576,0,0-14.459-20.31-14.123-22.933s4.842-2.421,6.389-.807S356.877,65.969,358.625,66.1s3.833-1.345,3.228-2.488-14.93-26.7-15.333-28.515.874-4.372,3.43-3.5,16.88,28.515,18.9,28.716a1.65,1.65,0,0,0,2.018-1.614s-9.415-24.816-8.945-26.093,1.682-3.968,4.17-2.421,8.743,25.824,10.962,26.833,2.354-.2,2.556-.807-1.076-19.436,1.21-20.176a3.025,3.025,0,0,1,3.968,2.69c0,1.48.807,17.89,1.278,20.243s2.286,10.223,2.421,11.837,4.237,9.348,3.833,14.526-3.258,10.885-2.772,12.033l.418,2.426s-5.111,5.246-8.966,5.56S373.8,106.432,373.475,103.966Z" style="fill:#ffb0a1"/><path d="M152.879,391.131s2.78,7.174,2.242,11.3-1.614,5.918-1.614,8.34,1.345,14.078,0,16.23c0,0,2.69,3.743,2.488,5.357a3.155,3.155,0,0,1-.941,2.157s2.152,4.3,1.614,5.51-2.219.336-2.219.336,2.661,3.5,2.3,5.246-3.112,1.278-3.583.807-12.24-11.164-12.24-11.164v2.489s10.491,11.567,10.559,13.45.067,4.237-1.951,3.564S133.8,439.216,133.8,439.216s-1.95-1.009-1.95-2.825-1.614-18.09-1.614-18.09-2.152-2.018-1.749-3.968,4.237-12.24,4.506-15.064,2.22-13.182,2.22-13.182Z" style="fill:#ffb0a1"/><path d="M154.449,440.359s1.681.875,2.219-.336-1.614-5.51-1.614-5.51a3.155,3.155,0,0,0,.941-2.157c.2-1.614-2.488-5.357-2.488-5.357s.367.775-1.648,1.053c-2.925.4-4.808-4.775-4.808-6.456s-.6-7.2-1.681-8.474-2.287-2.892-2.287-2.892c.2,3.5-3.026,11.635-3.026,11.635.269,2.488.874,13.383.874,13.383s11.769,10.693,12.24,11.164,3.228.941,3.583-.807S154.449,440.359,154.449,440.359Z" style="fill:#ffa187"/><path d="M131,382.187a10.331,10.331,0,0,0,.513,3.515,8.7,8.7,0,0,0,2.82,3.494,24.492,24.492,0,0,0,9.2,4.408,54.542,54.542,0,0,0,10.161,1.452,1.739,1.739,0,0,0,2.21-1.944,49.744,49.744,0,0,0,.2-9.332c-3.97-1.5-8.233-2.027-12.347-3.072a22.549,22.549,0,0,1-9.631-4.593c-.877-.785-2.361-2.892-2.915-.725C130.694,377.439,130.961,380.088,131,382.187Z" style="fill:#377e5c"/><path d="M368.8,107.213a4.1,4.1,0,0,1,.4-1.8,3.416,3.416,0,0,1,2.883-1.5c1.13-.059,2.254.192,3.385.224a17.567,17.567,0,0,0,4.651-.707,25.384,25.384,0,0,0,4.816-1.527,8.5,8.5,0,0,0,3.792-3.237,7.236,7.236,0,0,1,.818-1.3,1.4,1.4,0,0,1,1.375-.49,1.661,1.661,0,0,1,.687.488,8.554,8.554,0,0,1,1.917,4.924,37.57,37.57,0,0,0,.674,5.326c.434,1.619,1.28,3.261.863,4.885s-1.986,2.682-3.481,3.467a37.536,37.536,0,0,1-5.754,2.436,16.132,16.132,0,0,1-6.124.988,22.44,22.44,0,0,1-4.772-1.089c-1.171-.348-3.111-.381-3.906-1.293-.966-1.107-1.434-3.254-1.759-4.647A18.6,18.6,0,0,1,368.8,107.213Z" style="fill:#377e5c"/><path d="M215.01,141.471s11.32,11.217,24.191,9.773,24.665-10.435,24.665-10.435h3.3s15.468,12.789,14.93,29.467S277.788,360.2,277.788,360.2c-.086,4.745-.164,9.127-.25,13.872a2.069,2.069,0,0,1-1.936,2.426c-1.479.43-2.959.86-4.443,1.274-22.379,6.245-46.312,8.77-68.85,3.125a167.112,167.112,0,0,1,.576-39.406c1.077-7.383,2.642-14.689,3.7-22.075,2.653-18.551,2.074-37.394,1.49-56.124l-1.042-33.393c-.352-11.305.366-22.541-.587-33.811-.5-5.935-1.212-11.678-2.281-17.537-.974-5.334-2.216-10.748-1.505-16.123C203.749,154.181,209.748,147.907,215.01,141.471Z" style="fill:#eeeff4"/><path d="M203.218,365.009c8.178-.968,16.546-1.743,24.581.06,2.884.647,5.693,1.62,8.6,2.118a52.716,52.716,0,0,0,8.257.541c6.356.075,12.784.095,18.974-1.351,4.857-1.135,9.474-3.144,14.126-4.991.007-.4.014-.787.021-1.191,0,0,3.766-173.241,4.3-189.919s-14.929-29.467-14.929-29.467h-3.3a61.6,61.6,0,0,1-7.8,4.829,105.775,105.775,0,0,1,3.978,26.529c.09,11.237-2.16,22.34-3.986,33.428a448.7,448.7,0,0,0-5.5,93.08c.361,7.98.933,16.006-.06,23.933s-3.689,15.871-9.08,21.766c-8.99,9.831-23.4,12.147-36.669,13.295-1.052.092-2.173.072-3.234.205q-.1,3.625-.053,7.255A16.21,16.21,0,0,0,203.218,365.009Z" style="fill:#c8cfe1"/><path d="M188.478,147.68s-25.959,9.146-28.649,13.45-2.421,5.38-3.9,6.321-9.012,6.188-10.088,14.527.673,45.955-.672,56.267-5.649,35.061-4.3,38.827.807,9.953.358,11.388-5.559,13.271-4.931,16.947,1.165,7.443.9,9.685-12.015,30.565-9.325,58.727c0,0,1.778,9.845,17.844,11.842,12.264,1.525,13.63-2.869,13.63-2.869s-.269,26.811,4.752,30.936,33.357,13.091,39.723,10.939,7.8-1.524,6.726-6.546-4.663-36.315-4.753-41.068,2.6-46.987,4.215-57.209.1-50.1-.18-67.072-2.331-42.862-2.331-42.862Z" style="fill:#3a4557"/><path d="M289.221,133.626s13.585,2.89,18.427,1.948,8.608,5.649,11.837,6.86,21.789,11.311,25.152,10.968,6.859,1.944,8.07,2.751,13.181,9.55,17.889,9.684a19.828,19.828,0,0,0,7.8-1.21,4.356,4.356,0,0,1,0-3.9s-4.035-.134-4.707-5.649S367.1,121.855,367.5,119.3s1.951-4.371,4.439-3.968,6.658,2.376,12.576-.056,9.819-4.853,9.55-6.2a21.2,21.2,0,0,1-.336-2.735s.762-1.166,3.228-.448,6.546,6.725,7.263,10.76S417.045,157.005,417.4,159.6s7.891,25.018,8.877,29.233.987,11.388,0,12.733,1.7,8.339-.986,11.208-9.953,6.008-12.464,7.443-19.1,1.524-40.082-1.345-38.737-8.339-43.4-11.657c0,0-6.77,2.152-8.249-.135,0,0-7.264,8.429-7.981,11.657s2.69,18.965,1.973,25.959.9,38.02,2.242,47.166,1.479,48.691,1.479,48.691,7.667,47.211,7.936,54.743,0,8.608,0,8.608-22.059,7.936-27.035,11.029-17.889,12.038-24.749,3.161a70.579,70.579,0,0,1-1.816-8.541c-.269-2.892-6.12-49.363-6.523-60.661s-3.632-27.439-2.915-36.854,1.525-58.106,1.525-58.106-.214-10.4-.187-10.85,7.809-33.984,7.809-33.984Z" style="fill:#3a4557"/><path d="M188.433,147.679s-14.846,5.232-23.247,9.645a14.366,14.366,0,0,0,.76,4.711c1.443,4.211,4.424,7.684,7.287,11.091q3.577,4.257,7.043,8.606A428.941,428.941,0,0,1,208.265,221.3c-.449-6.7-.822-11.393-.822-11.393Z" style="fill:#303d4f"/><path d="M174.086,267.477s.359-38.378-1.614-41.427-5.088-42.491-5.088-42.491a4.119,4.119,0,0,0-3.473-3.23c1.155,5.222-1.5,10.447-2.32,15.732-.8,5.121.138,10.328.578,15.493,1.434,16.863-2.456,33.731-2.475,50.656-.018,16.427,8.29,35.36-2.35,47.876q-1.914,2.253-3.83,4.5a4.348,4.348,0,0,0-1.015,1.639,5.449,5.449,0,0,0,.4,2.78c.957,3.391.212,7-.484,10.452q-3.216,15.974-4.921,32.2c-.446,4.257-.844,8.632-2.734,12.472a23.375,23.375,0,0,1-8.443,8.929,29.712,29.712,0,0,0,9.343,2.6c12.264,1.525,13.63-2.869,13.63-2.869s.807-14.168,1.883-31.564S174.086,267.477,174.086,267.477Z" style="fill:#303d4f"/><path d="M402.791,208.415a39.525,39.525,0,0,1-8.155-8.5c-1.53-2.166-2.814-5.22-1.176-7.3.827-1.053,2.357-1.81,2.289-3.147-4-2.874-8.049-5.8-11.052-9.7s-4.856-8.974-3.8-13.779a13.679,13.679,0,0,1-3.183-1.121,21.057,21.057,0,0,1-7.163.977,9.809,9.809,0,0,1-3.112-.806,18.265,18.265,0,0,0-.205,4.853c.6,8.668,2.609,17.257,2.3,25.94a9.58,9.58,0,0,1-1.178,4.951,5.789,5.789,0,0,0-1.13,1.99c-.167.948.412,1.911.244,2.858-.339,1.9-3,2.057-4.892,1.68a166.774,166.774,0,0,1-17.89-4.767c-2.044-.648-4.192-1.393-5.562-3.042a11.719,11.719,0,0,0-1.607-1.943c-2.231-1.74-6.509-.059-7.709-2.62-1.261-2.689,3.26-5.85,1.605-8.316-1.105-1.646-3.645-.906-5.406,0l-4.132,2.137a2.552,2.552,0,0,1-3.731-.445q-2.069-1.982-4.139-3.961c-1.395,3.78-1.347,7.917-1.282,11.946l.318,19.589c.014.882.042,1.781.085,2.681.915-3.34,7.926-11.481,7.926-11.481,1.479,2.287,8.249.135,8.249.135,4.663,3.318,22.418,8.787,43.4,11.657s37.571,2.779,40.082,1.345,9.774-4.574,12.464-7.443c1.3-1.386,1.337-3.734,1.146-5.944a27.336,27.336,0,0,1-4.082,1.311C415.751,209.765,408.145,212.54,402.791,208.415Z" style="fill:#303d4f"/><path d="M281.852,213.683c6.1-9.321,12.425-19.026,14.753-30.091,2.312-10.983,7.663-20.968,8.532-32.465a53.472,53.472,0,0,0-1.043-15.384,110.231,110.231,0,0,1-14.918-2.117L272.812,209.1s-3.334,14.366-5.645,24.419c.628-.67,1.248-1.347,1.85-2.04A161.909,161.909,0,0,0,281.852,213.683Z" style="fill:#303d4f"/><path d="M250.484,110.252a141.888,141.888,0,0,0,.7,17.46,14.981,14.981,0,0,0,.906,3.952c1.081,2.553,3.382,4.361,5.688,5.9a18.823,18.823,0,0,1,4.692,3.8,16.413,16.413,0,0,1,2.465,5.928c1.686,6.276,4.218,12.861,5.06,19.292.884,6.749.717,13.849.556,20.639,0,0-4.2,33.494-4.738,42.909l-.807,13.585s19.1-47.749,22.462-57.433,17.889-30.263,12.509-41.562-6.322-11.7-9.55-14.392-10.545-10.571-14.688-15.44S250.484,110.252,250.484,110.252Z" style="fill:#377e5c"/><path d="M209.055,238.245s-1.255-60.437-2.69-65.1-2.008-17.038,6.456-29.771c0,0,10.083-3.968,10.691-7.8s-1.746-21.991-1.746-21.991a145.192,145.192,0,0,1-15.266,5.178c-6.255,1.547-16.006,10.088-16.41,14.325s-.2,6.59-2.286,7.129-11.03,6.926-10.94,11.41,10.94,27.349,13,32.191S209.324,234.479,209.055,238.245Z" style="fill:#377e5c"/><path d="M288.868,147.2a2.033,2.033,0,0,0-.251-1.022c-.393-.592-1.225-.626-1.924-.752a5.087,5.087,0,0,1-4.055-4.751c-.025-1.2.389-2.385.3-3.582a6.7,6.7,0,0,0-1.018-2.839c-4.057-6.913-12.645-9.338-19.588-13.343a5.68,5.68,0,0,1-2.478-2.251,5.18,5.18,0,0,1-.359-2.432,17.653,17.653,0,0,1,1.138-5.555c-5.445-.467-10.217-.42-10.217-.42a141.888,141.888,0,0,0,.705,17.46,14.981,14.981,0,0,0,.906,3.952c1.081,2.553,3.382,4.361,5.688,5.9a18.805,18.805,0,0,1,4.692,3.8,16.413,16.413,0,0,1,2.465,5.928c1.686,6.276,4.218,12.861,5.06,19.292.884,6.749.717,13.849.556,20.639,0,0-1.178,9.4-2.367,19.633A281.4,281.4,0,0,0,284.2,170.645C286.92,163.1,289.35,155.211,288.868,147.2Z" style="fill:#306e50"/><path d="M214.427,116.273a9.851,9.851,0,0,1,1.253,4.21,6.091,6.091,0,0,1-.316,2.47c-.852,2.257-3.317,3.386-5.537,4.331-4.813,2.049-9.87,4.6-12.276,9.244-.936,1.81-1.452,3.909-2.91,5.332-2.634,2.572-7.706,2.326-9.155,5.71-.709,1.654-.194,3.558.426,5.247a125.05,125.05,0,0,0,6.248,13.135,170.572,170.572,0,0,1,16.209,50.139c-.5-17.765-1.288-40.178-2.14-42.945-1.434-4.663-1.065-17.038,7.4-29.771,0,0,9.139-3.968,9.747-7.8s-1.746-21.991-1.746-21.991S218.377,114.892,214.427,116.273Z" style="fill:#306e50"/><path d="M250.484,110.252,221.3,112.11s1.345,18.756.807,21.447c-.005.022-.017.046-.022.069,14.73-1.094,24.437-7.274,29.955-12.265Z" style="fill:#ef8d7a"/><path d="M258.915,137.335s-3.32-.207-5.337-4.952l-1.541-11.022c-5.518,4.991-15.225,11.171-29.955,12.265-.578,2.676-3.764,5.852-6.031,6.252l-2.286,3.5a28.677,28.677,0,0,0,23.672,9.953,43.711,43.711,0,0,0,25.153-10.692S260.8,137.469,258.915,137.335Z" style="fill:#ffa187"/><path d="M212.24,149.293s11.493,12.648,25.937,10.581a73.62,73.62,0,0,0,24.413-7.89" style="fill:none;stroke:#c0c1c4;stroke-linecap:round;stroke-linejoin:round;stroke-width:0.5px"/><path d="M185.947,150.238c-.706-2.375.641-3.106.692-3.132a.614.614,0,0,0,.164-.119,12.034,12.034,0,0,1,4.617-2.452c.359-.13.718-.259,1.07-.394a12.005,12.005,0,0,0,3.488-1.929,61.965,61.965,0,0,0,10.614-3.7.6.6,0,1,0-.5-1.088,61.087,61.087,0,0,1-8.763,3.14,5.251,5.251,0,0,0,.465-.915,9.358,9.358,0,0,0,.367-2.629,4.553,4.553,0,0,1,3.145-4.925,131.941,131.941,0,0,1,19.119-8.658.6.6,0,1,0-.4-1.126,133.41,133.41,0,0,0-19.294,8.738,7.182,7.182,0,0,0-3.109,2.657,7.312,7.312,0,0,0-.653,3.263,8.357,8.357,0,0,1-.3,2.3c-.521,1.551-2.026,2.779-4.6,3.758-.347.13-.7.259-1.052.385a13.142,13.142,0,0,0-4.994,2.671c-.81.456-1.991,1.9-1.219,4.5.24.8,1.505,3.547,3.421,7.7,5.171,11.2,14.8,32.055,16.172,41.206a.6.6,0,0,0,.589.509.537.537,0,0,0,.09-.007.6.6,0,0,0,.5-.679c-1.4-9.32-11.072-30.273-16.268-41.531C187.551,153.967,186.162,150.962,185.947,150.238Z" style="fill:#23563e"/><path d="M220.9,124.6a48.838,48.838,0,0,0-8.512,7.125,24.847,24.847,0,0,0-5.545,10.776c-.016.07.025.128.033.195-.646.794-1.279,1.6-1.891,2.392a52.1,52.1,0,0,0-4.457,6.418.876.876,0,0,0,.056.943.743.743,0,0,0,.551.238.573.573,0,0,0,.172-.026.6.6,0,0,0,.39-.749.231.231,0,0,0-.01-.028,52.865,52.865,0,0,1,4.243-6.067,50.119,50.119,0,0,1,4.553-5.359,50.505,50.505,0,0,1,4.322-3.61c1.317-1.018,2.678-2.071,3.929-3.23a.6.6,0,0,0,.033-.845.606.606,0,0,0-.846-.033c-1.212,1.121-2.552,2.158-3.848,3.162a50.829,50.829,0,0,0-4.424,3.7c-.367.357-.685.755-1.032,1.13a23.615,23.615,0,0,1,4.668-8.219,48.01,48.01,0,0,1,8.311-6.943.6.6,0,1,0-.7-.971Z" style="fill:#23563e"/><path d="M293.264,152.286a.6.6,0,0,0-.825.182c-.065.1-2.065,3.255-4.894,8.237,1.271-5.2,3.164-13.263,3.034-14.694-.15-1.644-1.384-2.134-2.813-2.7a15.787,15.787,0,0,1-2.494-1.184c-.269-.163-.6-.415-.645-.684-.067-.4.456-1.032.919-1.59a7.118,7.118,0,0,0,1.035-1.512c.012-.037.044-.063.048-.1a2.244,2.244,0,0,0,.2-.848c.019-2.826-13.429-14.572-14.963-15.9-6.43-5.579-18.774-4.58-19.3-4.533a.6.6,0,0,0-.544.647.583.583,0,0,0,.647.544c.123-.007,12.363-1,18.41,4.243,6.667,5.783,12.438,11.563,14.072,13.995-2.574-2.323-6.042-3.5-8.928-4.463a76.681,76.681,0,0,0-13.692-3.647.627.627,0,0,0-.674.511.6.6,0,0,0,.511.675,75.452,75.452,0,0,1,13.477,3.6c3.155,1.053,7.038,2.37,9.436,5.178a10.383,10.383,0,0,1-.66.851c-.656.792-1.335,1.609-1.178,2.553a2.255,2.255,0,0,0,1.2,1.508,17.22,17.22,0,0,0,2.673,1.273c1.409.56,1.985.824,2.064,1.7.125,1.372-2.364,11.861-4.069,18.584-6.44,11.8-15.2,29.948-17.124,44.41a.6.6,0,0,0,.515.673c.026,0,.053,0,.08,0a.6.6,0,0,0,.592-.519c3.069-23.085,23.854-55.833,24.063-56.16A.6.6,0,0,0,293.264,152.286Z" style="fill:#23563e"/><path d="M278.521,146.952a.6.6,0,1,0,.932-.747c-3.636-4.535-8.939-7.51-13.618-10.132-3.636-2.036-7.4-4.143-11.627-4.927a.591.591,0,0,0-.7.478.6.6,0,0,0,.479.7c4.035.747,7.708,2.8,11.26,4.791C269.835,139.685,275.03,142.6,278.521,146.952Z" style="fill:#23563e"/><path d="M159.732,380.405a.6.6,0,0,1-.6-.6c-.136-26.123,6.235-71.111,6.3-71.562a237.529,237.529,0,0,1,6.5-34.432l.115-.432a28.136,28.136,0,0,0,1.385-8.647,27.847,27.847,0,0,0-.568-3.806l-.195-1.009c-1.405-7.514-1.2-15.271-1.007-22.774a151.237,151.237,0,0,0-.169-16.4c-.4-4.82-1.294-9.7-2.156-14.413-1.341-7.349-2.729-14.947-2.316-22.546a.6.6,0,1,1,1.193.066c-.405,7.458.971,14.987,2.3,22.265.866,4.745,1.762,9.649,2.17,14.529a151.679,151.679,0,0,1,.173,16.533c-.194,7.44-.394,15.134.986,22.525l.194,1a21.8,21.8,0,0,1-.834,12.993l-.115.432A235.875,235.875,0,0,0,166.62,308.4c-.067.467-6.426,45.369-6.29,71.406a.6.6,0,0,1-.594.6Z" style="fill:#242d3b"/><path d="M179.173,379.085a.6.6,0,0,1-.589-.506c-1.691-11.043,4.371-34.714,8.8-52,1.62-6.328,3.02-11.792,3.739-15.459,2.657-13.553,10.892-64.832,10.975-65.351a.6.6,0,1,1,1.181.192c-.082.516-8.322,51.817-10.984,65.388-.725,3.7-2.128,9.18-3.753,15.527-4.4,17.184-10.427,40.72-8.774,51.52a.6.6,0,0,1-.5.681A.549.549,0,0,1,179.173,379.085Z" style="fill:#242d3b"/><path d="M185.429,398.993a.6.6,0,0,1-.6-.568c-.537-10.361,11.343-66.115,11.849-68.482a.6.6,0,0,1,1.17.247c-.124.579-12.353,57.967-11.825,68.174a.6.6,0,0,1-.567.629Z" style="fill:#242d3b"/><path d="M189.276,415.331c-12.032,0-26.367-11.393-27-11.9a.6.6,0,0,1,.748-.934c.159.126,15.9,12.621,27.709,11.573,12.015-1.056,16.009-1.864,16.048-1.873a.6.6,0,0,1,.243,1.172c-.161.033-4.075.827-16.186,1.892C190.325,415.308,189.8,415.331,189.276,415.331Z" style="fill:#242d3b"/><path d="M150.421,322.274a.6.6,0,0,1-.416-.168,34.859,34.859,0,0,0-10.5-7,.6.6,0,0,1,.471-1.1,35.982,35.982,0,0,1,10.863,7.244.6.6,0,0,1-.415,1.027Z" style="fill:#242d3b"/><path d="M152.829,315.077a.6.6,0,0,1-.579-.448,99.907,99.907,0,0,0-4.355-12.344,82.891,82.891,0,0,1-5-15.134.6.6,0,0,1,.474-.7.587.587,0,0,1,.7.474A82.082,82.082,0,0,0,149,301.839a100.673,100.673,0,0,1,4.405,12.491.6.6,0,0,1-.431.728A.641.641,0,0,1,152.829,315.077Z" style="fill:#242d3b"/><path d="M160.089,328.31a.6.6,0,0,1-.593-.53c-1.645-14.564-3.347-29.623-2.126-44.533,1-12.168,3.945-24.187,6.8-35.809a.6.6,0,1,1,1.16.285c-2.839,11.577-5.776,23.547-6.766,35.622-1.211,14.793.485,29.794,2.124,44.3a.6.6,0,0,1-.527.661C160.135,328.308,160.113,328.31,160.089,328.31Z" style="fill:#242d3b"/><path d="M282.1,403.565a.6.6,0,0,1-.55-.362c-2.522-5.9-6.307-42.065-9.038-71.367l-.161-1.714c-.531-5.578-1.07-36.748.007-42.583,1.054-5.712,0-58.612-.009-59.147a.6.6,0,0,1,.586-.609.62.62,0,0,1,.609.586c.044,2.183,1.065,53.559-.009,59.385-1.065,5.772-.522,36.71.007,42.256l.16,1.714c3.849,41.3,7.027,66.517,8.948,71.007a.6.6,0,0,1-.315.785A.611.611,0,0,1,282.1,403.565Z" style="fill:#242d3b"/><path d="M290.233,365.957a.562.562,0,0,1-.058,0,.6.6,0,0,1-.538-.652c1.47-15.451,4.751-30.949,7.923-45.936,4.551-21.5,9.257-43.735,8.605-65.97a.6.6,0,0,1,1.195-.037c.657,22.382-4.065,44.685-8.63,66.254-3.166,14.954-6.439,30.418-7.9,45.8A.6.6,0,0,1,290.233,365.957Z" style="fill:#242d3b"/><path d="M291.225,373.477h-.006a1.782,1.782,0,0,1-1.663-1.264.6.6,0,0,1,1.149-.331.549.549,0,0,0,.2.277,92.338,92.338,0,0,0,3.728-10.108c2.075-6.41,4.124-12.876,6.091-19.218a.6.6,0,1,1,1.142.355c-1.968,6.346-4.02,12.817-6.1,19.232a89.459,89.459,0,0,1-4,10.716A.6.6,0,0,1,291.225,373.477Z" style="fill:#242d3b"/><path d="M312.179,394.441a.547.547,0,0,1-.138-.016.6.6,0,0,1-.444-.719,81.924,81.924,0,0,0,1.664-28.452.6.6,0,0,1,1.189-.14,83.153,83.153,0,0,1-1.69,28.867A.6.6,0,0,1,312.179,394.441Z" style="fill:#242d3b"/><path d="M301.013,401.729a3.149,3.149,0,0,1-2.018-.957,12.907,12.907,0,0,1-4.07-7.244.6.6,0,1,1,1.174-.219,11.711,11.711,0,0,0,3.693,6.571c.34.3.974.794,1.446.612a.6.6,0,1,1,.415,1.12A1.8,1.8,0,0,1,301.013,401.729Z" style="fill:#242d3b"/><path d="M278.73,413a.624.624,0,0,1-.637-.6.6.6,0,0,1,.6-.6h.039c7.544,0,15.568-2.928,23.851-8.7.418-.29.833-.586,1.247-.881a40.059,40.059,0,0,1,5.114-3.259c4.749-2.389,10.283-2.8,15.555-2.891h.01a.6.6,0,0,1,.011,1.195c-5.93.1-10.756.61-15.039,2.765a39.074,39.074,0,0,0-4.957,3.164c-.418.3-.836.6-1.256.887C294.777,410,286.523,413,278.73,413Z" style="fill:#242d3b"/><path d="M312.766,213.165a.6.6,0,0,1-.593-.532,137.282,137.282,0,0,1-.343-25.967c.21-2.58.5-5.191.777-7.718.422-3.815.857-7.759,1.031-11.647.338-7.543-.429-13.747-2.344-18.971a.6.6,0,0,1,1.123-.411c1.97,5.373,2.76,11.732,2.415,19.433-.176,3.928-.613,7.893-1.036,11.727-.278,2.517-.565,5.121-.775,7.685a136.112,136.112,0,0,0,.341,25.738.6.6,0,0,1-.53.661C312.811,213.165,312.788,213.165,312.766,213.165Z" style="fill:#242d3b"/><path d="M314.02,206.085a.554.554,0,0,1-.194-.033.6.6,0,0,1-.371-.759c4.213-12.273,9.025-24.507,14.3-36.362a.6.6,0,1,1,1.093.485c-5.265,11.825-10.064,24.026-14.266,36.265A.6.6,0,0,1,314.02,206.085Z" style="fill:#242d3b"/><path d="M321.954,206.033a.6.6,0,0,1-.439-1A175.439,175.439,0,0,1,336.1,191.007a.6.6,0,0,1,.778.911,173.17,173.17,0,0,0-14.488,13.924A.6.6,0,0,1,321.954,206.033Z" style="fill:#242d3b"/><path d="M385.231,205.018a.6.6,0,0,1-.549-.362,54.643,54.643,0,0,1-2.61-7.01,115.9,115.9,0,0,1-2.68-15.945c-.256-2.662-.329-4.98-.4-7.224-.062-1.953-.125-3.973-.308-6.238a.6.6,0,0,1,1.191-.1c.185,2.3.249,4.332.311,6.3.074,2.328.143,4.526.4,7.146a114.111,114.111,0,0,0,2.652,15.78,54.38,54.38,0,0,0,2.545,6.819.6.6,0,0,1-.313.785A.612.612,0,0,1,385.231,205.018Z" style="fill:#242d3b"/><path d="M405.95,210.888a.6.6,0,0,1-.3-.079A50.489,50.489,0,0,1,385,188.039l-1.3-2.861c-1.592-3.488-3.24-7.1-4.646-10.589a.6.6,0,0,1,1.11-.449c1.4,3.47,3.036,7.066,4.624,10.543l1.3,2.861a49.286,49.286,0,0,0,20.159,22.228.6.6,0,0,1-.3,1.116Z" style="fill:#242d3b"/><path d="M408.676,191.6a.6.6,0,0,1-.568-.924,25,25,0,0,0,3.208-8.661c3.132-15.1.476-31-2.187-43.173a.6.6,0,0,1,.456-.714.593.593,0,0,1,.711.456c2.69,12.288,5.368,28.355,2.191,43.676a26.123,26.123,0,0,1-3.381,9.076A.6.6,0,0,1,408.676,191.6Z" style="fill:#242d3b"/><path d="M380.818,93.578a.6.6,0,0,1-.29-.074c-9.938-5.493-18.479-4.6-18.562-4.591a.607.607,0,0,1-.662-.526.6.6,0,0,1,.527-.661c.364-.049,9.008-.943,19.276,4.731a.6.6,0,0,1-.289,1.121Z" style="fill:#ef8d7a"/><path d="M374.565,76.975a35.506,35.506,0,0,1-12.9-2.183.6.6,0,0,1-.316-.785.608.608,0,0,1,.783-.317c.093.042,9.494,3.916,22.136.955a.589.589,0,0,1,.718.446.6.6,0,0,1-.445.717A43.672,43.672,0,0,1,374.565,76.975Z" style="fill:#ef8d7a"/><path d="M380.369,89.991a.6.6,0,0,1-.489-.254c-5.13-7.3-16.746-12.117-16.863-12.164a.6.6,0,0,1,.453-1.107c.489.2,12.059,5,17.389,12.584a.6.6,0,0,1-.146.832A.59.59,0,0,1,380.369,89.991Z" style="fill:#ef8d7a"/><path d="M154.375,433.905l-2.8-3.811c.016-.358,0-1.015-.023-1.5.124.01.227.05.357.05a5.631,5.631,0,0,0,.943-.168.6.6,0,1,0-.334-1.149,4.456,4.456,0,0,1-.656.123c-2.378,0-3.353-2.358-3.937-4.411l-.088-.3c-.147-.472-.346-2.253-.523-3.825-.17-1.527-.332-2.968-.485-3.708-.285-1.382-1.588-3-2.738-4.423-.259-.322-.509-.63-.731-.92-.76-.985-1.071-5.665-1.087-8.383a.6.6,0,0,0-.6-.593h0a.6.6,0,0,0-.595.6c0,.759.082,7.477,1.336,9.1l.082.1a56.446,56.446,0,0,1-2.986,10.933.609.609,0,0,0-.044.282c.007.082.673,8.08.811,11.79a.6.6,0,0,0,.6.575h.022a.6.6,0,0,0,.576-.622c-.13-3.456-.712-10.585-.8-11.7a54.657,54.657,0,0,0,2.818-10.013,10.74,10.74,0,0,1,2.172,3.5c.141.684.307,2.167.468,3.6.038.339.071.622.105.92-.007-.014,0-.031-.01-.044a.3.3,0,0,0-.417-.068,15.594,15.594,0,0,1-3.847,1.107.3.3,0,0,0,.053.593.49.49,0,0,0,.054,0,16.123,16.123,0,0,0,4.088-1.21.294.294,0,0,0,.1-.165c.056.491.11.932.159,1.308a6.3,6.3,0,0,1-1.242,1.6.3.3,0,0,0-.113.3c.015.073,1.561,7.347,1.516,9.661a.3.3,0,0,0,.079.2c.042.047,4.24,4.643,6.191,6.686a.294.294,0,0,0,.216.093.3.3,0,0,0,.207-.082.3.3,0,0,0,.009-.422c-1.8-1.885-5.513-5.945-6.1-6.59a74.113,74.113,0,0,0-1.494-9.5,6.32,6.32,0,0,0,.869-1.024,5.817,5.817,0,0,0,.146.688l.079.273c.336,1.181,1.31,4.512,4.177,5.145.023.572.047,1.371.019,1.637a.3.3,0,0,0,.057.207l2.87,3.9a.3.3,0,0,0,.241.121.291.291,0,0,0,.177-.058A.3.3,0,0,0,154.375,433.905Z" style="fill:#e48970"/><path d="M186.251,100.932a2.49,2.49,0,0,0,1.187,2.414c4.9,2.958,21.377,9.3,49.282,5.955,21.476-2.577,30.272-3.585,33.685-3.965a2.377,2.377,0,0,0,2.109-2.251l2.046-39.433s-10.285-27.95-46.4-24.382C195.472,42.5,190.451,70,190.451,70S186.926,94.47,186.251,100.932Z" style="fill:#2c3044"/><path d="M272.514,100.469a2.376,2.376,0,0,1-2.109,2.251c-3.413.38-12.209,1.389-33.685,3.966-27.9,3.348-44.379-3-49.282-5.956a2.438,2.438,0,0,1-1.022-1.263c-.066.555-.122,1.049-.165,1.465a2.49,2.49,0,0,0,1.187,2.414c4.9,2.958,21.377,9.3,49.282,5.955,21.476-2.577,30.272-3.585,33.685-3.965a2.377,2.377,0,0,0,2.109-2.251l2.046-39.433s-.039-.107-.12-.3Z" style="fill:#252739"/><path d="M191.616,66.17s1.821,22.731,4.248,27.708a35.958,35.958,0,0,0,4.843,7.666V98.129a79.659,79.659,0,0,0,7.939,9.289l-.358-2.3s7.45,8.693,13.009,9.769l7.263,2.663,16.679-2.663s5.364-1.462,6.8-3.614c0,0,8.087-5.022,8.983-6.546a4.792,4.792,0,0,1-.9,2.78s7.591-8.25,8.951-12.733a5.737,5.737,0,0,1,0,3.354s6.113-12.59,4.768-25.144l-.359-12.195S271.526,16.981,228.7,19.9C187.268,22.726,191.616,66.17,191.616,66.17Z" style="fill:#fcdbca"/><path d="M232.057,46.264c-11.232.473-21.238,5.962-28.637,11.541L203.9,71a7.064,7.064,0,0,0-6.682,7.423L197.4,83.2c.087,2.389,3.335,8.151,7.439,9.01,2.185,16.3,24.905,30.483,31.086,30.257,5.934-.218,27.8-16.03,28.791-32.449,4.03-1.157,6.848-7.14,6.761-9.53l-.175-4.779a7.065,7.065,0,0,0-7.208-6.915l-.511-13.973C256.518,49.958,246.38,45.66,232.057,46.264Z" style="fill:#ffb0a1"/><path d="M269.07,78.183a4.709,4.709,0,0,0-4.805-4.609l.422,11.509A7.141,7.141,0,0,0,269.07,78.183Z" style="fill:#ef8d7a"/><path d="M199.623,80.726a7.14,7.14,0,0,0,4.876,6.56l-.421-11.509A4.709,4.709,0,0,0,199.623,80.726Z" style="fill:#ef8d7a"/><path d="M251.378,75.855c.129,3.514-.972,6.406-2.458,6.461s-2.8-2.75-2.924-6.264.972-6.406,2.458-6.461S251.249,72.341,251.378,75.855Z" style="fill:#361909"/><path d="M215.173,77.214c.128,3.514,1.438,6.318,2.924,6.264s2.587-2.947,2.458-6.461-1.438-6.318-2.924-6.264S215.044,73.7,215.173,77.214Z" style="fill:#361909"/><path d="M225.546,104.7c-.732-1.037-1.421-2.435-.92-3.628.479-1.14,1.757-1.413,2.855-1.547l10.539-1.286a5.968,5.968,0,0,1,2.415.036,4.152,4.152,0,0,1,2.552,4.474,7.232,7.232,0,0,1-1.129,2.726c-1.454,2.36-4.634,7.249-7.56,6.576C231.012,111.29,227.581,107.577,225.546,104.7Z" style="fill:#fff"/><path d="M224.582,65.375l-.361-1.329a2.377,2.377,0,0,0-1.92-1.733c-2.57-.409-7.794-1.115-10.87-.674a8.272,8.272,0,0,0-5.949,4.166Z" style="fill:#361909"/><path d="M238.723,64.857l.263-1.352a2.378,2.378,0,0,1,1.788-1.869c2.533-.6,7.692-1.681,10.791-1.466a8.271,8.271,0,0,1,6.238,3.72Z" style="fill:#361909"/><path d="M243.92,103.214a13.807,13.807,0,0,0,6.17,11c6.933-6.017,13.694-14.632,14.548-23.5a13.818,13.818,0,0,0-20.718,12.492Z" style="fill:#ff9a85"/><path d="M224.577,104.713a13.839,13.839,0,0,0-19.626-12.06c1.365,8.675,8.449,16.7,15.68,22.235A13.785,13.785,0,0,0,224.577,104.713Z" style="fill:#ff9a85"/><path d="M232.14,92.55c-2.165.079-3.94-.842-4.45-2.428-.525-1.631.235-15.943.324-17.568a.614.614,0,0,1,.629-.565.6.6,0,0,1,.565.629c-.33,6.059-.724,16.07-.38,17.14.413,1.284,2.31,1.9,4.41,1.451a.6.6,0,0,1,.256,1.168A7.666,7.666,0,0,1,232.14,92.55Z" style="fill:#ef8d7a"/><path d="M224.586,7.258C177.376,12.1,190.451,70,190.451,70a80.188,80.188,0,0,1,12.969-12.2,65.361,65.361,0,0,1,13.035-7.746v-10.7s1.479-10.85,11.052-11.388,14.5,5.739,14.952,10.222l.464,8.622a48.189,48.189,0,0,1,20.656,8.006,59.672,59.672,0,0,1,9.989,8.831h.992S279.616,1.613,224.586,7.258Z" style="fill:#3c3f58"/><path d="M229.689,39.136a40.845,40.845,0,0,0-13.234,3.3v7.62a43.577,43.577,0,0,1,15.6-3.795,57.968,57.968,0,0,1,10.866.551l-.328-6.1A37.6,37.6,0,0,0,229.689,39.136Z" style="fill:#2c3044"/><path d="M242.6,40.715c-.814-.25-1.814-.514-2.938-.759v1.449a2.387,2.387,0,0,1-2.37,2.391c-1.99.012-4.928.019-7.6-.021a20.991,20.991,0,0,0-6.589,1.191,2.38,2.38,0,0,1-3.148-2.243v-1.6c-1.3.438-2.493.894-3.5,1.32v7.62a43.577,43.577,0,0,1,15.6-3.795,57.968,57.968,0,0,1,10.866.551Z" style="fill:#141621"/></g></svg>