<svg xmlns="http://www.w3.org/2000/svg" viewBox="0 0 512 512"><g id="OBJECTS"><polygon points="274.171 145.531 258.725 162.225 243.005 145.531 243.005 115.018 274.171 115.018 274.171 145.531" style="fill:#ffa185"/><path d="M243.005,115.018V125.8c3.41,3.408,9.054,7.741,15.72,7.687,6.566-.053,11.847-3.249,15.446-6.352V115.018Z" style="fill:#e47e5f"/><path d="M217.133,82.917s-5.565-10-6.4-17.24-5.147-23.093-1.252-30.744,12.081-18.781,24.891-18.5c0,0,6.967-16,23.522-14.051s19.2,15.025,27.267,15.581,15.581-.278,16.972,7.791-2.226,14.19,1.113,17.668,7.652,5.286,7.652,13.494-8.347,10.851-8.347,15.442,1.391,9.46-3.339,14.607-13.077,12.42-13.077,12.42S241.9,108.226,217.133,82.917Z" style="fill:#1a1f34"/><path d="M236.1,39.338A23.262,23.262,0,0,1,239.9,50.7c8.261-4.2,3.351-10.967,3.351-10.967s-8.632-10.04-9.56-14.77a15.99,15.99,0,0,1,.685-8.532,20.985,20.985,0,0,0-10.086,2.347C222.121,28.411,232.523,33.967,236.1,39.338Z" style="fill:#0e1321"/><path d="M301.844,71.562a24.849,24.849,0,0,1-4.393-1.151,8.744,8.744,0,0,0-4.927-.054c-.835.27-1.6.71-2.411,1.052a10.988,10.988,0,0,1-5.219.824l-.131,27.388c.88-.142,1.379-.239,1.379-.239s8.347-7.272,13.077-12.42,3.339-10.016,3.339-14.607a3.848,3.848,0,0,1,.09-.805A4.408,4.408,0,0,1,301.844,71.562Z" style="fill:#0e1321"/><path d="M291.813,72.015c-3.748.356-12.042.618-14.407-14.2s-14.468-25.6-21.981-25.6-12.173,7.512-12.173,7.512c1.461,2.922,1.322,7.721-9.181,14.607a18.052,18.052,0,0,0-8.433,13.031v4.645A7.53,7.53,0,0,0,218,79.435v4.946c0,2.473,3.334,8.551,7.806,9.595,1.744,16.933,23.153,32.449,32.917,32.449s31.172-15.516,32.916-32.449c4.472-1.044,7.806-7.122,7.806-9.595V79.435A7.53,7.53,0,0,0,291.813,72.015ZM225.638,88.873a7.415,7.415,0,0,1-5.09-6.965,5.019,5.019,0,0,1,5.09-4.946Zm66.175,0V76.962a5.019,5.019,0,0,1,5.09,4.946A7.417,7.417,0,0,1,291.813,88.873Z" style="fill:#ffa185"/><path d="M225.638,72.015V67.37A16.345,16.345,0,0,0,225.638,72.015Z" style="fill:none"/><path d="M291.813,76.962V88.873a7.417,7.417,0,0,0,5.09-6.965A5.019,5.019,0,0,0,291.813,76.962Z" style="fill:#e47e5f"/><path d="M220.548,81.908a7.415,7.415,0,0,0,5.09,6.965V76.962A5.019,5.019,0,0,0,220.548,81.908Z" style="fill:#e47e5f"/><path d="M267.83,107.743a13.991,13.991,0,0,0,6.559,11.79c7.574-5.577,14.777-13.959,16.762-22.988a14.708,14.708,0,0,0-8.8-2.909A14.317,14.317,0,0,0,267.83,107.743Z" style="fill:#ff9474"/><path d="M247.781,107.743a14.317,14.317,0,0,0-14.517-14.107,14.768,14.768,0,0,0-7.222,1.881c1.581,9.072,8.539,17.6,16.079,23.385A13.936,13.936,0,0,0,247.781,107.743Z" style="fill:#ff9474"/><ellipse cx="272.084" cy="78.932" rx="2.581" ry="6.917" style="fill:#1a1f34"/><ellipse cx="239.53" cy="78.932" rx="2.581" ry="6.917" style="fill:#1a1f34"/><path d="M247.6,64.773s1.947-1.669,1.6-2.573-15.521-2.778-15.521-2.778-4.874,2.847-5.5,3.821S247.6,64.773,247.6,64.773Z" style="fill:#1a1f34"/><path d="M256.161,96.766c-1.646,0-2.833-.706-3.8-2.877-1.216-2.723.7-19.68.924-21.6a.635.635,0,0,1,.686-.544.62.62,0,0,1,.543.686c-.858,7.423-1.84,19.13-1.024,20.958.987,2.209,1.949,2.424,4.324,1.946a.618.618,0,0,1,.241,1.212A9.749,9.749,0,0,1,256.161,96.766Z" style="fill:#e47e5f"/><path d="M252.3,112.461a10.336,10.336,0,0,1-1.758-3.013,4.641,4.641,0,0,1,.036-3.331,2.375,2.375,0,0,1,.88-1.091,4.108,4.108,0,0,1,2.2-.392l9.795.07a4.544,4.544,0,0,1,1.349.145,2.46,2.46,0,0,1,1.485,1.407,3.756,3.756,0,0,1,.183,1.964,12.015,12.015,0,0,1-2.357,5.008,9.523,9.523,0,0,1-2.124,2.376C258.462,118.166,254.41,115.149,252.3,112.461Z" style="fill:#fff"/><path d="M252.25,102.509a.309.309,0,0,1,.031-.618,57.1,57.1,0,0,0,10.087-.351.309.309,0,1,1,.114.608A56.642,56.642,0,0,1,252.25,102.509Z" style="fill:#e47e5f"/><path d="M262.51,26.414c3.4.825,6.815,2.272,9.047,4.971a25.44,25.44,0,0,1,3.067,5.475,20.166,20.166,0,0,0,4.786,6.931c-5.609-3.2-8.847-9.645-14.581-12.616A22.174,22.174,0,0,0,254.5,29.13a24.323,24.323,0,0,0-8.078,1.2,22.343,22.343,0,0,0-4.7,2.421,19.134,19.134,0,0,0-4.068,3.011,4.054,4.054,0,0,1-.954-2.709c.225-1.876,2.21-2.866,3.706-3.629.513-.261,1.011-.552,1.522-.818s1.109-.437,1.627-.713a24.569,24.569,0,0,1,6.207-1.758,21.892,21.892,0,0,1,2.622-.47c.733-.071,1.472-.068,2.209-.066a33.828,33.828,0,0,1,7.5.719C262.225,26.346,262.367,26.379,262.51,26.414Z" style="fill:#0e1321"/><path d="M256.78,37.319c7.3,1.439,14.469,13.254,17.112,20.841,2,5.749,3.978,10.779,10.956,12.848-3.111-1.547-6.155-5.127-7.443-13.191-2.365-14.816-14.468-25.6-21.98-25.6s-12.173,7.512-12.173,7.512A20.655,20.655,0,0,1,256.78,37.319Z" style="fill:#e47e5f"/><path d="M265.035,64.773s8.31-.232,14.063-.657a27.085,27.085,0,0,1-1.337-4.542c-3.563.461-14.038,1.875-14.326,2.626C263.087,63.1,265.035,64.773,265.035,64.773Z" style="fill:#1a1f34"/><path d="M296.909,65.083a.284.284,0,0,1-.1-.017,8.013,8.013,0,0,0-4.036-.342,16.651,16.651,0,0,1-6.856-.556c-6.557-1.711-6.5-12.181-6.491-12.625a.31.31,0,0,1,.309-.306h0a.309.309,0,0,1,.305.313c0,.105-.06,10.431,6.03,12.019a15.965,15.965,0,0,0,6.635.54,8.576,8.576,0,0,1,4.3.372.309.309,0,0,1-.1.6Z" style="fill:#0e1321"/><path d="M284.021,28.72A16.687,16.687,0,0,1,273.7,25.225c-.825-.68-1.578-1.362-2.308-2.021-3.394-3.072-6.349-5.744-13.678-5.27h-.02a.31.31,0,0,1-.019-.619c7.615-.465,10.634,2.266,14.132,5.43.724.654,1.473,1.332,2.287,2,4.568,3.764,10.587,3.336,10.65,3.333a.309.309,0,1,1,.048.616C284.738,28.7,284.464,28.72,284.021,28.72Z" style="fill:#0e1321"/><path d="M294.759,45.961a.3.3,0,0,1-.151-.04,5.63,5.63,0,0,1-2.765-3.9,11.123,11.123,0,0,1,.336-4.183,8.58,8.58,0,0,0,.161-4.513c-.6-1.768-2.27-2.936-4.08-4.073a.309.309,0,1,1,.328-.524c1.908,1.2,3.676,2.439,4.339,4.4a9.167,9.167,0,0,1-.143,4.838,10.7,10.7,0,0,0-.332,3.95,5.009,5.009,0,0,0,2.458,3.472.309.309,0,0,1-.151.578Z" style="fill:#0e1321"/><path d="M304.291,56.388a.309.309,0,0,1-.306-.264,10.5,10.5,0,0,0-2.19-4.9,15.564,15.564,0,0,0-4.114-3.571A.309.309,0,1,1,298,47.13a16.186,16.186,0,0,1,4.276,3.716,11.112,11.112,0,0,1,2.317,5.187.309.309,0,0,1-.26.351A.253.253,0,0,1,304.291,56.388Z" style="fill:#0e1321"/><path d="M298.44,53.633a.31.31,0,0,1-.252-.13,8.172,8.172,0,0,0-2.586-2.066l-.107-.066a25.43,25.43,0,0,1-4.708-3.436,10.906,10.906,0,0,1-3.067-5,.31.31,0,0,1,.224-.376.315.315,0,0,1,.375.224,10.3,10.3,0,0,0,2.9,4.71,24.87,24.87,0,0,0,4.594,3.349l.107.064a8.672,8.672,0,0,1,2.771,2.239.31.31,0,0,1-.073.432A.313.313,0,0,1,298.44,53.633Z" style="fill:#0e1321"/><path d="M220.187,64.834l-.043,0a.31.31,0,0,1-.264-.349c.081-.578.145-1.163.21-1.748a17.43,17.43,0,0,1,1.528-6.36c1.31-2.474,3.656-4.126,5.925-5.725l.38-.267c2.219-1.568,4.666-3.465,5.6-6.139a.319.319,0,0,1,.395-.19.311.311,0,0,1,.189.4c-1,2.845-3.533,4.816-5.83,6.439l-.38.268c-2.21,1.557-4.5,3.165-5.737,5.509a17.015,17.015,0,0,0-1.458,6.139c-.066.59-.131,1.181-.212,1.764A.309.309,0,0,1,220.187,64.834Z" style="fill:#0e1321"/><path d="M216.845,59.17h0a.31.31,0,0,1-.3-.314A16.111,16.111,0,0,1,222.7,46.5a.309.309,0,0,1,.38.488,15.7,15.7,0,0,0-5.93,11.881A.308.308,0,0,1,216.845,59.17Z" style="fill:#0e1321"/><path d="M176.557,371.736s-3.432,14.671-3.154,17.816,1.206,10.471.742,13.253-.092,24.67-.278,27.916-2.04,64.273-2.04,64.273a44.328,44.328,0,0,0,32.646,12.566A286.876,286.876,0,0,0,239.53,503.9s1.178-37.847,1.948-42.987c.869-5.8,1.948-25.041,1.948-25.041s3.617,25.875,3.2,28.241,3.757,40.065,3.757,40.065,23.232,6.307,39.509,1.855a168.766,168.766,0,0,0,27.823-10.2s-.834-58.846,0-62.6S319.2,392.6,319.523,386.9s-1.146-8.447-1.146-8.447l-7.2-11.725-68.585-36.448Z" style="fill:#714e38"/><path d="M239.727,361.59c8.288,10.132,9.352,24.415,16.124,35.618,3.093-5.327,6.482-10.942,11.993-13.7,3.331-1.664,7.13-2.106,10.849-2.3a92.538,92.538,0,0,1,40.778,7.276c.026-.659.049-1.2.072-1.594.324-5.7-1.147-8.447-1.147-8.447l-7.2-11.725-68.585-36.448-66.035,41.457s-1.488,6.372-2.425,11.62a109.169,109.169,0,0,1,40.96,8.041A215.951,215.951,0,0,0,239.727,361.59Z" style="fill:#5a3e28"/><path d="M199.222,500.674a.662.662,0,0,1-.088-.006.618.618,0,0,1-.529-.66,266.707,266.707,0,0,0,.567-31.395q-.065-1.55-.139-3.1c-.193-4.1-.393-8.339-.2-12.521.035-.77.084-1.54.134-2.312a43.034,43.034,0,0,0,.064-7.053c-.1-.973-.268-1.939-.435-2.9a25.875,25.875,0,0,1,.358-12.182l.2-1.1c2.667-14.512,2.63-29.511,2.595-44.019a.618.618,0,0,1,.617-.619h0a.618.618,0,0,1,.618.617c.037,14.563.073,29.62-2.614,44.246l-.207,1.1a24.7,24.7,0,0,0-.353,11.742c.167.974.343,1.981.445,2.991a43.906,43.906,0,0,1-.059,7.256c-.05.765-.1,1.529-.134,2.292-.191,4.124.007,8.334.2,12.4q.073,1.556.14,3.11a268.19,268.19,0,0,1-.415,29.423.622.622,0,0,1,.17.563l-.337,1.633A.617.617,0,0,1,199.222,500.674Z" style="fill:#5a3e28"/><path d="M247.391,406.925a.618.618,0,0,1-.2-.034l-.538-.185c-2.711-.93-4.853-1.664-5.238-4.65a43.99,43.99,0,0,1-.149-7.075l.042-1.4c.308-11.819-1.386-23.738-3.023-35.264a.617.617,0,0,1,.525-.7.626.626,0,0,1,.7.525c1.645,11.577,3.346,23.548,3.036,35.469l-.043,1.408a43.156,43.156,0,0,0,.14,6.878c.27,2.1,1.514,2.641,4.289,3.6,2.307-11.371,1.9-20.863,1.432-31.818-.072-1.706-.147-3.451-.215-5.251a.621.621,0,0,1,.6-.642.61.61,0,0,1,.641.6c.066,1.8.141,3.542.214,5.243.482,11.26.9,20.983-1.6,32.813a.619.619,0,0,1-.605.49Z" style="fill:#5a3e28"/><path d="M279.935,496.079a.619.619,0,0,1-.619-.609l-1.065-73.948c-.055-3.846-.118-8.207,1.347-12.13.2-.541.433-1.074.664-1.606a14.774,14.774,0,0,0,1.121-3.226,15.06,15.06,0,0,0,.105-3.152l-.567-15.539a.621.621,0,0,1,.6-.642.575.575,0,0,1,.641.6l.566,15.54a12.123,12.123,0,0,1-1.327,6.916c-.223.512-.446,1.025-.64,1.545-1.384,3.706-1.326,7.76-1.269,11.682l1.065,73.947a.618.618,0,0,1-.61.626Z" style="fill:#5a3e28"/><path d="M295.142,432.2a.618.618,0,0,1-.543-.914,127.921,127.921,0,0,0,14.425-44.04.618.618,0,1,1,1.224.167,129.141,129.141,0,0,1-14.562,44.464A.62.62,0,0,1,295.142,432.2Z" style="fill:#5a3e28"/><path d="M301.527,483.229a.615.615,0,0,1-.43-.174c-15.692-15.21-27.475-33.934-38.87-52.041a.618.618,0,0,1,1.046-.659c11.357,18.046,23.1,36.707,38.684,51.812a.618.618,0,0,1-.43,1.062Z" style="fill:#5a3e28"/><path d="M210.826,488.922a.619.619,0,0,1-.535-.929,324.64,324.64,0,0,0,23.856-50.767.619.619,0,1,1,1.161.428,326.031,326.031,0,0,1-23.947,50.96A.616.616,0,0,1,210.826,488.922Z" style="fill:#5a3e28"/><path d="M243.626,436.209a.619.619,0,0,1-.617-.577,22.035,22.035,0,0,1,.363-4.736c.13-.866.26-1.731.329-2.6a35.152,35.152,0,0,0-1.338-10.731l-.1-.423a39.071,39.071,0,0,1-1-16.377.655.655,0,0,1,.668-.564.618.618,0,0,1,.564.668A51.247,51.247,0,0,0,242.3,410.9a51.843,51.843,0,0,0,1.166,5.959l.1.423c.888,3.751,1.659,7.422,1.367,11.113-.07.9-.2,1.793-.338,2.686a20.638,20.638,0,0,0-.351,4.471.62.62,0,0,1-.577.658Z" style="fill:#5a3e28"/><path d="M152.234,280.822l-.6,12.556s9.292-4.417,17.639-16.66c0,0-5.328-32.483-8.82-33.666Z" style="fill:#e47e5f"/><path d="M156.756,157.286s7.095-8.416,7.79-15.859,1.113-15.164,2.991-17.946,4.382-4.243,4.035-5.982-5.217-3.826-8.834-1.044-5.078,9.46-5.982,10.921-1.531,2.365-1.531,2.365-.069-9.321-.556-10.782.626-34.014.417-35.127-1.878-4.034-4.1-3.547-2.852,5.425-2.852,5.425l-1.252,31.511s-2.156,1.112-2.712-.07-1.392-33.6-1.879-36.032-.973-4.312-3.825-4.034-2.783,5.982-2.783,5.982l.835,34.105s-3.408-28.679-4.939-31.253-3.478-2.3-4.451-2.017-1.878,3.895-1.252,7.651,2.573,25.619,2.573,25.619-4.382-22.558-4.938-23.393a3.077,3.077,0,0,0-3.548-.9c-1.53.556-.209,8.556,0,11.616s2.852,16.486,2.852,16.486.348,7.651.209,9.46-.7,14.607,0,17.876,7.164,16.346,8.555,17.807.766,8.347.835,10.086.093,43.243.093,43.243-1.67,43.219-1.67,44.888,3.154,17.343,7.513,22.723,11.686,7.048,13.633,6.213,7.791-13.169,9.182-18.827,2.777-22.939,1.762-27.73-7.327-55.555-7.512-57.873S154.854,165.888,156.756,157.286Z" style="fill:#ffa185"/><path d="M139,148.839h-.01a.619.619,0,0,1-.608-.628c.088-5.849-8.874-13.539-8.964-13.617a.618.618,0,0,1,.8-.942c.388.33,9.5,8.146,9.4,14.579A.618.618,0,0,1,139,148.839Z" style="fill:#e47e5f"/><path d="M140.989,151.713a.617.617,0,0,1-.559-.882c.322-.68,7.948-16.689,13.73-19.579a.618.618,0,1,1,.553,1.106c-5.4,2.7-13.088,18.839-13.165,19A.619.619,0,0,1,140.989,151.713Z" style="fill:#e47e5f"/><path d="M140.989,171.283h-.02a.62.62,0,0,1-.6-.638,17.519,17.519,0,0,0-.671-3.891.617.617,0,0,1,.424-.764.61.61,0,0,1,.764.424,18.281,18.281,0,0,1,.72,4.27A.619.619,0,0,1,140.989,171.283Z" style="fill:#e47e5f"/><path d="M142.935,172.86a.617.617,0,0,1-.614-.569,42.479,42.479,0,0,1,.608-5.62.609.609,0,0,1,.709-.511.617.617,0,0,1,.511.709,42.048,42.048,0,0,0-.6,5.323.618.618,0,0,1-.567.666Z" style="fill:#e47e5f"/><path d="M326.757,282.144s-2.782,9.46-2.087,17.39,13.355,61.907,12.66,66.915-7.652,23.094-7.93,26.711.974,9.46.974,9.46,5.518,7.976,5.8,11.315,1.187,4.358,1.187,4.358-3.019,5.82-2.741,7.559a1.488,1.488,0,0,0,1.809,1.391s-3.061,3.339-2.365,3.965,2.643,0,2.643,0-4.174,4.661-2.435,5.356,8.486-2.573,8.486-2.573l4.87-5.774s3.338-8.486,3.153-10.016l.835.046s-.14,5.519.231,6.492-2.133,6.724-2.04,8.394c0,0-4.127,8.161-3.107,10.248s5.889-2.643,8.765-7.651c0,0,3.524-9.646,3.848-10.666s.279-11.454.557-13.726a20.274,20.274,0,0,0,.695-5.333c-.231-1.716-5.193-18.039-5.842-21.471a146.12,146.12,0,0,1-1.484-17.157,59.352,59.352,0,0,0-.279-6.122c-.092-2.133-.185-57.687-.371-60.748s-3.431-24.391-3.431-24.391Z" style="fill:#ffa185"/><path d="M335.02,293.928a47.529,47.529,0,0,1,15.689-7.393c-.8-5.454-1.548-10.381-1.548-10.381l-22.4,6.028s-2.782,9.46-2.087,17.39c.089,1.014.376,2.79.8,5.113A34.226,34.226,0,0,1,335.02,293.928Z" style="fill:#e47e5f"/><path d="M346.259,404.521c-3.338-2.551-3.7-9.089-3.7-9.089.148,2.087-2.189,10.2-2.189,10.2,1.3,1.669,1.716,10.434.788,12.567s-3.431.749-3.431.749l-.39-.657s-3.018,5.82-2.74,7.559a1.487,1.487,0,0,0,1.808,1.391s-3.06,3.339-2.365,3.965,2.643,0,2.643,0-4.173,4.661-2.434,5.356,8.486-2.573,8.486-2.573l4.869-5.774s3.339-8.486,3.153-10.016l.789.043V409.2A43.8,43.8,0,0,0,346.259,404.521Z" style="fill:#e47e5f"/><path d="M352.023,408.788a44.038,44.038,0,0,0-5.368-4.759c-2.968-2.267-3.426-8.156-3.456-8.6,0-.012,0-.025,0-.037a.586.586,0,0,0-.656-.573.617.617,0,0,0-.578.651c0,.009,0,.028,0,.052.085,1.682-1.532,7.736-2.169,9.944a.618.618,0,0,0,.106.551c1.1,1.41,1.6,9.892.709,11.941a1.241,1.241,0,0,1-.729.746,2.7,2.7,0,0,1-1.838-.292.618.618,0,0,0-.6,1.083,4.411,4.411,0,0,0,1.954.52c.051,0,.1-.022.155-.025a53.66,53.66,0,0,0-3.072,6.826.309.309,0,0,0,.579.215,49.058,49.058,0,0,1,3.317-7.217,2.483,2.483,0,0,0,1.366-1.363c.936-2.154.62-10.549-.684-12.911.269-.948,1.03-3.684,1.568-6.154a10.551,10.551,0,0,0,3.274,5.63,45.658,45.658,0,0,1,5.044,4.438v5.6c-1.736-.334-6.387-1.474-7.632-4.251a.31.31,0,1,0-.565.254A5.437,5.437,0,0,0,344.334,413c-.075.842-.538,6.19-.238,7.743a57.635,57.635,0,0,0-3.506,6.694l-3.053,2.823a.309.309,0,0,0,.21.536.312.312,0,0,0,.21-.082l3.107-2.874a.316.316,0,0,0,.08-.121,59.62,59.62,0,0,1,3.545-6.764.3.3,0,0,0,.034-.239c-.268-1.006.017-5.2.195-7.282a17.02,17.02,0,0,0,6.03,2.241v1.689a.619.619,0,0,0,1.237,0v-8.161A.618.618,0,0,0,352.023,408.788Z" style="fill:#bf755a"/><path d="M236.331,137.6s-50.5,7.513-55.786,10.99-13.773,46.883-15.86,54.952l-6.4,7.512s4.173,35.336,4.591,39.37S169.833,282.7,169,287.987c0,0,4.034,1.159,4.359-.7,0,0,8.764-21.748,8.857-24.994,0,0-3.9,78.833-4.173,81.059s-2.69,16.879-2.876,17.992-1.112,3.525-.185,4.174c0,0-5.843,6.863-2.875,10.758,0,0,1.206-3.06,18.642-.742s39.323,13.17,39.323,13.17l11.779-51.844s21.95,51.2,23.928,52.586,23.557-11.872,35.8-11.964,16.8.966,16.8.966l.885,3.027s2.44-8.816,1.791-12.155,3.988-16.6,2.412-23.742a104.517,104.517,0,0,0-3.061-11.315s2.875-7.327,2.04-10.388-2.318-8.718-2.318-8.718-.464-23.279-1.206-24.763,14.561-9.181,24.392-9.923,15.164-.626,15.164-.626S347.485,197,346.929,193.387s-4.034-37-8.486-40.135-37.284-10.364-42.292-10.643-14.468-3.988-14.468-3.988L256.317,159.35A104.5,104.5,0,0,1,236.331,137.6Z" style="fill:#3a4557"/><path d="M274.171,131.99v5.194L256.781,157.4l-13.776-19.708v-5.936l-8.483,4.127a88.321,88.321,0,0,0,6.446,36.217l15.813-13.123,14.561,15.766s11.732-28.1,11.547-37.561Z" style="fill:#343f4e"/><path d="M180.823,158.747c1.113,20.033-6.678,61.212-11.547,57.6-2.572-1.911-4.128-7.463-5.03-12.284l-5.96,7s4.173,35.336,4.591,39.37S169.833,282.7,169,287.987c0,0,4.034,1.159,4.359-.7,0,0,5.782-14.347,8-21.474l.748-2.764a5.015,5.015,0,0,0,.106-.756l0,.084C185.537,241.073,180.823,158.747,180.823,158.747Z" style="fill:#303949"/><path d="M328.892,214.255c1.112-25.969,5.874-54.534,5.874-54.534s-10.759,34.686-11.686,48.227-2.6,66.406-3.895,69.559-2.319,6.121-1.762,6.956,2.358-.165,2.689,2.04a4.723,4.723,0,0,1-.533,2.874c2.416-2.089,10.957-6.2,18.589-8.035C334.546,265.106,328.085,233.068,328.892,214.255Z" style="fill:#303949"/><path d="M304.175,362.276s12.694-4.358,19.216-17.018a109.173,109.173,0,0,0-2.893-10.72c-2.052,5.727-5.777,15.486-8.161,18C308.9,356.154,304.175,362.276,304.175,362.276Z" style="fill:#303949"/><path d="M271.342,175.363a.619.619,0,0,1-.454-.2l-14.164-15.336-15.361,12.75a.618.618,0,0,1-.945-.194c-5.793-11.354-6.559-32.166-6.589-33.046a.619.619,0,1,1,1.237-.041c.007.207.754,20.557,6.111,31.829L256.386,158.5a.62.62,0,0,1,.849.056l13.907,15.058c1.826-4.413,9.8-24.028,10.573-31.554a.618.618,0,1,1,1.229.126c-.883,8.644-10.617,31.814-11.032,32.8a.622.622,0,0,1-.463.369A.644.644,0,0,1,271.342,175.363Z" style="fill:#202833"/><path d="M182.607,259.82a.57.57,0,0,1-.123-.012.618.618,0,0,1-.485-.728c1.206-6.016.748-36.692-.012-61.133-.438-14.1-1.952-40.613-1.967-40.88a.617.617,0,0,1,.582-.652.6.6,0,0,1,.652.582c.016.265,1.53,26.795,1.97,40.911.275,8.871,1.569,53.524-.012,61.416A.618.618,0,0,1,182.607,259.82Z" style="fill:#202833"/><path d="M173.172,283.179h-.035a.617.617,0,0,1-.582-.652c1.506-26.152-12.544-69.038-12.685-69.468a.618.618,0,1,1,1.174-.389c.142.432,14.264,43.544,12.745,69.927A.618.618,0,0,1,173.172,283.179Z" style="fill:#202833"/><path d="M177.67,252.9h0a.618.618,0,0,1-.613-.623c.089-12.8-11.976-40.554-12.1-40.833a.618.618,0,1,1,1.133-.5c.5,1.148,12.293,28.279,12.2,41.338A.618.618,0,0,1,177.67,252.9Z" style="fill:#202833"/><path d="M317.281,284.247a.616.616,0,0,1-.472-.22c-.95-1.126-.089-3.028.906-5.23a24.34,24.34,0,0,0,1.156-2.859c.252-.839.52-8.5.832-17.37.683-19.485,1.716-48.93,4.078-59.621,3.476-15.744,9.963-41.8,10.028-42.065a.612.612,0,0,1,.75-.451.62.62,0,0,1,.45.75c-.065.261-6.548,26.3-10.021,42.031-2.338,10.583-3.368,39.959-4.05,59.4-.384,10.968-.6,16.734-.883,17.682a24.968,24.968,0,0,1-1.213,3.013c-.684,1.512-1.534,3.394-1.089,3.924a.618.618,0,0,1-.472,1.017Z" style="fill:#202833"/><path d="M318.92,281.092a.618.618,0,0,1-.385-1.1c.507-.4,12.718-9.867,36.411-8.294a.619.619,0,0,1,.576.658.612.612,0,0,1-.658.576c-23.185-1.548-35.439,7.933-35.56,8.028A.609.609,0,0,1,318.92,281.092Z" style="fill:#202833"/><path d="M241.546,336.53a.613.613,0,0,1-.559-.358c-.051-.11-1.241-2.8-1.241-11.458,0-5.059,4.227-57.413,11.9-147.417l.345-4.04a2.877,2.877,0,0,0-.477-2.033,6.685,6.685,0,0,1-.909-2.5c-.451-2.752,5.071-9.4,5.7-10.145a.618.618,0,1,1,.944.8c-2.241,2.66-5.7,7.5-5.427,9.148a5.469,5.469,0,0,0,.762,2.086,4.035,4.035,0,0,1,.635,2.748l-.344,4.043c-7.671,89.971-11.9,142.287-11.9,147.312,0,8.3,1.117,10.919,1.129,10.946a.62.62,0,0,1-.31.815A.635.635,0,0,1,241.546,336.53Z" style="fill:#202833"/><path d="M176.927,365.306a.619.619,0,0,1-.346-1.131c.367-.247,36.818-25.018,52.839-48.435a.619.619,0,0,1,1.022.7c-16.157,23.613-52.8,48.512-53.168,48.761A.609.609,0,0,1,176.927,365.306Z" style="fill:#202833"/><path d="M297.962,369.434a.622.622,0,0,1-.255-.054c-8.846-3.991-17.033-9.692-24.013-14.722-9.747-7.022-20.856-15.408-29.349-26.06a.618.618,0,1,1,.966-.771c8.4,10.529,19.426,18.854,29.1,25.829,6.932,4.993,15.059,10.652,23.8,14.6a.618.618,0,0,1-.255,1.182Z" style="fill:#202833"/><path d="M306.61,361.461a.618.618,0,0,1-.412-1.08,36.454,36.454,0,0,0,8.574-12.254,110.8,110.8,0,0,0,5-14.38.618.618,0,1,1,1.185.353,111.706,111.706,0,0,1-5.055,14.539,37.637,37.637,0,0,1-8.876,12.664A.614.614,0,0,1,306.61,361.461Z" style="fill:#202833"/><path d="M214.508,299.765a.619.619,0,0,1-.288-1.166c6.415-3.382,11.933-8.063,17.97-13.384,27.157-23.941,48.011-45.342,61.525-71.972a.619.619,0,1,1,1.1.56c-13.6,26.8-34.547,48.305-61.809,72.34-6.1,5.375-11.676,10.1-18.212,13.55A.613.613,0,0,1,214.508,299.765Z" style="fill:#202833"/><path d="M219.631,307.527a.618.618,0,0,1-.238-1.189c15.232-6.35,28.342-16.149,39.157-24.9,6.6-5.337,13.413-11.184,17.819-18.8a.618.618,0,0,1,1.069.619c-4.51,7.795-11.42,13.729-18.11,19.138-10.883,8.8-24.082,18.665-39.459,25.076A.639.639,0,0,1,219.631,307.527Z" style="fill:#202833"/></g></svg>